InriaSerif-LightItalic.ufo
<glyph name="exclam" format="1">
  <advance width="261"/>
  <unicode hex="0021"/>
  <outline>
    <contour>
      <point x="132" y="172" type="line"/>
      <point x="175" y="413"/>
      <point x="200" y="465"/>
      <point x="238" y="680" type="curve"/>
      <point x="178" y="680" type="line"/>
      <point x="140" y="465"/>
      <point x="147" y="413"/>
      <point x="104" y="172" type="curve"/>
    </contour>
    <contour>
      <point x="91" y="-10" type="curve" smooth="yes"/>
      <point x="122" y="-10"/>
      <point x="143" y="13"/>
      <point x="143" y="42" type="curve" smooth="yes"/>
      <point x="143" y="69"/>
      <point x="125" y="84"/>
      <point x="98" y="84" type="curve" smooth="yes"/>
      <point x="67" y="84"/>
      <point x="46" y="61"/>
      <point x="46" y="32" type="curve" smooth="yes"/>
      <point x="46" y="5"/>
      <point x="64" y="-10"/>
    </contour>
  </outline>
</glyph>
<glyph name="quotedbl" format="1">
  <advance width="411"/>
  <unicode hex="0022"/>
  <outline>
    <contour>
      <point x="182" y="459" type="line"/>
      <point x="210" y="610"/>
      <point x="241" y="613"/>
      <point x="241" y="656" type="curve" smooth="yes"/>
      <point x="241" y="677"/>
      <point x="227" y="690"/>
      <point x="205" y="690" type="curve" smooth="yes"/>
      <point x="181" y="690"/>
      <point x="160" y="674"/>
      <point x="160" y="632" type="curve" smooth="yes"/>
      <point x="160" y="612"/>
      <point x="165" y="599"/>
      <point x="165" y="565" type="curve" smooth="yes"/>
      <point x="165" y="542"/>
      <point x="163" y="510"/>
      <point x="154" y="459" type="curve"/>
    </contour>
    <contour>
      <point x="333" y="459" type="line"/>
      <point x="361" y="610"/>
      <point x="392" y="613"/>
      <point x="392" y="656" type="curve" smooth="yes"/>
      <point x="392" y="677"/>
      <point x="378" y="690"/>
      <point x="356" y="690" type="curve" smooth="yes"/>
      <point x="332" y="690"/>
      <point x="311" y="674"/>
      <point x="311" y="632" type="curve" smooth="yes"/>
      <point x="311" y="612"/>
      <point x="316" y="599"/>
      <point x="316" y="565" type="curve" smooth="yes"/>
      <point x="316" y="542"/>
      <point x="314" y="510"/>
      <point x="305" y="459" type="curve"/>
    </contour>
  </outline>
</glyph>
<glyph name="numbersign" format="1">
  <advance width="651"/>
  <unicode hex="0023"/>
  <outline>
    <contour>
      <point x="548" y="213" type="line"/>
      <point x="553" y="243" type="line"/>
      <point x="445" y="243" type="line"/>
      <point x="539" y="437" type="line"/>
      <point x="656" y="437" type="line"/>
      <point x="661" y="467" type="line"/>
      <point x="553" y="467" type="line"/>
      <point x="655" y="678" type="line"/>
      <point x="624" y="690" type="line"/>
      <point x="516" y="467" type="line"/>
      <point x="291" y="467" type="line"/>
      <point x="393" y="678" type="line"/>
      <point x="362" y="690" type="line"/>
      <point x="254" y="467" type="line"/>
      <point x="137" y="467" type="line"/>
      <point x="132" y="437" type="line"/>
      <point x="240" y="437" type="line"/>
      <point x="146" y="243" type="line"/>
      <point x="29" y="243" type="line"/>
      <point x="24" y="213" type="line"/>
      <point x="132" y="213" type="line"/>
      <point x="30" y="2" type="line"/>
      <point x="61" y="-10" type="line"/>
      <point x="169" y="213" type="line"/>
      <point x="394" y="213" type="line"/>
      <point x="292" y="2" type="line"/>
      <point x="323" y="-10" type="line"/>
      <point x="431" y="213" type="line"/>
    </contour>
    <contour>
      <point x="183" y="243" type="line"/>
      <point x="277" y="437" type="line"/>
      <point x="502" y="437" type="line"/>
      <point x="408" y="243" type="line"/>
    </contour>
  </outline>
</glyph>
<glyph name="dollar" format="1">
  <advance width="539.6048379499457"/>
  <unicode hex="0024"/>
  <outline>
    <contour>
      <point x="476" y="196" type="curve" smooth="yes"/>
      <point x="476" y="279"/>
      <point x="429" y="328"/>
      <point x="341" y="362" type="curve" smooth="yes"/>
      <point x="308" y="375" type="line"/>
      <point x="358" y="659" type="line"/>
      <point x="446" y="645"/>
      <point x="473" y="578"/>
      <point x="441" y="467" type="curve"/>
      <point x="507" y="483" type="line"/>
      <point x="541" y="578"/>
      <point x="491" y="672"/>
      <point x="363" y="688" type="curve"/>
      <point x="384" y="805" type="line"/>
      <point x="349" y="805" type="line"/>
      <point x="329" y="690" type="line"/>
      <point x="324" y="690" type="line" smooth="yes"/>
      <point x="173" y="690"/>
      <point x="103" y="598"/>
      <point x="103" y="499" type="curve" smooth="yes"/>
      <point x="103" y="415"/>
      <point x="149" y="361"/>
      <point x="233" y="329" type="curve" smooth="yes"/>
      <point x="263" y="318" type="line"/>
      <point x="211" y="22" type="line"/>
      <point x="142" y="30"/>
      <point x="89" y="71"/>
      <point x="92" y="191" type="curve"/>
      <point x="34" y="173" type="line"/>
      <point x="41" y="43"/>
      <point x="121" y="-1"/>
      <point x="206" y="-9" type="curve"/>
      <point x="185" y="-125" type="line"/>
      <point x="220" y="-125" type="line"/>
      <point x="240" y="-10" type="line"/>
      <point x="403" y="-10"/>
      <point x="476" y="96"/>
    </contour>
    <contour>
      <point x="166" y="517" type="curve" smooth="yes"/>
      <point x="166" y="611"/>
      <point x="228" y="661"/>
      <point x="322" y="661" type="curve" smooth="yes"/>
      <point x="324" y="661" type="line"/>
      <point x="275" y="387" type="line"/>
      <point x="194" y="418"/>
      <point x="166" y="456"/>
    </contour>
    <contour>
      <point x="413" y="168" type="curve" smooth="yes"/>
      <point x="413" y="81"/>
      <point x="355" y="23"/>
      <point x="246" y="20" type="curve"/>
      <point x="296" y="305" type="line"/>
      <point x="380" y="273"/>
      <point x="413" y="235"/>
    </contour>
  </outline>
</glyph>
<glyph name="percent" format="1">
  <advance width="715"/>
  <unicode hex="0025"/>
  <outline>
    <contour>
      <point x="362" y="529" type="line" smooth="yes"/>
      <point x="376" y="613"/>
      <point x="334" y="685"/>
      <point x="244" y="685" type="curve" smooth="yes"/>
      <point x="168" y="685"/>
      <point x="111" y="635"/>
      <point x="97" y="549" type="curve" smooth="yes"/>
      <point x="94" y="531" type="line" smooth="yes"/>
      <point x="80" y="445"/>
      <point x="122" y="375"/>
      <point x="211" y="375" type="curve" smooth="yes"/>
      <point x="287" y="375"/>
      <point x="344" y="424"/>
      <point x="359" y="511" type="curve" smooth="yes"/>
    </contour>
    <contour>
      <point x="608" y="680" type="line"/>
      <point x="117" y="17" type="line"/>
      <point x="141" y="0" type="line"/>
      <point x="631" y="663" type="line"/>
    </contour>
    <contour>
      <point x="311" y="544" type="curve" smooth="yes"/>
      <point x="304" y="502" type="line" smooth="yes"/>
      <point x="292" y="428"/>
      <point x="255" y="399"/>
      <point x="211" y="399" type="curve" smooth="yes"/>
      <point x="157" y="399"/>
      <point x="133" y="444"/>
      <point x="145" y="516" type="curve" smooth="yes"/>
      <point x="152" y="558" type="line" smooth="yes"/>
      <point x="164" y="632"/>
      <point x="203" y="661"/>
      <point x="246" y="661" type="curve" smooth="yes"/>
      <point x="299" y="661"/>
      <point x="323" y="616"/>
    </contour>
    <contour>
      <point x="657" y="149" type="line" smooth="yes"/>
      <point x="671" y="233"/>
      <point x="629" y="305"/>
      <point x="539" y="305" type="curve" smooth="yes"/>
      <point x="463" y="305"/>
      <point x="406" y="255"/>
      <point x="392" y="169" type="curve" smooth="yes"/>
      <point x="389" y="151" type="line" smooth="yes"/>
      <point x="375" y="65"/>
      <point x="417" y="-5"/>
      <point x="506" y="-5" type="curve" smooth="yes"/>
      <point x="582" y="-5"/>
      <point x="639" y="44"/>
      <point x="654" y="131" type="curve" smooth="yes"/>
    </contour>
    <contour>
      <point x="606" y="164" type="curve" smooth="yes"/>
      <point x="599" y="122" type="line" smooth="yes"/>
      <point x="587" y="48"/>
      <point x="550" y="19"/>
      <point x="506" y="19" type="curve" smooth="yes"/>
      <point x="452" y="19"/>
      <point x="428" y="64"/>
      <point x="440" y="136" type="curve" smooth="yes"/>
      <point x="447" y="178" type="line" smooth="yes"/>
      <point x="459" y="252"/>
      <point x="498" y="281"/>
      <point x="541" y="281" type="curve" smooth="yes"/>
      <point x="594" y="281"/>
      <point x="618" y="236"/>
    </contour>
  </outline>
</glyph>
<glyph name="ampersand" format="1">
  <advance width="616"/>
  <unicode hex="0026"/>
  <outline>
    <contour>
      <point x="486" y="188" type="curve" smooth="yes"/>
      <point x="486" y="247"/>
      <point x="457" y="303"/>
      <point x="402" y="351" type="curve"/>
      <point x="473" y="361" type="line" smooth="yes"/>
      <point x="518" y="368"/>
      <point x="568" y="377"/>
      <point x="621" y="394" type="curve"/>
      <point x="604" y="465" type="line"/>
      <point x="556" y="426"/>
      <point x="503" y="403"/>
      <point x="430" y="389" type="curve" smooth="yes"/>
      <point x="290" y="363" type="line"/>
      <point x="223" y="424"/>
      <point x="204" y="484"/>
      <point x="204" y="534" type="curve" smooth="yes"/>
      <point x="204" y="618"/>
      <point x="262" y="660"/>
      <point x="327" y="660" type="curve" smooth="yes"/>
      <point x="415" y="660"/>
      <point x="461" y="596"/>
      <point x="427" y="478" type="curve"/>
      <point x="491" y="493" type="line"/>
      <point x="525" y="592"/>
      <point x="460" y="690"/>
      <point x="328" y="690" type="curve" smooth="yes"/>
      <point x="221" y="690"/>
      <point x="138" y="623"/>
      <point x="138" y="530" type="curve" smooth="yes"/>
      <point x="138" y="466"/>
      <point x="177" y="412"/>
      <point x="253" y="355" type="curve"/>
      <point x="132" y="324"/>
      <point x="48" y="257"/>
      <point x="48" y="153" type="curve" smooth="yes"/>
      <point x="48" y="43"/>
      <point x="124" y="-10"/>
      <point x="256" y="-10" type="curve" smooth="yes"/>
      <point x="382" y="-10"/>
      <point x="486" y="64"/>
    </contour>
    <contour>
      <point x="114" y="151" type="curve" smooth="yes"/>
      <point x="114" y="252"/>
      <point x="176" y="317"/>
      <point x="303" y="336" type="curve" smooth="yes"/>
      <point x="365" y="345" type="line"/>
      <point x="414" y="299"/>
      <point x="432" y="244"/>
      <point x="432" y="190" type="curve" smooth="yes"/>
      <point x="432" y="81"/>
      <point x="358" y="20"/>
      <point x="257" y="20" type="curve" smooth="yes"/>
      <point x="169" y="20"/>
      <point x="114" y="61"/>
    </contour>
  </outline>
</glyph>
<glyph name="quotesingle" format="1">
  <advance width="260"/>
  <unicode hex="0027"/>
  <outline>
    <contour>
      <point x="182" y="459" type="line"/>
      <point x="210" y="610"/>
      <point x="241" y="613"/>
      <point x="241" y="656" type="curve" smooth="yes"/>
      <point x="241" y="677"/>
      <point x="227" y="690"/>
      <point x="205" y="690" type="curve" smooth="yes"/>
      <point x="181" y="690"/>
      <point x="160" y="674"/>
      <point x="160" y="632" type="curve" smooth="yes"/>
      <point x="160" y="612"/>
      <point x="165" y="599"/>
      <point x="165" y="565" type="curve" smooth="yes"/>
      <point x="165" y="542"/>
      <point x="163" y="510"/>
      <point x="154" y="459" type="curve"/>
    </contour>
  </outline>
</glyph>
<glyph name="parenleft" format="1">
  <advance width="339"/>
  <unicode hex="0028"/>
  <outline>
    <contour>
      <point x="90" y="279" type="line" smooth="yes"/>
      <point x="70" y="136"/>
      <point x="103" y="-34"/>
      <point x="219" y="-153" type="curve"/>
      <point x="243" y="-131" type="line"/>
      <point x="147" y="-22"/>
      <point x="130" y="130"/>
      <point x="154" y="282" type="curve" smooth="yes"/>
      <point x="160" y="320" type="line" smooth="yes"/>
      <point x="184" y="474"/>
      <point x="261" y="613"/>
      <point x="399" y="724" type="curve"/>
      <point x="378" y="750" type="line"/>
      <point x="220" y="630"/>
      <point x="120" y="487"/>
      <point x="96" y="321" type="curve" smooth="yes"/>
    </contour>
  </outline>
</glyph>
<glyph name="parenright" format="1">
  <advance width="339"/>
  <unicode hex="0029"/>
  <outline>
    <contour>
      <point x="269" y="318" type="line" smooth="yes"/>
      <point x="289" y="461"/>
      <point x="256" y="631"/>
      <point x="140" y="750" type="curve"/>
      <point x="116" y="728" type="line"/>
      <point x="212" y="619"/>
      <point x="229" y="467"/>
      <point x="205" y="315" type="curve" smooth="yes"/>
      <point x="199" y="277" type="line" smooth="yes"/>
      <point x="175" y="123"/>
      <point x="98" y="-16"/>
      <point x="-40" y="-127" type="curve"/>
      <point x="-19" y="-153" type="line"/>
      <point x="139" y="-33"/>
      <point x="239" y="110"/>
      <point x="263" y="276" type="curve" smooth="yes"/>
    </contour>
  </outline>
</glyph>
<glyph name="asterisk" format="1">
  <advance width="440"/>
  <unicode hex="002A"/>
  <outline>
    <contour>
      <point x="112" y="606" type="curve"/>
      <point x="85" y="555" type="line"/>
      <point x="148" y="521"/>
      <point x="172" y="528"/>
      <point x="245" y="490" type="curve"/>
      <point x="185" y="433"/>
      <point x="161" y="433"/>
      <point x="109" y="382" type="curve"/>
      <point x="149" y="341" type="line"/>
      <point x="202" y="391"/>
      <point x="202" y="416"/>
      <point x="261" y="472" type="curve"/>
      <point x="297" y="399"/>
      <point x="288" y="376"/>
      <point x="321" y="311" type="curve"/>
      <point x="373" y="336" type="line"/>
      <point x="341" y="402"/>
      <point x="318" y="410"/>
      <point x="282" y="483" type="curve"/>
      <point x="363" y="494"/>
      <point x="382" y="480"/>
      <point x="455" y="490" type="curve"/>
      <point x="447" y="547" type="line"/>
      <point x="374" y="537"/>
      <point x="359" y="518"/>
      <point x="279" y="506" type="curve"/>
      <point x="293" y="587"/>
      <point x="313" y="600"/>
      <point x="325" y="672" type="curve"/>
      <point x="268" y="682" type="line"/>
      <point x="256" y="610"/>
      <point x="269" y="591"/>
      <point x="255" y="510" type="curve"/>
      <point x="183" y="549"/>
      <point x="176" y="572"/>
    </contour>
  </outline>
</glyph>
<glyph name="plus" format="1">
  <advance width="588"/>
  <unicode hex="002B"/>
  <outline>
    <contour>
      <point x="514" y="318" type="line"/>
      <point x="520" y="350" type="line"/>
      <point x="330" y="350" type="line"/>
      <point x="364" y="544" type="line"/>
      <point x="330" y="544" type="line"/>
      <point x="296" y="350" type="line"/>
      <point x="106" y="350" type="line"/>
      <point x="100" y="318" type="line"/>
      <point x="290" y="318" type="line"/>
      <point x="256" y="124" type="line"/>
      <point x="290" y="124" type="line"/>
      <point x="324" y="318" type="line"/>
    </contour>
  </outline>
</glyph>
<glyph name="comma" format="1">
  <advance width="261"/>
  <unicode hex="002C"/>
  <outline>
    <contour>
      <point x="140" y="32" type="curve" smooth="yes"/>
      <point x="140" y="63"/>
      <point x="122" y="81"/>
      <point x="96" y="81" type="curve" smooth="yes"/>
      <point x="68" y="81"/>
      <point x="48" y="60"/>
      <point x="48" y="31" type="curve" smooth="yes"/>
      <point x="48" y="7"/>
      <point x="64" y="-9"/>
      <point x="87" y="-10" type="curve"/>
      <point x="77" y="-53"/>
      <point x="41" y="-113"/>
      <point x="-26" y="-181" type="curve"/>
      <point x="-8" y="-199" type="line"/>
      <point x="78" y="-120"/>
      <point x="140" y="-30"/>
    </contour>
  </outline>
</glyph>
<glyph name="hyphen" format="1">
  <advance width="418"/>
  <unicode hex="002D"/>
  <outline>
    <contour>
      <point x="90" y="318" type="line"/>
      <point x="354" y="318" type="line"/>
      <point x="360" y="352" type="line"/>
      <point x="96" y="352" type="line"/>
    </contour>
  </outline>
</glyph>
<glyph name="period" format="1">
  <advance width="261"/>
  <unicode hex="002E"/>
  <outline>
    <contour>
      <point x="46" y="32" type="curve" smooth="yes"/>
      <point x="46" y="5"/>
      <point x="64" y="-10"/>
      <point x="91" y="-10" type="curve" smooth="yes"/>
      <point x="122" y="-10"/>
      <point x="143" y="13"/>
      <point x="143" y="42" type="curve" smooth="yes"/>
      <point x="143" y="69"/>
      <point x="125" y="84"/>
      <point x="98" y="84" type="curve" smooth="yes"/>
      <point x="67" y="84"/>
      <point x="46" y="61"/>
    </contour>
  </outline>
</glyph>
<glyph name="slash" format="1">
  <advance width="383"/>
  <unicode hex="002F"/>
  <outline>
    <contour>
      <point x="416" y="740" type="line"/>
      <point x="-80" y="-127" type="line"/>
      <point x="-47" y="-143" type="line"/>
      <point x="449" y="724" type="line"/>
    </contour>
  </outline>
</glyph>
<glyph name="zero" format="1">
  <advance width="614"/>
  <unicode hex="0030"/>
  <outline>
    <contour>
      <point x="554" y="372" type="line" smooth="yes"/>
      <point x="587" y="560"/>
      <point x="515" y="690"/>
      <point x="369" y="690" type="curve" smooth="yes"/>
      <point x="227" y="690"/>
      <point x="141" y="573"/>
      <point x="107" y="382" type="curve" smooth="yes"/>
      <point x="94" y="309" type="line" smooth="yes"/>
      <point x="60" y="119"/>
      <point x="133" y="-10"/>
      <point x="279" y="-10" type="curve" smooth="yes"/>
      <point x="420" y="-10"/>
      <point x="507" y="106"/>
      <point x="541" y="299" type="curve" smooth="yes"/>
    </contour>
    <contour>
      <point x="490" y="422" type="curve" smooth="yes"/>
      <point x="459" y="249" type="line" smooth="yes"/>
      <point x="430" y="89"/>
      <point x="373" y="20"/>
      <point x="278" y="20" type="curve" smooth="yes"/>
      <point x="178" y="20"/>
      <point x="130" y="101"/>
      <point x="158" y="259" type="curve" smooth="yes"/>
      <point x="189" y="432" type="line" smooth="yes"/>
      <point x="218" y="592"/>
      <point x="275" y="660"/>
      <point x="370" y="660" type="curve" smooth="yes"/>
      <point x="469" y="660"/>
      <point x="518" y="580"/>
    </contour>
  </outline>
</glyph>
<glyph name="one" format="1">
  <advance width="345"/>
  <unicode hex="0031"/>
  <outline>
    <contour>
      <point x="101" y="601" type="line"/>
      <point x="114" y="576" type="line"/>
      <point x="225" y="637" type="line"/>
      <point x="126" y="79" type="line" smooth="yes"/>
      <point x="118" y="32"/>
      <point x="117" y="31"/>
      <point x="95" y="30" type="curve" smooth="yes"/>
      <point x="19" y="25" type="line"/>
      <point x="15" y="0" type="line"/>
      <point x="254" y="0" type="line"/>
      <point x="258" y="25" type="line"/>
      <point x="204" y="30" type="line" smooth="yes"/>
      <point x="184" y="32"/>
      <point x="183" y="33"/>
      <point x="191" y="79" type="curve" smooth="yes"/>
      <point x="297" y="680" type="line"/>
      <point x="242" y="680" type="line"/>
    </contour>
  </outline>
</glyph>
<glyph name="two" format="1">
  <advance width="543"/>
  <unicode hex="0032"/>
  <outline>
    <contour>
      <point x="449" y="184" type="line"/>
      <point x="424" y="184" type="line"/>
      <point x="379" y="83" type="line" smooth="yes"/>
      <point x="369" y="60"/>
      <point x="367" y="57"/>
      <point x="320" y="57" type="curve" smooth="yes"/>
      <point x="72" y="57" type="line"/>
      <point x="97" y="168"/>
      <point x="172" y="227"/>
      <point x="257" y="273" type="curve" smooth="yes"/>
      <point x="374" y="336"/>
      <point x="505" y="377"/>
      <point x="505" y="527" type="curve" smooth="yes"/>
      <point x="505" y="618"/>
      <point x="448" y="690"/>
      <point x="321" y="690" type="curve" smooth="yes"/>
      <point x="180" y="690"/>
      <point x="105" y="596"/>
      <point x="105" y="483" type="curve"/>
      <point x="167" y="467" type="line"/>
      <point x="176" y="591"/>
      <point x="223" y="660"/>
      <point x="320" y="660" type="curve" smooth="yes"/>
      <point x="396" y="660"/>
      <point x="431" y="628"/>
      <point x="431" y="542" type="curve" smooth="yes"/>
      <point x="431" y="406"/>
      <point x="338" y="358"/>
      <point x="244" y="303" type="curve" smooth="yes"/>
      <point x="152" y="249"/>
      <point x="61" y="186"/>
      <point x="34" y="43" type="curve"/>
      <point x="26" y="0" type="line"/>
      <point x="416" y="0" type="line"/>
    </contour>
  </outline>
</glyph>
<glyph name="three" format="1">
  <advance width="531"/>
  <unicode hex="0033"/>
  <outline>
    <contour>
      <point x="455" y="193" type="curve" smooth="yes"/>
      <point x="455" y="282"/>
      <point x="403" y="333"/>
      <point x="313" y="351" type="curve"/>
      <point x="440" y="372"/>
      <point x="501" y="446"/>
      <point x="501" y="541" type="curve" smooth="yes"/>
      <point x="501" y="626"/>
      <point x="446" y="690"/>
      <point x="322" y="690" type="curve" smooth="yes"/>
      <point x="180" y="690"/>
      <point x="102" y="590"/>
      <point x="102" y="483" type="curve"/>
      <point x="164" y="467" type="line"/>
      <point x="173" y="591"/>
      <point x="220" y="660"/>
      <point x="321" y="660" type="curve" smooth="yes"/>
      <point x="390" y="660"/>
      <point x="427" y="625"/>
      <point x="427" y="551" type="curve" smooth="yes"/>
      <point x="427" y="461"/>
      <point x="374" y="366"/>
      <point x="233" y="366" type="curve" smooth="yes"/>
      <point x="206" y="366" type="line"/>
      <point x="200" y="336" type="line"/>
      <point x="227" y="336" type="line" smooth="yes"/>
      <point x="337" y="336"/>
      <point x="380" y="287"/>
      <point x="380" y="201" type="curve" smooth="yes"/>
      <point x="380" y="97"/>
      <point x="323" y="20"/>
      <point x="214" y="20" type="curve" smooth="yes"/>
      <point x="149" y="20"/>
      <point x="84" y="48"/>
      <point x="87" y="163" type="curve"/>
      <point x="33" y="146" type="line"/>
      <point x="50" y="31"/>
      <point x="121" y="-10"/>
      <point x="220" y="-10" type="curve" smooth="yes"/>
      <point x="390" y="-10"/>
      <point x="455" y="103"/>
    </contour>
  </outline>
</glyph>
<glyph name="four" format="1">
  <advance width="484"/>
  <unicode hex="0034"/>
  <outline>
    <contour>
      <point x="279" y="79" type="line" smooth="yes"/>
      <point x="271" y="32"/>
      <point x="270" y="31"/>
      <point x="248" y="30" type="curve" smooth="yes"/>
      <point x="172" y="25" type="line"/>
      <point x="168" y="0" type="line"/>
      <point x="407" y="0" type="line"/>
      <point x="411" y="25" type="line"/>
      <point x="357" y="30" type="line" smooth="yes"/>
      <point x="337" y="32"/>
      <point x="336" y="33"/>
      <point x="344" y="79" type="curve" smooth="yes"/>
      <point x="361" y="176" type="line"/>
      <point x="438" y="176" type="line"/>
      <point x="443" y="206" type="line"/>
      <point x="366" y="206" type="line"/>
      <point x="396" y="377" type="line"/>
      <point x="330" y="367" type="line"/>
      <point x="301" y="206" type="line"/>
      <point x="48" y="206" type="line"/>
      <point x="209" y="345"/>
      <point x="334" y="493"/>
      <point x="416" y="680" type="curve"/>
      <point x="336" y="680" type="line"/>
      <point x="256" y="470"/>
      <point x="170" y="354"/>
      <point x="7" y="206" type="curve"/>
      <point x="2" y="176" type="line"/>
      <point x="296" y="176" type="line"/>
    </contour>
  </outline>
</glyph>
<glyph name="five" format="1">
  <advance width="509"/>
  <unicode hex="0035"/>
  <outline>
    <contour>
      <point x="98" y="349" type="line"/>
      <point x="114" y="344" type="line"/>
      <point x="169" y="386"/>
      <point x="222" y="400"/>
      <point x="270" y="400" type="curve" smooth="yes"/>
      <point x="350" y="400"/>
      <point x="381" y="350"/>
      <point x="381" y="260" type="curve" smooth="yes"/>
      <point x="381" y="125"/>
      <point x="315" y="20"/>
      <point x="206" y="20" type="curve" smooth="yes"/>
      <point x="147" y="20"/>
      <point x="88" y="48"/>
      <point x="91" y="163" type="curve"/>
      <point x="37" y="146" type="line"/>
      <point x="54" y="31"/>
      <point x="119" y="-10"/>
      <point x="208" y="-10" type="curve" smooth="yes"/>
      <point x="383" y="-10"/>
      <point x="454" y="125"/>
      <point x="454" y="245" type="curve" smooth="yes"/>
      <point x="454" y="363"/>
      <point x="386" y="433"/>
      <point x="272" y="433" type="curve" smooth="yes"/>
      <point x="232" y="433"/>
      <point x="188" y="424"/>
      <point x="144" y="400" type="curve"/>
      <point x="195" y="621" type="line"/>
      <point x="495" y="621" type="line"/>
      <point x="519" y="760" type="line"/>
      <point x="494" y="760" type="line"/>
      <point x="474" y="706" type="line" smooth="yes"/>
      <point x="464" y="680"/>
      <point x="466" y="680"/>
      <point x="416" y="680" type="curve" smooth="yes"/>
      <point x="174" y="680" type="line"/>
    </contour>
  </outline>
</glyph>
<glyph name="six" format="1">
  <advance width="572"/>
  <unicode hex="0036"/>
  <outline>
    <contour>
      <point x="497" y="176" type="curve" smooth="yes"/>
      <point x="499" y="188" type="line" smooth="yes"/>
      <point x="520" y="313"/>
      <point x="453" y="399"/>
      <point x="340" y="399" type="curve" smooth="yes"/>
      <point x="275" y="399"/>
      <point x="216" y="371"/>
      <point x="169" y="325" type="curve"/>
      <point x="188" y="437" type="line" smooth="yes"/>
      <point x="218" y="612"/>
      <point x="293" y="660"/>
      <point x="371" y="660" type="curve" smooth="yes"/>
      <point x="473" y="660"/>
      <point x="504" y="591"/>
      <point x="468" y="467" type="curve"/>
      <point x="536" y="483" type="line"/>
      <point x="570" y="591"/>
      <point x="512" y="690"/>
      <point x="375" y="690" type="curve" smooth="yes"/>
      <point x="238" y="690"/>
      <point x="139" y="595"/>
      <point x="105" y="378" type="curve" smooth="yes"/>
      <point x="95" y="315" type="line" smooth="yes"/>
      <point x="64" y="122"/>
      <point x="116" y="-10"/>
      <point x="269" y="-10" type="curve" smooth="yes"/>
      <point x="385" y="-10"/>
      <point x="479" y="66"/>
    </contour>
    <contour>
      <point x="157" y="256" type="curve" smooth="yes"/>
      <point x="161" y="278" type="line"/>
      <point x="209" y="338"/>
      <point x="271" y="367"/>
      <point x="326" y="367" type="curve" smooth="yes"/>
      <point x="412" y="367"/>
      <point x="446" y="296"/>
      <point x="428" y="188" type="curve" smooth="yes"/>
      <point x="426" y="176" type="line" smooth="yes"/>
      <point x="407" y="64"/>
      <point x="345" y="20"/>
      <point x="270" y="20" type="curve" smooth="yes"/>
      <point x="167" y="20"/>
      <point x="130" y="100"/>
    </contour>
  </outline>
</glyph>
<glyph name="seven" format="1">
  <advance width="452"/>
  <unicode hex="0037"/>
  <outline>
    <contour>
      <point x="504" y="629" type="curve"/>
      <point x="513" y="680" type="line"/>
      <point x="101" y="680" type="line"/>
      <point x="68" y="494" type="line"/>
      <point x="93" y="494" type="line"/>
      <point x="138" y="595" type="line" smooth="yes"/>
      <point x="148" y="618"/>
      <point x="149" y="621"/>
      <point x="196" y="621" type="curve" smooth="yes"/>
      <point x="461" y="621" type="line"/>
      <point x="291" y="449"/>
      <point x="201" y="290"/>
      <point x="120" y="0" type="curve"/>
      <point x="200" y="0" type="line"/>
      <point x="272" y="339"/>
      <point x="352" y="469"/>
    </contour>
  </outline>
</glyph>
<glyph name="eight" format="1">
  <advance width="538"/>
  <unicode hex="0038"/>
  <outline>
    <contour>
      <point x="466" y="183" type="curve" smooth="yes"/>
      <point x="466" y="251"/>
      <point x="434" y="315"/>
      <point x="352" y="357" type="curve"/>
      <point x="469" y="392"/>
      <point x="513" y="469"/>
      <point x="513" y="534" type="curve" smooth="yes"/>
      <point x="513" y="627"/>
      <point x="438" y="690"/>
      <point x="324" y="690" type="curve" smooth="yes"/>
      <point x="194" y="690"/>
      <point x="118" y="607"/>
      <point x="118" y="501" type="curve" smooth="yes"/>
      <point x="118" y="427"/>
      <point x="157" y="377"/>
      <point x="221" y="341" type="curve"/>
      <point x="101" y="301"/>
      <point x="42" y="224"/>
      <point x="42" y="148" type="curve" smooth="yes"/>
      <point x="42" y="65"/>
      <point x="114" y="-10"/>
      <point x="247" y="-10" type="curve" smooth="yes"/>
      <point x="395" y="-10"/>
      <point x="466" y="86"/>
    </contour>
    <contour>
      <point x="285" y="392" type="line" smooth="yes"/>
      <point x="217" y="427"/>
      <point x="178" y="463"/>
      <point x="178" y="530" type="curve" smooth="yes"/>
      <point x="178" y="621"/>
      <point x="250" y="660"/>
      <point x="322" y="660" type="curve" smooth="yes"/>
      <point x="394" y="660"/>
      <point x="449" y="621"/>
      <point x="449" y="537" type="curve" smooth="yes"/>
      <point x="449" y="476"/>
      <point x="420" y="402"/>
      <point x="321" y="374" type="curve"/>
    </contour>
    <contour>
      <point x="107" y="149" type="curve" smooth="yes"/>
      <point x="107" y="229"/>
      <point x="159" y="298"/>
      <point x="252" y="325" type="curve"/>
      <point x="299" y="301" type="line" smooth="yes"/>
      <point x="383" y="257"/>
      <point x="407" y="209"/>
      <point x="407" y="157" type="curve" smooth="yes"/>
      <point x="407" y="76"/>
      <point x="347" y="20"/>
      <point x="250" y="20" type="curve" smooth="yes"/>
      <point x="159" y="20"/>
      <point x="107" y="69"/>
    </contour>
  </outline>
</glyph>
<glyph name="nine" format="1">
  <advance width="572"/>
  <unicode hex="0039"/>
  <outline>
    <contour>
      <point x="501" y="302" type="curve" smooth="yes"/>
      <point x="511" y="365" type="line" smooth="yes"/>
      <point x="542" y="558"/>
      <point x="490" y="690"/>
      <point x="337" y="690" type="curve" smooth="yes"/>
      <point x="221" y="690"/>
      <point x="128" y="611"/>
      <point x="109" y="497" type="curve" smooth="yes"/>
      <point x="107" y="485" type="line" smooth="yes"/>
      <point x="85" y="355"/>
      <point x="153" y="266"/>
      <point x="266" y="266" type="curve" smooth="yes"/>
      <point x="329" y="266"/>
      <point x="388" y="293"/>
      <point x="434" y="337" type="curve"/>
      <point x="418" y="243" type="line" smooth="yes"/>
      <point x="388" y="68"/>
      <point x="301" y="20"/>
      <point x="224" y="20" type="curve" smooth="yes"/>
      <point x="164" y="20"/>
      <point x="104" y="48"/>
      <point x="107" y="163" type="curve"/>
      <point x="53" y="146" type="line"/>
      <point x="70" y="31"/>
      <point x="136" y="-10"/>
      <point x="226" y="-10" type="curve" smooth="yes"/>
      <point x="359" y="-10"/>
      <point x="467" y="85"/>
    </contour>
    <contour>
      <point x="178" y="485" type="curve" smooth="yes"/>
      <point x="180" y="497" type="line" smooth="yes"/>
      <point x="199" y="614"/>
      <point x="261" y="660"/>
      <point x="336" y="660" type="curve" smooth="yes"/>
      <point x="439" y="660"/>
      <point x="476" y="580"/>
      <point x="449" y="424" type="curve" smooth="yes"/>
      <point x="442" y="383" type="line"/>
      <point x="394" y="326"/>
      <point x="334" y="298"/>
      <point x="280" y="298" type="curve" smooth="yes"/>
      <point x="194" y="298"/>
      <point x="159" y="372"/>
    </contour>
  </outline>
</glyph>
<glyph name="colon" format="1">
  <advance width="261"/>
  <unicode hex="003A"/>
  <outline>
    <contour>
      <point x="163" y="403" type="curve" smooth="yes"/>
      <point x="194" y="403"/>
      <point x="215" y="426"/>
      <point x="215" y="455" type="curve" smooth="yes"/>
      <point x="215" y="482"/>
      <point x="197" y="497"/>
      <point x="170" y="497" type="curve" smooth="yes"/>
      <point x="139" y="497"/>
      <point x="118" y="474"/>
      <point x="118" y="445" type="curve" smooth="yes"/>
      <point x="118" y="418"/>
      <point x="136" y="403"/>
    </contour>
    <contour>
      <point x="91" y="-10" type="curve" smooth="yes"/>
      <point x="122" y="-10"/>
      <point x="143" y="13"/>
      <point x="143" y="42" type="curve" smooth="yes"/>
      <point x="143" y="69"/>
      <point x="125" y="84"/>
      <point x="98" y="84" type="curve" smooth="yes"/>
      <point x="67" y="84"/>
      <point x="46" y="61"/>
      <point x="46" y="32" type="curve" smooth="yes"/>
      <point x="46" y="5"/>
      <point x="64" y="-10"/>
    </contour>
  </outline>
</glyph>
<glyph name="semicolon" format="1">
  <advance width="261"/>
  <unicode hex="003B"/>
  <outline>
    <contour>
      <point x="163" y="403" type="curve" smooth="yes"/>
      <point x="194" y="403"/>
      <point x="215" y="426"/>
      <point x="215" y="455" type="curve" smooth="yes"/>
      <point x="215" y="482"/>
      <point x="197" y="497"/>
      <point x="170" y="497" type="curve" smooth="yes"/>
      <point x="139" y="497"/>
      <point x="118" y="474"/>
      <point x="118" y="445" type="curve" smooth="yes"/>
      <point x="118" y="418"/>
      <point x="136" y="403"/>
    </contour>
    <contour>
      <point x="140" y="32" type="curve" smooth="yes"/>
      <point x="140" y="63"/>
      <point x="122" y="81"/>
      <point x="96" y="81" type="curve" smooth="yes"/>
      <point x="68" y="81"/>
      <point x="48" y="60"/>
      <point x="48" y="31" type="curve" smooth="yes"/>
      <point x="48" y="7"/>
      <point x="64" y="-9"/>
      <point x="87" y="-10" type="curve"/>
      <point x="77" y="-53"/>
      <point x="41" y="-113"/>
      <point x="-26" y="-181" type="curve"/>
      <point x="-8" y="-199" type="line"/>
      <point x="78" y="-120"/>
      <point x="140" y="-30"/>
    </contour>
  </outline>
</glyph>
<glyph name="less" format="1">
  <advance width="588"/>
  <unicode hex="003C"/>
  <outline>
    <contour>
      <point x="489" y="187" type="line"/>
      <point x="150" y="332" type="line"/>
      <point x="544" y="478" type="line"/>
      <point x="536" y="508" type="line"/>
      <point x="105" y="347" type="line"/>
      <point x="100" y="319" type="line"/>
      <point x="474" y="158" type="line"/>
    </contour>
  </outline>
</glyph>
<glyph name="equal" format="1">
  <advance width="588"/>
  <unicode hex="003D"/>
  <outline>
    <contour>
      <point x="118" y="418" type="line"/>
      <point x="532" y="418" type="line"/>
      <point x="537" y="450" type="line"/>
      <point x="123" y="450" type="line"/>
    </contour>
    <contour>
      <point x="82" y="218" type="line"/>
      <point x="496" y="218" type="line"/>
      <point x="502" y="250" type="line"/>
      <point x="88" y="250" type="line"/>
    </contour>
  </outline>
</glyph>
<glyph name="greater" format="1">
  <advance width="588"/>
  <unicode hex="003E"/>
  <outline>
    <contour>
      <point x="514" y="319" type="line"/>
      <point x="519" y="347" type="line"/>
      <point x="145" y="508" type="line"/>
      <point x="130" y="479" type="line"/>
      <point x="469" y="334" type="line"/>
      <point x="75" y="188" type="line"/>
      <point x="83" y="158" type="line"/>
    </contour>
  </outline>
</glyph>
<glyph name="question" format="1">
  <advance width="471"/>
  <unicode hex="003F"/>
  <outline>
    <contour>
      <point x="236" y="172" type="line"/>
      <point x="238" y="199" type="line" smooth="yes"/>
      <point x="250" y="361"/>
      <point x="471" y="354"/>
      <point x="471" y="536" type="curve" smooth="yes"/>
      <point x="471" y="626"/>
      <point x="415" y="690"/>
      <point x="297" y="690" type="curve" smooth="yes"/>
      <point x="149" y="690"/>
      <point x="88" y="590"/>
      <point x="88" y="483" type="curve"/>
      <point x="145" y="467" type="line"/>
      <point x="154" y="595"/>
      <point x="203" y="660"/>
      <point x="296" y="660" type="curve" smooth="yes"/>
      <point x="355" y="660"/>
      <point x="401" y="626"/>
      <point x="401" y="535" type="curve" smooth="yes"/>
      <point x="401" y="346"/>
      <point x="233" y="380"/>
      <point x="198" y="198" type="curve" smooth="yes"/>
      <point x="193" y="172" type="line"/>
    </contour>
    <contour>
      <point x="190" y="-10" type="curve" smooth="yes"/>
      <point x="221" y="-10"/>
      <point x="242" y="13"/>
      <point x="242" y="42" type="curve" smooth="yes"/>
      <point x="242" y="69"/>
      <point x="224" y="84"/>
      <point x="197" y="84" type="curve" smooth="yes"/>
      <point x="166" y="84"/>
      <point x="145" y="61"/>
      <point x="145" y="32" type="curve" smooth="yes"/>
      <point x="145" y="5"/>
      <point x="163" y="-10"/>
    </contour>
  </outline>
</glyph>
<glyph name="at" format="1">
  <advance width="976"/>
  <unicode hex="0040"/>
  <outline>
    <contour>
      <point x="747" y="-167" type="curve"/>
      <point x="727" y="-121" type="line"/>
      <point x="654" y="-177"/>
      <point x="567" y="-193"/>
      <point x="493" y="-193" type="curve" smooth="yes"/>
      <point x="253" y="-193"/>
      <point x="100" y="-25"/>
      <point x="100" y="214" type="curve" smooth="yes"/>
      <point x="100" y="465"/>
      <point x="267" y="660"/>
      <point x="502" y="660" type="curve" smooth="yes"/>
      <point x="719" y="660"/>
      <point x="880" y="493"/>
      <point x="880" y="278" type="curve" smooth="yes"/>
      <point x="880" y="133"/>
      <point x="799" y="29"/>
      <point x="706" y="29" type="curve" smooth="yes"/>
      <point x="665" y="29"/>
      <point x="628" y="51"/>
      <point x="647" y="155" type="curve" smooth="yes"/>
      <point x="702" y="462" type="line"/>
      <point x="662" y="462" type="line"/>
      <point x="653" y="443"/>
      <point x="642" y="422"/>
      <point x="632" y="402" type="curve"/>
      <point x="602" y="447"/>
      <point x="563" y="472"/>
      <point x="507" y="472" type="curve" smooth="yes"/>
      <point x="410" y="472"/>
      <point x="324" y="393"/>
      <point x="301" y="268" type="curve" smooth="yes"/>
      <point x="297" y="246" type="line" smooth="yes"/>
      <point x="272" y="107"/>
      <point x="324" y="-5"/>
      <point x="431" y="-5" type="curve" smooth="yes"/>
      <point x="486" y="-5"/>
      <point x="537" y="24"/>
      <point x="584" y="98" type="curve"/>
      <point x="591" y="34"/>
      <point x="639" y="0"/>
      <point x="702" y="0" type="curve" smooth="yes"/>
      <point x="822" y="0"/>
      <point x="912" y="122"/>
      <point x="912" y="278" type="curve" smooth="yes"/>
      <point x="912" y="510"/>
      <point x="737" y="690"/>
      <point x="502" y="690" type="curve" smooth="yes"/>
      <point x="249" y="690"/>
      <point x="68" y="482"/>
      <point x="68" y="214" type="curve" smooth="yes"/>
      <point x="68" y="-40"/>
      <point x="235" y="-223"/>
      <point x="493" y="-223" type="curve" smooth="yes"/>
      <point x="575" y="-223"/>
      <point x="674" y="-204"/>
    </contour>
    <contour>
      <point x="359" y="216" type="curve" smooth="yes"/>
      <point x="369" y="276" type="line" smooth="yes"/>
      <point x="386" y="380"/>
      <point x="433" y="442"/>
      <point x="509" y="442" type="curve" smooth="yes"/>
      <point x="560" y="442"/>
      <point x="593" y="415"/>
      <point x="623" y="359" type="curve"/>
      <point x="588" y="160" type="line"/>
      <point x="531" y="52"/>
      <point x="483" y="25"/>
      <point x="436" y="25" type="curve" smooth="yes"/>
      <point x="374" y="25"/>
      <point x="340" y="99"/>
    </contour>
  </outline>
</glyph>
<glyph name="A" format="1">
  <advance width="622"/>
  <unicode hex="0041"/>
  <outline>
    <contour>
      <point x="153" y="25" type="line"/>
      <point x="99" y="30" type="line" smooth="yes"/>
      <point x="78" y="32"/>
      <point x="77" y="33"/>
      <point x="100" y="79" type="curve" smooth="yes"/>
      <point x="165" y="210" type="line"/>
      <point x="418" y="210" type="line"/>
      <point x="438" y="79" type="line" smooth="yes"/>
      <point x="445" y="34"/>
      <point x="444" y="32"/>
      <point x="421" y="30" type="curve" smooth="yes"/>
      <point x="365" y="25" type="line"/>
      <point x="361" y="0" type="line"/>
      <point x="579" y="0" type="line"/>
      <point x="583" y="25" type="line"/>
      <point x="529" y="30" type="line" smooth="yes"/>
      <point x="510" y="32"/>
      <point x="509" y="33"/>
      <point x="502" y="79" type="curve" smooth="yes"/>
      <point x="411" y="680" type="line"/>
      <point x="364" y="680" type="line"/>
      <point x="63" y="79" type="line" smooth="yes"/>
      <point x="40" y="33"/>
      <point x="39" y="32"/>
      <point x="17" y="30" type="curve" smooth="yes"/>
      <point x="-39" y="25" type="line"/>
      <point x="-43" y="0" type="line"/>
      <point x="149" y="0" type="line"/>
    </contour>
    <contour>
      <point x="180" y="240" type="line"/>
      <point x="360" y="600" type="line"/>
      <point x="414" y="240" type="line"/>
    </contour>
  </outline>
</glyph>
<glyph name="B" format="1">
  <advance width="598"/>
  <unicode hex="0042"/>
  <outline>
    <contour>
      <point x="124" y="655" type="line"/>
      <point x="179" y="650" type="line" smooth="yes"/>
      <point x="199" y="648"/>
      <point x="200" y="648"/>
      <point x="192" y="601" type="curve" smooth="yes"/>
      <point x="100" y="79" type="line" smooth="yes"/>
      <point x="92" y="33"/>
      <point x="91" y="32"/>
      <point x="69" y="30" type="curve" smooth="yes"/>
      <point x="13" y="25" type="line"/>
      <point x="9" y="0" type="line"/>
      <point x="309" y="0" type="line" smooth="yes"/>
      <point x="419" y="0"/>
      <point x="505" y="59"/>
      <point x="521" y="164" type="curve" smooth="yes"/>
      <point x="525" y="190" type="line" smooth="yes"/>
      <point x="537" y="270"/>
      <point x="498" y="330"/>
      <point x="417" y="349" type="curve"/>
      <point x="490" y="367"/>
      <point x="537" y="416"/>
      <point x="548" y="486" type="curve" smooth="yes"/>
      <point x="552" y="512" type="line" smooth="yes"/>
      <point x="567" y="608"/>
      <point x="507" y="680"/>
      <point x="394" y="680" type="curve" smooth="yes"/>
      <point x="129" y="680" type="line"/>
    </contour>
    <contour>
      <point x="394" y="650" type="line" smooth="yes"/>
      <point x="469" y="650"/>
      <point x="500" y="602"/>
      <point x="486" y="522" type="curve" smooth="yes"/>
      <point x="478" y="476" type="line" smooth="yes"/>
      <point x="465" y="402"/>
      <point x="418" y="360"/>
      <point x="342" y="360" type="curve" smooth="yes"/>
      <point x="215" y="360" type="line"/>
      <point x="266" y="650" type="line"/>
    </contour>
    <contour>
      <point x="362" y="330" type="line" smooth="yes"/>
      <point x="440" y="330"/>
      <point x="473" y="280"/>
      <point x="459" y="200" type="curve" smooth="yes"/>
      <point x="451" y="154" type="line" smooth="yes"/>
      <point x="437" y="76"/>
      <point x="388" y="30"/>
      <point x="309" y="30" type="curve" smooth="yes"/>
      <point x="156" y="30" type="line"/>
      <point x="209" y="330" type="line"/>
    </contour>
  </outline>
</glyph>
<glyph name="C" format="1">
  <advance width="579"/>
  <unicode hex="0043"/>
  <outline>
    <contour>
      <point x="284" y="-10" type="curve" smooth="yes"/>
      <point x="375" y="-10"/>
      <point x="458" y="28"/>
      <point x="506" y="131" type="curve"/>
      <point x="450" y="150" type="line"/>
      <point x="422" y="54"/>
      <point x="354" y="20"/>
      <point x="287" y="20" type="curve" smooth="yes"/>
      <point x="174" y="20"/>
      <point x="127" y="90"/>
      <point x="156" y="259" type="curve" smooth="yes"/>
      <point x="186" y="432" type="line" smooth="yes"/>
      <point x="214" y="594"/>
      <point x="287" y="660"/>
      <point x="393" y="660" type="curve" smooth="yes"/>
      <point x="493" y="660"/>
      <point x="529" y="591"/>
      <point x="493" y="467" type="curve"/>
      <point x="561" y="483" type="line"/>
      <point x="597" y="587"/>
      <point x="538" y="690"/>
      <point x="394" y="690" type="curve" smooth="yes"/>
      <point x="237" y="690"/>
      <point x="135" y="573"/>
      <point x="104" y="382" type="curve" smooth="yes"/>
      <point x="92" y="309" type="line" smooth="yes"/>
      <point x="59" y="115"/>
      <point x="125" y="-10"/>
    </contour>
  </outline>
</glyph>
<glyph name="D" format="1">
  <advance width="653.4081809428899"/>
  <unicode hex="0044"/>
  <outline>
    <contour>
      <point x="124" y="655" type="line"/>
      <point x="179" y="650" type="line" smooth="yes"/>
      <point x="199" y="648"/>
      <point x="200" y="648"/>
      <point x="192" y="601" type="curve" smooth="yes"/>
      <point x="100" y="79" type="line" smooth="yes"/>
      <point x="92" y="33"/>
      <point x="91" y="32"/>
      <point x="69" y="30" type="curve" smooth="yes"/>
      <point x="13" y="25" type="line"/>
      <point x="9" y="0" type="line"/>
      <point x="291" y="0" type="line" smooth="yes"/>
      <point x="448" y="0"/>
      <point x="551" y="122"/>
      <point x="583" y="299" type="curve" smooth="yes"/>
      <point x="596" y="372" type="line" smooth="yes"/>
      <point x="627" y="545"/>
      <point x="550" y="680"/>
      <point x="381" y="680" type="curve" smooth="yes"/>
      <point x="129" y="680" type="line"/>
    </contour>
    <contour>
      <point x="381" y="650" type="line" smooth="yes"/>
      <point x="506" y="650"/>
      <point x="557" y="564"/>
      <point x="532" y="422" type="curve" smooth="yes"/>
      <point x="501" y="249" type="line" smooth="yes"/>
      <point x="475" y="105"/>
      <point x="401" y="30"/>
      <point x="290" y="30" type="curve" smooth="yes"/>
      <point x="156" y="30" type="line"/>
      <point x="266" y="650" type="line"/>
    </contour>
  </outline>
</glyph>
<glyph name="F" format="1">
  <advance width="537"/>
  <unicode hex="0046"/>
  <outline>
    <contour>
      <point x="252" y="25" type="line"/>
      <point x="178" y="30" type="line" smooth="yes"/>
      <point x="157" y="31"/>
      <point x="157" y="32"/>
      <point x="165" y="79" type="curve" smooth="yes"/>
      <point x="207" y="318" type="line"/>
      <point x="345" y="318" type="line" smooth="yes"/>
      <point x="392" y="318"/>
      <point x="393" y="316"/>
      <point x="394" y="292" type="curve" smooth="yes"/>
      <point x="399" y="221" type="line"/>
      <point x="424" y="221" type="line"/>
      <point x="463" y="445" type="line"/>
      <point x="438" y="445" type="line"/>
      <point x="409" y="374" type="line" smooth="yes"/>
      <point x="399" y="350"/>
      <point x="397" y="348"/>
      <point x="350" y="348" type="curve" smooth="yes"/>
      <point x="212" y="348" type="line"/>
      <point x="266" y="650" type="line"/>
      <point x="464" y="650" type="line" smooth="yes"/>
      <point x="511" y="650"/>
      <point x="511" y="647"/>
      <point x="513" y="624" type="curve" smooth="yes"/>
      <point x="522" y="523" type="line"/>
      <point x="547" y="523" type="line"/>
      <point x="575" y="680" type="line"/>
      <point x="129" y="680" type="line"/>
      <point x="124" y="655" type="line"/>
      <point x="179" y="650" type="line" smooth="yes"/>
      <point x="199" y="648"/>
      <point x="200" y="648"/>
      <point x="192" y="601" type="curve" smooth="yes"/>
      <point x="100" y="79" type="line" smooth="yes"/>
      <point x="92" y="32"/>
      <point x="91" y="32"/>
      <point x="69" y="30" type="curve" smooth="yes"/>
      <point x="13" y="25" type="line"/>
      <point x="9" y="0" type="line"/>
      <point x="248" y="0" type="line"/>
    </contour>
  </outline>
</glyph>
<glyph name="G" format="1">
  <advance width="640.0994644595044"/>
  <unicode hex="0047"/>
  <outline>
    <contour>
      <point x="475" y="12" type="curve"/>
      <point x="497" y="12" type="line"/>
      <point x="536" y="229" type="line" smooth="yes"/>
      <point x="544" y="275"/>
      <point x="546" y="276"/>
      <point x="566" y="278" type="curve" smooth="yes"/>
      <point x="622" y="283" type="line"/>
      <point x="626" y="308" type="line"/>
      <point x="390" y="308" type="line"/>
      <point x="386" y="283" type="line"/>
      <point x="460" y="278" type="line" smooth="yes"/>
      <point x="482" y="277"/>
      <point x="483" y="276"/>
      <point x="474" y="229" type="curve" smooth="yes"/>
      <point x="452" y="107" type="line"/>
      <point x="417" y="43"/>
      <point x="350" y="20"/>
      <point x="286" y="20" type="curve" smooth="yes"/>
      <point x="174" y="20"/>
      <point x="127" y="90"/>
      <point x="156" y="259" type="curve" smooth="yes"/>
      <point x="186" y="432" type="line" smooth="yes"/>
      <point x="214" y="594"/>
      <point x="291" y="660"/>
      <point x="401" y="660" type="curve" smooth="yes"/>
      <point x="510" y="660"/>
      <point x="546" y="592"/>
      <point x="510" y="467" type="curve"/>
      <point x="578" y="483" type="line"/>
      <point x="614" y="588"/>
      <point x="554" y="690"/>
      <point x="402" y="690" type="curve" smooth="yes"/>
      <point x="241" y="690"/>
      <point x="135" y="573"/>
      <point x="104" y="382" type="curve" smooth="yes"/>
      <point x="92" y="309" type="line" smooth="yes"/>
      <point x="59" y="115"/>
      <point x="125" y="-10"/>
      <point x="283" y="-10" type="curve" smooth="yes"/>
      <point x="347" y="-10"/>
      <point x="405" y="9"/>
      <point x="451" y="57" type="curve"/>
      <point x="462" y="45"/>
      <point x="471" y="30"/>
    </contour>
  </outline>
</glyph>
<glyph name="H" format="1">
  <advance width="716"/>
  <unicode hex="0048"/>
  <outline>
    <contour>
      <point x="232" y="25" type="line"/>
      <point x="178" y="30" type="line" smooth="yes"/>
      <point x="158" y="32"/>
      <point x="157" y="32"/>
      <point x="165" y="79" type="curve" smooth="yes"/>
      <point x="209" y="329" type="line"/>
      <point x="537" y="329" type="line"/>
      <point x="493" y="79" type="line" smooth="yes"/>
      <point x="485" y="32"/>
      <point x="484" y="32"/>
      <point x="462" y="30" type="curve" smooth="yes"/>
      <point x="406" y="25" type="line"/>
      <point x="402" y="0" type="line"/>
      <point x="621" y="0" type="line"/>
      <point x="625" y="25" type="line"/>
      <point x="571" y="30" type="line" smooth="yes"/>
      <point x="551" y="32"/>
      <point x="550" y="32"/>
      <point x="558" y="79" type="curve" smooth="yes"/>
      <point x="650" y="601" type="line" smooth="yes"/>
      <point x="658" y="648"/>
      <point x="659" y="648"/>
      <point x="681" y="650" type="curve" smooth="yes"/>
      <point x="736" y="655" type="line"/>
      <point x="741" y="680" type="line"/>
      <point x="522" y="680" type="line"/>
      <point x="517" y="655" type="line"/>
      <point x="572" y="650" type="line" smooth="yes"/>
      <point x="592" y="648"/>
      <point x="593" y="648"/>
      <point x="585" y="601" type="curve" smooth="yes"/>
      <point x="542" y="359" type="line"/>
      <point x="214" y="359" type="line"/>
      <point x="257" y="601" type="line" smooth="yes"/>
      <point x="265" y="648"/>
      <point x="266" y="648"/>
      <point x="288" y="650" type="curve" smooth="yes"/>
      <point x="343" y="655" type="line"/>
      <point x="348" y="680" type="line"/>
      <point x="129" y="680" type="line"/>
      <point x="124" y="655" type="line"/>
      <point x="179" y="650" type="line" smooth="yes"/>
      <point x="199" y="648"/>
      <point x="200" y="648"/>
      <point x="192" y="601" type="curve" smooth="yes"/>
      <point x="100" y="79" type="line" smooth="yes"/>
      <point x="92" y="32"/>
      <point x="91" y="32"/>
      <point x="69" y="30" type="curve" smooth="yes"/>
      <point x="13" y="25" type="line"/>
      <point x="9" y="0" type="line"/>
      <point x="228" y="0" type="line"/>
    </contour>
  </outline>
</glyph>
<glyph name="I" format="1">
  <advance width="323"/>
  <unicode hex="0049"/>
  <outline>
    <contour>
      <point x="124" y="655" type="line"/>
      <point x="179" y="650" type="line" smooth="yes"/>
      <point x="199" y="648"/>
      <point x="200" y="648"/>
      <point x="192" y="601" type="curve" smooth="yes"/>
      <point x="100" y="79" type="line" smooth="yes"/>
      <point x="92" y="32"/>
      <point x="91" y="32"/>
      <point x="69" y="30" type="curve" smooth="yes"/>
      <point x="13" y="25" type="line"/>
      <point x="9" y="0" type="line"/>
      <point x="228" y="0" type="line"/>
      <point x="232" y="25" type="line"/>
      <point x="178" y="30" type="line" smooth="yes"/>
      <point x="158" y="32"/>
      <point x="157" y="32"/>
      <point x="165" y="79" type="curve" smooth="yes"/>
      <point x="257" y="601" type="line" smooth="yes"/>
      <point x="265" y="648"/>
      <point x="266" y="648"/>
      <point x="288" y="650" type="curve" smooth="yes"/>
      <point x="343" y="655" type="line"/>
      <point x="348" y="680" type="line"/>
      <point x="129" y="680" type="line"/>
    </contour>
  </outline>
</glyph>
<glyph name="J" format="1">
  <advance width="452"/>
  <unicode hex="004A"/>
  <outline>
    <contour>
      <point x="265" y="655" type="line"/>
      <point x="320" y="650" type="line" smooth="yes"/>
      <point x="340" y="648"/>
      <point x="341" y="647"/>
      <point x="333" y="601" type="curve" smooth="yes"/>
      <point x="263" y="202" type="line" smooth="yes"/>
      <point x="238" y="61"/>
      <point x="189" y="20"/>
      <point x="124" y="20" type="curve" smooth="yes"/>
      <point x="86" y="20"/>
      <point x="41" y="41"/>
      <point x="55" y="147" type="curve"/>
      <point x="-3" y="129" type="line"/>
      <point x="-11" y="23"/>
      <point x="55" y="-10"/>
      <point x="124" y="-10" type="curve" smooth="yes"/>
      <point x="252" y="-10"/>
      <point x="309" y="95"/>
      <point x="328" y="202" type="curve" smooth="yes"/>
      <point x="398" y="601" type="line" smooth="yes"/>
      <point x="406" y="647"/>
      <point x="407" y="648"/>
      <point x="429" y="650" type="curve" smooth="yes"/>
      <point x="484" y="655" type="line"/>
      <point x="489" y="680" type="line"/>
      <point x="270" y="680" type="line"/>
    </contour>
  </outline>
</glyph>
<glyph name="L" format="1">
  <advance width="504"/>
  <unicode hex="004C"/>
  <outline>
    <contour>
      <point x="479" y="161" type="line"/>
      <point x="454" y="161" type="line"/>
      <point x="408" y="56" type="line" smooth="yes"/>
      <point x="398" y="33"/>
      <point x="396" y="30"/>
      <point x="349" y="30" type="curve" smooth="yes"/>
      <point x="156" y="30" type="line"/>
      <point x="257" y="601" type="line" smooth="yes"/>
      <point x="265" y="648"/>
      <point x="266" y="648"/>
      <point x="288" y="650" type="curve" smooth="yes"/>
      <point x="343" y="655" type="line"/>
      <point x="348" y="680" type="line"/>
      <point x="129" y="680" type="line"/>
      <point x="124" y="655" type="line"/>
      <point x="179" y="650" type="line" smooth="yes"/>
      <point x="199" y="648"/>
      <point x="200" y="648"/>
      <point x="192" y="601" type="curve" smooth="yes"/>
      <point x="100" y="79" type="line" smooth="yes"/>
      <point x="92" y="32"/>
      <point x="91" y="32"/>
      <point x="69" y="30" type="curve" smooth="yes"/>
      <point x="13" y="25" type="line"/>
      <point x="9" y="0" type="line"/>
      <point x="450" y="0" type="line"/>
    </contour>
  </outline>
</glyph>
<glyph name="M" format="1">
  <advance width="853"/>
  <unicode hex="004D"/>
  <outline>
    <contour>
      <point x="291" y="680" type="line"/>
      <point x="129" y="680" type="line"/>
      <point x="124" y="655" type="line"/>
      <point x="179" y="650" type="line" smooth="yes"/>
      <point x="199" y="648"/>
      <point x="200" y="647"/>
      <point x="192" y="601" type="curve" smooth="yes"/>
      <point x="100" y="79" type="line" smooth="yes"/>
      <point x="92" y="33"/>
      <point x="88" y="32"/>
      <point x="69" y="30" type="curve" smooth="yes"/>
      <point x="13" y="25" type="line"/>
      <point x="9" y="0" type="line"/>
      <point x="198" y="0" type="line"/>
      <point x="202" y="25" type="line"/>
      <point x="148" y="30" type="line" smooth="yes"/>
      <point x="128" y="32"/>
      <point x="127" y="33"/>
      <point x="135" y="79" type="curve" smooth="yes"/>
      <point x="232" y="647" type="line"/>
      <point x="363" y="80" type="line"/>
      <point x="405" y="80" type="line"/>
      <point x="729" y="638" type="line"/>
      <point x="630" y="79" type="line" smooth="yes"/>
      <point x="622" y="33"/>
      <point x="620" y="32"/>
      <point x="599" y="30" type="curve" smooth="yes"/>
      <point x="543" y="25" type="line"/>
      <point x="539" y="0" type="line"/>
      <point x="758" y="0" type="line"/>
      <point x="762" y="25" type="line"/>
      <point x="708" y="30" type="line" smooth="yes"/>
      <point x="688" y="32"/>
      <point x="687" y="33"/>
      <point x="695" y="79" type="curve" smooth="yes"/>
      <point x="787" y="601" type="line" smooth="yes"/>
      <point x="795" y="647"/>
      <point x="797" y="648"/>
      <point x="818" y="650" type="curve" smooth="yes"/>
      <point x="873" y="655" type="line"/>
      <point x="878" y="680" type="line"/>
      <point x="714" y="680" type="line"/>
      <point x="412" y="156" type="line"/>
    </contour>
  </outline>
</glyph>
<glyph name="N" format="1">
  <advance width="695"/>
  <unicode hex="004E"/>
  <outline>
    <contour>
      <point x="124" y="655" type="line"/>
      <point x="179" y="650" type="line" smooth="yes"/>
      <point x="199" y="648"/>
      <point x="200" y="647"/>
      <point x="192" y="601" type="curve" smooth="yes"/>
      <point x="100" y="79" type="line" smooth="yes"/>
      <point x="92" y="33"/>
      <point x="91" y="32"/>
      <point x="69" y="30" type="curve" smooth="yes"/>
      <point x="13" y="25" type="line"/>
      <point x="9" y="0" type="line"/>
      <point x="198" y="0" type="line"/>
      <point x="202" y="25" type="line"/>
      <point x="148" y="30" type="line" smooth="yes"/>
      <point x="128" y="32"/>
      <point x="127" y="33"/>
      <point x="135" y="79" type="curve" smooth="yes"/>
      <point x="232" y="629" type="line"/>
      <point x="489" y="0" type="line"/>
      <point x="528" y="0" type="line"/>
      <point x="634" y="601" type="line" smooth="yes"/>
      <point x="642" y="647"/>
      <point x="643" y="648"/>
      <point x="665" y="650" type="curve" smooth="yes"/>
      <point x="720" y="655" type="line"/>
      <point x="725" y="680" type="line"/>
      <point x="536" y="680" type="line"/>
      <point x="531" y="655" type="line"/>
      <point x="586" y="650" type="line" smooth="yes"/>
      <point x="606" y="648"/>
      <point x="607" y="647"/>
      <point x="599" y="601" type="curve" smooth="yes"/>
      <point x="512" y="109" type="line"/>
      <point x="279" y="680" type="line"/>
      <point x="129" y="680" type="line"/>
    </contour>
  </outline>
</glyph>
<glyph name="O" format="1">
  <advance width="662"/>
  <unicode hex="004F"/>
  <outline>
    <contour>
      <point x="605" y="372" type="line" smooth="yes"/>
      <point x="637" y="550"/>
      <point x="559" y="690"/>
      <point x="393" y="690" type="curve" smooth="yes"/>
      <point x="237" y="690"/>
      <point x="136" y="564"/>
      <point x="104" y="382" type="curve" smooth="yes"/>
      <point x="91" y="309" type="line" smooth="yes"/>
      <point x="59" y="128"/>
      <point x="135" y="-10"/>
      <point x="303" y="-10" type="curve" smooth="yes"/>
      <point x="459" y="-10"/>
      <point x="559" y="116"/>
      <point x="592" y="299" type="curve" smooth="yes"/>
    </contour>
    <contour>
      <point x="541" y="422" type="curve" smooth="yes"/>
      <point x="510" y="249" type="line" smooth="yes"/>
      <point x="483" y="99"/>
      <point x="412" y="20"/>
      <point x="302" y="20" type="curve" smooth="yes"/>
      <point x="180" y="20"/>
      <point x="128" y="110"/>
      <point x="155" y="259" type="curve" smooth="yes"/>
      <point x="186" y="432" type="line" smooth="yes"/>
      <point x="213" y="583"/>
      <point x="285" y="660"/>
      <point x="394" y="660" type="curve" smooth="yes"/>
      <point x="515" y="660"/>
      <point x="568" y="570"/>
    </contour>
  </outline>
</glyph>
<glyph name="P" format="1">
  <advance width="558"/>
  <unicode hex="0050"/>
  <outline>
    <contour>
      <point x="124" y="655" type="line"/>
      <point x="179" y="650" type="line" smooth="yes"/>
      <point x="199" y="648"/>
      <point x="200" y="648"/>
      <point x="192" y="601" type="curve" smooth="yes"/>
      <point x="100" y="79" type="line" smooth="yes"/>
      <point x="92" y="33"/>
      <point x="91" y="32"/>
      <point x="69" y="30" type="curve" smooth="yes"/>
      <point x="13" y="25" type="line"/>
      <point x="9" y="0" type="line"/>
      <point x="248" y="0" type="line"/>
      <point x="252" y="25" type="line"/>
      <point x="178" y="30" type="line" smooth="yes"/>
      <point x="157" y="31"/>
      <point x="157" y="32"/>
      <point x="165" y="79" type="curve" smooth="yes"/>
      <point x="202" y="290" type="line"/>
      <point x="337" y="290" type="line" smooth="yes"/>
      <point x="461" y="290"/>
      <point x="536" y="352"/>
      <point x="556" y="462" type="curve" smooth="yes"/>
      <point x="562" y="495" type="line" smooth="yes"/>
      <point x="581" y="601"/>
      <point x="518" y="680"/>
      <point x="396" y="680" type="curve" smooth="yes"/>
      <point x="129" y="680" type="line"/>
    </contour>
    <contour>
      <point x="396" y="650" type="line" smooth="yes"/>
      <point x="477" y="650"/>
      <point x="512" y="606"/>
      <point x="495" y="505" type="curve" smooth="yes"/>
      <point x="486" y="452" type="line" smooth="yes"/>
      <point x="470" y="360"/>
      <point x="419" y="320"/>
      <point x="337" y="320" type="curve" smooth="yes"/>
      <point x="208" y="320" type="line"/>
      <point x="266" y="650" type="line"/>
    </contour>
  </outline>
</glyph>
<glyph name="Q" format="1">
  <advance width="662.4090995756741"/>
  <unicode hex="0051"/>
  <outline>
    <contour>
      <point x="494" y="-109" type="line"/>
      <point x="398" y="-109"/>
      <point x="345" y="-91"/>
      <point x="325" y="-9" type="curve"/>
      <point x="468" y="2"/>
      <point x="561" y="125"/>
      <point x="592" y="299" type="curve" smooth="yes"/>
      <point x="605" y="372" type="line" smooth="yes"/>
      <point x="637" y="550"/>
      <point x="559" y="690"/>
      <point x="393" y="690" type="curve" smooth="yes"/>
      <point x="237" y="690"/>
      <point x="136" y="564"/>
      <point x="104" y="382" type="curve" smooth="yes"/>
      <point x="91" y="309" type="line" smooth="yes"/>
      <point x="60" y="132"/>
      <point x="132" y="-4"/>
      <point x="292" y="-10" type="curve"/>
      <point x="317" y="-129"/>
      <point x="401" y="-173"/>
      <point x="493" y="-173" type="curve"/>
    </contour>
    <contour>
      <point x="541" y="422" type="curve" smooth="yes"/>
      <point x="510" y="249" type="line" smooth="yes"/>
      <point x="483" y="99"/>
      <point x="412" y="20"/>
      <point x="302" y="20" type="curve" smooth="yes"/>
      <point x="180" y="20"/>
      <point x="128" y="110"/>
      <point x="155" y="259" type="curve" smooth="yes"/>
      <point x="186" y="432" type="line" smooth="yes"/>
      <point x="213" y="583"/>
      <point x="285" y="660"/>
      <point x="394" y="660" type="curve" smooth="yes"/>
      <point x="515" y="660"/>
      <point x="568" y="570"/>
    </contour>
  </outline>
</glyph>
<glyph name="R" format="1">
  <advance width="608"/>
  <unicode hex="0052"/>
  <outline>
    <contour>
      <point x="124" y="655" type="line"/>
      <point x="179" y="650" type="line" smooth="yes"/>
      <point x="199" y="648"/>
      <point x="200" y="647"/>
      <point x="192" y="601" type="curve" smooth="yes"/>
      <point x="100" y="79" type="line" smooth="yes"/>
      <point x="92" y="33"/>
      <point x="91" y="32"/>
      <point x="69" y="30" type="curve" smooth="yes"/>
      <point x="13" y="25" type="line"/>
      <point x="9" y="0" type="line"/>
      <point x="228" y="0" type="line"/>
      <point x="232" y="25" type="line"/>
      <point x="178" y="30" type="line" smooth="yes"/>
      <point x="158" y="32"/>
      <point x="157" y="33"/>
      <point x="165" y="79" type="curve" smooth="yes"/>
      <point x="205" y="308" type="line"/>
      <point x="322" y="308" type="line"/>
      <point x="433" y="0" type="line"/>
      <point x="556" y="0" type="line"/>
      <point x="560" y="25" type="line"/>
      <point x="516" y="30" type="line" smooth="yes"/>
      <point x="496" y="32"/>
      <point x="495" y="32"/>
      <point x="477" y="79" type="curve" smooth="yes"/>
      <point x="388" y="313" type="line"/>
      <point x="475" y="329"/>
      <point x="533" y="385"/>
      <point x="547" y="469" type="curve" smooth="yes"/>
      <point x="553" y="504" type="line" smooth="yes"/>
      <point x="570" y="605"/>
      <point x="511" y="680"/>
      <point x="383" y="680" type="curve" smooth="yes"/>
      <point x="129" y="680" type="line"/>
    </contour>
    <contour>
      <point x="386" y="650" type="line" smooth="yes"/>
      <point x="460" y="650"/>
      <point x="501" y="595"/>
      <point x="485" y="504" type="curve" smooth="yes"/>
      <point x="479" y="469" type="line" smooth="yes"/>
      <point x="465" y="389"/>
      <point x="405" y="338"/>
      <point x="330" y="338" type="curve" smooth="yes"/>
      <point x="211" y="338" type="line"/>
      <point x="266" y="650" type="line"/>
    </contour>
  </outline>
</glyph>
<glyph name="S" format="1">
  <advance width="539.6048379499457"/>
  <unicode hex="0053"/>
  <outline>
    <contour>
      <point x="235" y="-10" type="curve" smooth="yes"/>
      <point x="403" y="-10"/>
      <point x="476" y="96"/>
      <point x="476" y="196" type="curve" smooth="yes"/>
      <point x="476" y="279"/>
      <point x="429" y="328"/>
      <point x="341" y="362" type="curve" smooth="yes"/>
      <point x="278" y="386" type="line" smooth="yes"/>
      <point x="194" y="418"/>
      <point x="166" y="456"/>
      <point x="166" y="517" type="curve" smooth="yes"/>
      <point x="166" y="611"/>
      <point x="228" y="661"/>
      <point x="323" y="661" type="curve" smooth="yes"/>
      <point x="439" y="661"/>
      <point x="477" y="592"/>
      <point x="441" y="467" type="curve"/>
      <point x="507" y="483" type="line"/>
      <point x="544" y="587"/>
      <point x="481" y="690"/>
      <point x="324" y="690" type="curve" smooth="yes"/>
      <point x="173" y="690"/>
      <point x="103" y="598"/>
      <point x="103" y="499" type="curve" smooth="yes"/>
      <point x="103" y="415"/>
      <point x="149" y="361"/>
      <point x="233" y="329" type="curve" smooth="yes"/>
      <point x="296" y="305" type="line" smooth="yes"/>
      <point x="380" y="273"/>
      <point x="413" y="235"/>
      <point x="413" y="168" type="curve" smooth="yes"/>
      <point x="413" y="79"/>
      <point x="352" y="20"/>
      <point x="238" y="20" type="curve" smooth="yes"/>
      <point x="157" y="20"/>
      <point x="89" y="56"/>
      <point x="92" y="191" type="curve"/>
      <point x="34" y="173" type="line"/>
      <point x="42" y="28"/>
      <point x="141" y="-10"/>
    </contour>
  </outline>
</glyph>
<glyph name="T" format="1">
  <advance width="549"/>
  <unicode hex="0054"/>
  <outline>
    <contour>
      <point x="63" y="523" type="line"/>
      <point x="88" y="523" type="line"/>
      <point x="133" y="624" type="line" smooth="yes"/>
      <point x="143" y="647"/>
      <point x="145" y="650"/>
      <point x="192" y="650" type="curve" smooth="yes"/>
      <point x="314" y="650" type="line"/>
      <point x="213" y="79" type="line" smooth="yes"/>
      <point x="205" y="32"/>
      <point x="204" y="32"/>
      <point x="182" y="30" type="curve" smooth="yes"/>
      <point x="126" y="25" type="line"/>
      <point x="122" y="0" type="line"/>
      <point x="341" y="0" type="line"/>
      <point x="345" y="25" type="line"/>
      <point x="291" y="30" type="line" smooth="yes"/>
      <point x="271" y="32"/>
      <point x="270" y="32"/>
      <point x="278" y="79" type="curve" smooth="yes"/>
      <point x="379" y="650" type="line"/>
      <point x="501" y="650" type="line"/>
      <point x="548" y="650"/>
      <point x="548" y="647"/>
      <point x="550" y="624" type="curve" smooth="yes"/>
      <point x="559" y="523" type="line"/>
      <point x="584" y="523" type="line"/>
      <point x="612" y="680" type="line"/>
      <point x="91" y="680" type="line"/>
    </contour>
  </outline>
</glyph>
<glyph name="U" format="1">
  <advance width="673"/>
  <unicode hex="0055"/>
  <outline>
    <contour>
      <point x="518" y="655" type="line"/>
      <point x="573" y="650" type="line" smooth="yes"/>
      <point x="593" y="648"/>
      <point x="594" y="647"/>
      <point x="586" y="601" type="curve" smooth="yes"/>
      <point x="521" y="231" type="line" smooth="yes"/>
      <point x="498" y="102"/>
      <point x="430" y="20"/>
      <point x="308" y="20" type="curve" smooth="yes"/>
      <point x="191" y="20"/>
      <point x="153" y="91"/>
      <point x="178" y="231" type="curve" smooth="yes"/>
      <point x="243" y="601" type="line" smooth="yes"/>
      <point x="251" y="647"/>
      <point x="253" y="648"/>
      <point x="274" y="650" type="curve" smooth="yes"/>
      <point x="329" y="655" type="line"/>
      <point x="334" y="680" type="line"/>
      <point x="115" y="680" type="line"/>
      <point x="110" y="655" type="line"/>
      <point x="165" y="650" type="line" smooth="yes"/>
      <point x="185" y="648"/>
      <point x="186" y="647"/>
      <point x="178" y="601" type="curve" smooth="yes"/>
      <point x="116" y="251" type="line" smooth="yes"/>
      <point x="88" y="93"/>
      <point x="151" y="-10"/>
      <point x="305" y="-10" type="curve" smooth="yes"/>
      <point x="452" y="-10"/>
      <point x="530" y="85"/>
      <point x="556" y="231" type="curve" smooth="yes"/>
      <point x="621" y="601" type="line" smooth="yes"/>
      <point x="629" y="647"/>
      <point x="631" y="648"/>
      <point x="652" y="650" type="curve" smooth="yes"/>
      <point x="707" y="655" type="line"/>
      <point x="712" y="680" type="line"/>
      <point x="523" y="680" type="line"/>
    </contour>
  </outline>
</glyph>
<glyph name="V" format="1">
  <advance width="612"/>
  <unicode hex="0056"/>
  <outline>
    <contour>
      <point x="596" y="611" type="line" smooth="yes"/>
      <point x="614" y="648"/>
      <point x="615" y="648"/>
      <point x="635" y="650" type="curve" smooth="yes"/>
      <point x="684" y="655" type="line"/>
      <point x="689" y="680" type="line"/>
      <point x="511" y="680" type="line"/>
      <point x="506" y="655" type="line"/>
      <point x="555" y="650" type="line" smooth="yes"/>
      <point x="576" y="648"/>
      <point x="577" y="647"/>
      <point x="559" y="611" type="curve" smooth="yes"/>
      <point x="288" y="66" type="line"/>
      <point x="211" y="611" type="line" smooth="yes"/>
      <point x="206" y="647"/>
      <point x="207" y="648"/>
      <point x="229" y="650" type="curve" smooth="yes"/>
      <point x="278" y="655" type="line"/>
      <point x="283" y="680" type="line"/>
      <point x="77" y="680" type="line"/>
      <point x="72" y="655" type="line"/>
      <point x="121" y="650" type="line" smooth="yes"/>
      <point x="141" y="648"/>
      <point x="141" y="648"/>
      <point x="147" y="611" type="curve" smooth="yes"/>
      <point x="236" y="0" type="line"/>
      <point x="291" y="0" type="line"/>
    </contour>
  </outline>
</glyph>
<glyph name="W" format="1">
  <advance width="911.0"/>
  <unicode hex="0057"/>
  <outline>
    <contour>
      <point x="589" y="0" type="line"/>
      <point x="639" y="0" type="line"/>
      <point x="898" y="611" type="line" smooth="yes"/>
      <point x="913" y="648"/>
      <point x="915" y="648"/>
      <point x="934" y="650" type="curve" smooth="yes"/>
      <point x="983" y="655" type="line"/>
      <point x="988" y="680" type="line"/>
      <point x="811" y="680" type="line"/>
      <point x="806" y="655" type="line"/>
      <point x="855" y="650" type="line" smooth="yes"/>
      <point x="875" y="648"/>
      <point x="876" y="647"/>
      <point x="861" y="611" type="curve" smooth="yes"/>
      <point x="641" y="90" type="line"/>
      <point x="571" y="680" type="line"/>
      <point x="523" y="680" type="line"/>
      <point x="242" y="86" type="line"/>
      <point x="205" y="611" type="line" smooth="yes"/>
      <point x="202" y="647"/>
      <point x="203" y="648"/>
      <point x="225" y="650" type="curve" smooth="yes"/>
      <point x="274" y="655" type="line"/>
      <point x="279" y="680" type="line"/>
      <point x="77" y="680" type="line"/>
      <point x="72" y="655" type="line"/>
      <point x="121" y="650" type="line" smooth="yes"/>
      <point x="140" y="648"/>
      <point x="141" y="647"/>
      <point x="144" y="611" type="curve" smooth="yes"/>
      <point x="187" y="0" type="line"/>
      <point x="238" y="0" type="line"/>
      <point x="519" y="590" type="line"/>
    </contour>
  </outline>
</glyph>
<glyph name="X" format="1">
  <advance width="583"/>
  <unicode hex="0058"/>
  <outline>
    <contour>
      <point x="146" y="25" type="line"/>
      <point x="98" y="30" type="line" smooth="yes"/>
      <point x="78" y="32"/>
      <point x="78" y="34"/>
      <point x="105" y="69" type="curve" smooth="yes"/>
      <point x="290" y="306" type="line"/>
      <point x="386" y="69" type="line" smooth="yes"/>
      <point x="400" y="33"/>
      <point x="399" y="32"/>
      <point x="377" y="30" type="curve" smooth="yes"/>
      <point x="327" y="25" type="line"/>
      <point x="323" y="0" type="line"/>
      <point x="533" y="0" type="line"/>
      <point x="537" y="25" type="line"/>
      <point x="489" y="30" type="line" smooth="yes"/>
      <point x="470" y="32"/>
      <point x="468" y="33"/>
      <point x="454" y="69" type="curve" smooth="yes"/>
      <point x="340" y="353" type="line"/>
      <point x="542" y="611" type="line" smooth="yes"/>
      <point x="571" y="648"/>
      <point x="572" y="648"/>
      <point x="592" y="650" type="curve" smooth="yes"/>
      <point x="641" y="655" type="line"/>
      <point x="646" y="680" type="line"/>
      <point x="463" y="680" type="line"/>
      <point x="458" y="655" type="line"/>
      <point x="507" y="650" type="line" smooth="yes"/>
      <point x="527" y="648"/>
      <point x="527" y="646"/>
      <point x="500" y="611" type="curve" smooth="yes"/>
      <point x="326" y="388" type="line"/>
      <point x="236" y="611" type="line" smooth="yes"/>
      <point x="222" y="647"/>
      <point x="223" y="648"/>
      <point x="245" y="650" type="curve" smooth="yes"/>
      <point x="294" y="655" type="line"/>
      <point x="299" y="680" type="line"/>
      <point x="89" y="680" type="line"/>
      <point x="84" y="655" type="line"/>
      <point x="133" y="650" type="line" smooth="yes"/>
      <point x="151" y="648"/>
      <point x="152" y="648"/>
      <point x="167" y="611" type="curve"/>
      <point x="276" y="340" type="line"/>
      <point x="63" y="69" type="line" smooth="yes"/>
      <point x="34" y="32"/>
      <point x="33" y="32"/>
      <point x="13" y="30" type="curve" smooth="yes"/>
      <point x="-37" y="25" type="line"/>
      <point x="-41" y="0" type="line"/>
      <point x="142" y="0" type="line"/>
    </contour>
  </outline>
</glyph>
<glyph name="Y" format="1">
  <advance width="570"/>
  <unicode hex="0059"/>
  <outline>
    <contour>
      <point x="356" y="25" type="line"/>
      <point x="302" y="30" type="line" smooth="yes"/>
      <point x="282" y="32"/>
      <point x="281" y="32"/>
      <point x="289" y="79" type="curve"/>
      <point x="326" y="289" type="line"/>
      <point x="545" y="611" type="line" smooth="yes"/>
      <point x="569" y="647"/>
      <point x="570" y="648"/>
      <point x="593" y="650" type="curve" smooth="yes"/>
      <point x="642" y="655" type="line"/>
      <point x="647" y="680" type="line"/>
      <point x="467" y="680" type="line"/>
      <point x="462" y="655" type="line"/>
      <point x="511" y="650" type="line" smooth="yes"/>
      <point x="530" y="648"/>
      <point x="531" y="647"/>
      <point x="507" y="611" type="curve" smooth="yes"/>
      <point x="315" y="328" type="line"/>
      <point x="224" y="611" type="line" smooth="yes"/>
      <point x="212" y="647"/>
      <point x="213" y="648"/>
      <point x="234" y="650" type="curve" smooth="yes"/>
      <point x="283" y="655" type="line"/>
      <point x="288" y="680" type="line"/>
      <point x="77" y="680" type="line"/>
      <point x="72" y="655" type="line"/>
      <point x="121" y="650" type="line" smooth="yes"/>
      <point x="141" y="648"/>
      <point x="143" y="647"/>
      <point x="155" y="611" type="curve" smooth="yes"/>
      <point x="261" y="290" type="line"/>
      <point x="220" y="59" type="line"/>
      <point x="215" y="32"/>
      <point x="211" y="32"/>
      <point x="193" y="30" type="curve" smooth="yes"/>
      <point x="137" y="25" type="line"/>
      <point x="133" y="0" type="line"/>
      <point x="352" y="0" type="line"/>
    </contour>
  </outline>
</glyph>
<glyph name="Z" format="1">
  <advance width="522"/>
  <unicode hex="005A"/>
  <outline>
    <contour>
      <point x="466" y="157" type="line"/>
      <point x="441" y="157" type="line"/>
      <point x="396" y="56" type="line" smooth="yes"/>
      <point x="386" y="33"/>
      <point x="384" y="30"/>
      <point x="337" y="30" type="curve" smooth="yes"/>
      <point x="83" y="30" type="line"/>
      <point x="544" y="660" type="line"/>
      <point x="548" y="680" type="line"/>
      <point x="128" y="680" type="line"/>
      <point x="100" y="523" type="line"/>
      <point x="125" y="523" type="line"/>
      <point x="170" y="624" type="line" smooth="yes"/>
      <point x="180" y="647"/>
      <point x="182" y="650"/>
      <point x="229" y="650" type="curve" smooth="yes"/>
      <point x="463" y="650" type="line"/>
      <point x="2" y="20" type="line"/>
      <point x="-2" y="0" type="line"/>
      <point x="438" y="0" type="line"/>
    </contour>
  </outline>
</glyph>
<glyph name="bracketleft" format="1">
  <advance width="360"/>
  <unicode hex="005B"/>
  <outline>
    <contour>
      <point x="270" y="-113" type="line"/>
      <point x="105" y="-113" type="line"/>
      <point x="250" y="710" type="line"/>
      <point x="415" y="710" type="line"/>
      <point x="420" y="740" type="line"/>
      <point x="195" y="740" type="line"/>
      <point x="40" y="-143" type="line"/>
      <point x="265" y="-143" type="line"/>
    </contour>
  </outline>
</glyph>
<glyph name="backslash" format="1">
  <advance width="383"/>
  <unicode hex="005C"/>
  <outline>
    <contour>
      <point x="137" y="740" type="line"/>
      <point x="103" y="726" type="line"/>
      <point x="298" y="-143" type="line"/>
      <point x="333" y="-129" type="line"/>
    </contour>
  </outline>
</glyph>
<glyph name="bracketright" format="1">
  <advance width="360"/>
  <unicode hex="005D"/>
  <outline>
    <contour>
      <point x="339" y="740" type="line"/>
      <point x="114" y="740" type="line"/>
      <point x="109" y="710" type="line"/>
      <point x="274" y="710" type="line"/>
      <point x="129" y="-113" type="line"/>
      <point x="-36" y="-113" type="line"/>
      <point x="-41" y="-143" type="line"/>
      <point x="184" y="-143" type="line"/>
    </contour>
  </outline>
</glyph>
<glyph name="asciicircum" format="1">
  <advance width="588"/>
  <unicode hex="005E"/>
  <outline>
    <contour>
      <point x="445" y="267" type="line"/>
      <point x="475" y="278" type="line"/>
      <point x="385" y="680" type="line"/>
      <point x="357" y="680" type="line"/>
      <point x="125" y="278" type="line"/>
      <point x="154" y="266" type="line"/>
      <point x="364" y="633" type="line"/>
    </contour>
  </outline>
</glyph>
<glyph name="underscore" format="1">
  <advance width="404"/>
  <unicode hex="005F"/>
  <outline>
    <contour>
      <point x="-48" y="-143" type="line"/>
      <point x="316" y="-143" type="line"/>
      <point x="322" y="-109" type="line"/>
      <point x="-42" y="-109" type="line"/>
    </contour>
  </outline>
</glyph>
<glyph name="grave" format="1">
  <advance width="500"/>
  <unicode hex="0060"/>
  <outline>
    <contour>
      <point x="310" y="579" type="curve"/>
      <point x="331" y="596" type="line"/>
      <point x="303" y="642"/>
      <point x="289" y="677"/>
      <point x="282" y="740" type="curve"/>
      <point x="210" y="740" type="line"/>
      <point x="236" y="681"/>
      <point x="268" y="629"/>
    </contour>
  </outline>
</glyph>
<glyph name="a" format="1">
  <advance width="578"/>
  <unicode hex="0061"/>
  <outline>
    <contour>
      <point x="443" y="-5" type="curve" smooth="yes"/>
      <point x="482" y="-5"/>
      <point x="520" y="23"/>
      <point x="550" y="83" type="curve"/>
      <point x="517" y="105" type="line"/>
      <point x="498" y="47"/>
      <point x="471" y="24"/>
      <point x="451" y="24" type="curve" smooth="yes"/>
      <point x="429" y="24"/>
      <point x="420" y="48"/>
      <point x="438" y="150" type="curve" smooth="yes"/>
      <point x="498" y="487" type="line"/>
      <point x="458" y="487" type="line"/>
      <point x="449" y="469"/>
      <point x="439" y="449"/>
      <point x="430" y="431" type="curve"/>
      <point x="402" y="472"/>
      <point x="360" y="497"/>
      <point x="301" y="497" type="curve" smooth="yes"/>
      <point x="194" y="497"/>
      <point x="98" y="412"/>
      <point x="74" y="278" type="curve" smooth="yes"/>
      <point x="70" y="256" type="line" smooth="yes"/>
      <point x="43" y="109"/>
      <point x="99" y="-10"/>
      <point x="214" y="-10" type="curve" smooth="yes"/>
      <point x="270" y="-10"/>
      <point x="324" y="18"/>
      <point x="372" y="90" type="curve"/>
      <point x="370" y="24"/>
      <point x="398" y="-5"/>
    </contour>
    <contour>
      <point x="132" y="226" type="curve" smooth="yes"/>
      <point x="142" y="286" type="line" smooth="yes"/>
      <point x="160" y="399"/>
      <point x="215" y="467"/>
      <point x="302" y="467" type="curve" smooth="yes"/>
      <point x="359" y="467"/>
      <point x="394" y="441"/>
      <point x="420" y="385" type="curve"/>
      <point x="379" y="156" type="line"/>
      <point x="320" y="46"/>
      <point x="265" y="20"/>
      <point x="219" y="20" type="curve" smooth="yes"/>
      <point x="149" y="20"/>
      <point x="111" y="100"/>
    </contour>
  </outline>
</glyph>
<glyph name="b" format="1">
  <advance width="560"/>
  <unicode hex="0062"/>
  <outline>
    <contour>
      <point x="486" y="209" type="curve" smooth="yes"/>
      <point x="490" y="231" type="line" smooth="yes"/>
      <point x="517" y="378"/>
      <point x="461" y="497"/>
      <point x="344" y="497" type="curve" smooth="yes"/>
      <point x="289" y="497"/>
      <point x="236" y="471"/>
      <point x="188" y="403" type="curve"/>
      <point x="248" y="740" type="line"/>
      <point x="111" y="740" type="line"/>
      <point x="107" y="715" type="line"/>
      <point x="161" y="710" type="line" smooth="yes"/>
      <point x="181" y="708"/>
      <point x="182" y="707"/>
      <point x="174" y="661" type="curve" smooth="yes"/>
      <point x="57" y="-5" type="line"/>
      <point x="79" y="-5" type="line"/>
      <point x="94" y="20"/>
      <point x="107" y="37"/>
      <point x="127" y="56" type="curve"/>
      <point x="155" y="14"/>
      <point x="198" y="-10"/>
      <point x="257" y="-10" type="curve" smooth="yes"/>
      <point x="365" y="-10"/>
      <point x="462" y="75"/>
    </contour>
    <contour>
      <point x="339" y="467" type="curve" smooth="yes"/>
      <point x="411" y="467"/>
      <point x="449" y="387"/>
      <point x="428" y="261" type="curve" smooth="yes"/>
      <point x="418" y="201" type="line" smooth="yes"/>
      <point x="399" y="88"/>
      <point x="344" y="20"/>
      <point x="256" y="20" type="curve" smooth="yes"/>
      <point x="197" y="20"/>
      <point x="161" y="47"/>
      <point x="136" y="104" type="curve"/>
      <point x="175" y="329" type="line"/>
      <point x="235" y="440"/>
      <point x="292" y="467"/>
    </contour>
  </outline>
</glyph>
<glyph name="c" format="1">
  <advance width="482.7199558905704"/>
  <unicode hex="0063"/>
  <outline>
    <contour>
      <point x="306" y="467" type="curve" smooth="yes"/>
      <point x="390" y="467"/>
      <point x="420" y="410"/>
      <point x="387" y="304" type="curve"/>
      <point x="447" y="320" type="line"/>
      <point x="480" y="421"/>
      <point x="424" y="497"/>
      <point x="308" y="497" type="curve" smooth="yes"/>
      <point x="185" y="497"/>
      <point x="97" y="405"/>
      <point x="73" y="272" type="curve" smooth="yes"/>
      <point x="69" y="250" type="line" smooth="yes"/>
      <point x="40" y="95"/>
      <point x="105" y="-10"/>
      <point x="226" y="-10" type="curve" smooth="yes"/>
      <point x="296" y="-10"/>
      <point x="369" y="17"/>
      <point x="416" y="98" type="curve"/>
      <point x="374" y="121" type="line"/>
      <point x="346" y="42"/>
      <point x="278" y="20"/>
      <point x="230" y="20" type="curve" smooth="yes"/>
      <point x="149" y="20"/>
      <point x="109" y="87"/>
      <point x="132" y="225" type="curve" smooth="yes"/>
      <point x="142" y="285" type="line" smooth="yes"/>
      <point x="163" y="413"/>
      <point x="231" y="467"/>
    </contour>
  </outline>
</glyph>
<glyph name="d" format="1">
  <advance width="582"/>
  <unicode hex="0064"/>
  <outline>
    <contour>
      <point x="448" y="-5" type="curve" smooth="yes"/>
      <point x="487" y="-5"/>
      <point x="525" y="23"/>
      <point x="555" y="83" type="curve"/>
      <point x="522" y="105" type="line"/>
      <point x="503" y="47"/>
      <point x="476" y="24"/>
      <point x="456" y="24" type="curve" smooth="yes"/>
      <point x="434" y="24"/>
      <point x="425" y="48"/>
      <point x="443" y="150" type="curve" smooth="yes"/>
      <point x="547" y="740" type="line"/>
      <point x="410" y="740" type="line"/>
      <point x="406" y="715" type="line"/>
      <point x="460" y="710" type="line" smooth="yes"/>
      <point x="480" y="708"/>
      <point x="481" y="708"/>
      <point x="473" y="661" type="curve" smooth="yes"/>
      <point x="433" y="432" type="line"/>
      <point x="404" y="473"/>
      <point x="362" y="497"/>
      <point x="303" y="497" type="curve" smooth="yes"/>
      <point x="195" y="497"/>
      <point x="98" y="412"/>
      <point x="74" y="278" type="curve" smooth="yes"/>
      <point x="70" y="256" type="line" smooth="yes"/>
      <point x="43" y="109"/>
      <point x="99" y="-10"/>
      <point x="216" y="-10" type="curve" smooth="yes"/>
      <point x="273" y="-10"/>
      <point x="328" y="18"/>
      <point x="377" y="91" type="curve"/>
      <point x="375" y="24"/>
      <point x="403" y="-5"/>
    </contour>
    <contour>
      <point x="132" y="226" type="curve" smooth="yes"/>
      <point x="142" y="286" type="line" smooth="yes"/>
      <point x="161" y="399"/>
      <point x="216" y="467"/>
      <point x="304" y="467" type="curve" smooth="yes"/>
      <point x="363" y="467"/>
      <point x="398" y="440"/>
      <point x="424" y="383" type="curve"/>
      <point x="385" y="158" type="line"/>
      <point x="325" y="47"/>
      <point x="268" y="20"/>
      <point x="221" y="20" type="curve" smooth="yes"/>
      <point x="149" y="20"/>
      <point x="111" y="100"/>
    </contour>
  </outline>
</glyph>
<glyph name="e" format="1">
  <advance width="505.7199558905704"/>
  <unicode hex="0065"/>
  <outline>
    <contour>
      <point x="432" y="98" type="curve"/>
      <point x="389" y="120" type="line"/>
      <point x="362" y="42"/>
      <point x="291" y="20"/>
      <point x="240" y="20" type="curve" smooth="yes"/>
      <point x="155" y="20"/>
      <point x="112" y="81"/>
      <point x="128" y="208" type="curve"/>
      <point x="190" y="212" type="line" smooth="yes"/>
      <point x="354" y="223"/>
      <point x="471" y="279"/>
      <point x="471" y="377" type="curve" smooth="yes"/>
      <point x="471" y="439"/>
      <point x="415" y="497"/>
      <point x="315" y="497" type="curve" smooth="yes"/>
      <point x="187" y="497"/>
      <point x="96" y="405"/>
      <point x="72" y="272" type="curve" smooth="yes"/>
      <point x="68" y="250" type="line" smooth="yes"/>
      <point x="40" y="95"/>
      <point x="107" y="-10"/>
      <point x="241" y="-10" type="curve" smooth="yes"/>
      <point x="308" y="-10"/>
      <point x="385" y="16"/>
    </contour>
    <contour>
      <point x="141" y="285" type="line" smooth="yes"/>
      <point x="162" y="413"/>
      <point x="235" y="467"/>
      <point x="313" y="467" type="curve" smooth="yes"/>
      <point x="373" y="467"/>
      <point x="411" y="435"/>
      <point x="411" y="381" type="curve" smooth="yes"/>
      <point x="411" y="320"/>
      <point x="366" y="252"/>
      <point x="189" y="241" type="curve" smooth="yes"/>
      <point x="133" y="237" type="line"/>
    </contour>
  </outline>
</glyph>
<glyph name="f" format="1">
  <advance width="328"/>
  <unicode hex="0066"/>
  <outline>
    <contour>
      <point x="370" y="457" type="line"/>
      <point x="375" y="487" type="line"/>
      <point x="209" y="487" type="line"/>
      <point x="226" y="581" type="line" smooth="yes"/>
      <point x="246" y="693"/>
      <point x="284" y="720"/>
      <point x="344" y="720" type="curve" smooth="yes"/>
      <point x="415" y="720"/>
      <point x="433" y="670"/>
      <point x="403" y="579" type="curve"/>
      <point x="464" y="595" type="line"/>
      <point x="494" y="684"/>
      <point x="452" y="750"/>
      <point x="343" y="750" type="curve" smooth="yes"/>
      <point x="226" y="750"/>
      <point x="182" y="665"/>
      <point x="165" y="571" type="curve" smooth="yes"/>
      <point x="150" y="487" type="line"/>
      <point x="73" y="487" type="line"/>
      <point x="68" y="462" type="line"/>
      <point x="123" y="457" type="line" smooth="yes"/>
      <point x="143" y="455"/>
      <point x="144" y="454"/>
      <point x="136" y="408" type="curve" smooth="yes"/>
      <point x="26" y="-213" type="line"/>
      <point x="86" y="-213" type="line"/>
      <point x="204" y="457" type="line"/>
    </contour>
  </outline>
</glyph>
<glyph name="g" format="1">
  <advance width="559.1287603949776"/>
  <unicode hex="0067"/>
  <outline>
    <contour>
      <point x="417" y="9" type="curve" smooth="yes"/>
      <point x="502" y="487" type="line"/>
      <point x="462" y="487" type="line"/>
      <point x="453" y="469"/>
      <point x="444" y="448"/>
      <point x="435" y="430" type="curve"/>
      <point x="406" y="472"/>
      <point x="363" y="497"/>
      <point x="303" y="497" type="curve" smooth="yes"/>
      <point x="195" y="497"/>
      <point x="98" y="412"/>
      <point x="74" y="278" type="curve" smooth="yes"/>
      <point x="70" y="256" type="line" smooth="yes"/>
      <point x="43" y="109"/>
      <point x="99" y="-10"/>
      <point x="216" y="-10" type="curve" smooth="yes"/>
      <point x="271" y="-10"/>
      <point x="324" y="16"/>
      <point x="371" y="83" type="curve"/>
      <point x="356" y="-1" type="line" smooth="yes"/>
      <point x="330" y="-146"/>
      <point x="263" y="-195"/>
      <point x="177" y="-195" type="curve" smooth="yes"/>
      <point x="109" y="-195"/>
      <point x="71" y="-157"/>
      <point x="85" y="-58" type="curve"/>
      <point x="28" y="-68" type="line"/>
      <point x="17" y="-161"/>
      <point x="73" y="-223"/>
      <point x="176" y="-223" type="curve" smooth="yes"/>
      <point x="326" y="-223"/>
      <point x="395" y="-113"/>
    </contour>
    <contour>
      <point x="132" y="226" type="curve" smooth="yes"/>
      <point x="142" y="286" type="line" smooth="yes"/>
      <point x="161" y="399"/>
      <point x="216" y="467"/>
      <point x="304" y="467" type="curve" smooth="yes"/>
      <point x="363" y="467"/>
      <point x="398" y="440"/>
      <point x="424" y="383" type="curve"/>
      <point x="384" y="157" type="line"/>
      <point x="324" y="46"/>
      <point x="268" y="20"/>
      <point x="221" y="20" type="curve" smooth="yes"/>
      <point x="149" y="20"/>
      <point x="111" y="100"/>
    </contour>
  </outline>
</glyph>
<glyph name="h" format="1">
  <advance width="607"/>
  <unicode hex="0068"/>
  <outline>
    <contour>
      <point x="579" y="83" type="curve"/>
      <point x="546" y="105" type="line"/>
      <point x="527" y="47"/>
      <point x="500" y="24"/>
      <point x="477" y="24" type="curve" smooth="yes"/>
      <point x="448" y="24"/>
      <point x="450" y="56"/>
      <point x="461" y="107" type="curve" smooth="yes"/>
      <point x="505" y="316" type="line" smooth="yes"/>
      <point x="528" y="424"/>
      <point x="484" y="497"/>
      <point x="385" y="497" type="curve" smooth="yes"/>
      <point x="320" y="497"/>
      <point x="252" y="465"/>
      <point x="189" y="376" type="curve"/>
      <point x="253" y="740" type="line"/>
      <point x="116" y="740" type="line"/>
      <point x="111" y="715" type="line"/>
      <point x="166" y="710" type="line" smooth="yes"/>
      <point x="186" y="708"/>
      <point x="187" y="707"/>
      <point x="179" y="661" type="curve" smooth="yes"/>
      <point x="63" y="0" type="line"/>
      <point x="123" y="0" type="line"/>
      <point x="177" y="309" type="line"/>
      <point x="252" y="432"/>
      <point x="321" y="467"/>
      <point x="377" y="467" type="curve" smooth="yes"/>
      <point x="436" y="467"/>
      <point x="466" y="422"/>
      <point x="444" y="315" type="curve" smooth="yes"/>
      <point x="404" y="117" type="line" smooth="yes"/>
      <point x="386" y="26"/>
      <point x="416" y="-5"/>
      <point x="468" y="-5" type="curve" smooth="yes"/>
      <point x="511" y="-5"/>
      <point x="549" y="23"/>
    </contour>
  </outline>
</glyph>
<glyph name="i" format="1">
  <advance width="295.3648606011974"/>
  <unicode hex="0069"/>
  <outline>
    <contour>
      <point x="210" y="617" type="curve" smooth="yes"/>
      <point x="241" y="617"/>
      <point x="262" y="642"/>
      <point x="262" y="669" type="curve" smooth="yes"/>
      <point x="262" y="693"/>
      <point x="246" y="708"/>
      <point x="220" y="708" type="curve" smooth="yes"/>
      <point x="191" y="708"/>
      <point x="169" y="685"/>
      <point x="169" y="657" type="curve" smooth="yes"/>
      <point x="169" y="632"/>
      <point x="185" y="617"/>
    </contour>
    <contour>
      <point x="74" y="462" type="line"/>
      <point x="128" y="457" type="line" smooth="yes"/>
      <point x="148" y="455"/>
      <point x="149" y="454"/>
      <point x="141" y="408" type="curve" smooth="yes"/>
      <point x="95" y="142" type="line" smooth="yes"/>
      <point x="77" y="38"/>
      <point x="106" y="-5"/>
      <point x="161" y="-5" type="curve" smooth="yes"/>
      <point x="200" y="-5"/>
      <point x="238" y="23"/>
      <point x="268" y="83" type="curve"/>
      <point x="235" y="105" type="line"/>
      <point x="216" y="47"/>
      <point x="189" y="24"/>
      <point x="169" y="24" type="curve" smooth="yes"/>
      <point x="147" y="24"/>
      <point x="138" y="48"/>
      <point x="156" y="150" type="curve" smooth="yes"/>
      <point x="215" y="487" type="line"/>
      <point x="78" y="487" type="line"/>
    </contour>
  </outline>
</glyph>
<glyph name="k" format="1">
  <advance width="509"/>
  <unicode hex="006B"/>
  <outline>
    <contour>
      <point x="367" y="0" type="line"/>
      <point x="485" y="0" type="line"/>
      <point x="489" y="25" type="line"/>
      <point x="441" y="30" type="line" smooth="yes"/>
      <point x="421" y="32"/>
      <point x="420" y="33"/>
      <point x="402" y="69" type="curve" smooth="yes"/>
      <point x="283" y="312" type="line"/>
      <point x="295" y="323" type="line" smooth="yes"/>
      <point x="356" y="379"/>
      <point x="429" y="415"/>
      <point x="511" y="436" type="curve"/>
      <point x="496" y="497" type="line"/>
      <point x="421" y="472"/>
      <point x="369" y="435"/>
      <point x="282" y="353" type="curve" smooth="yes"/>
      <point x="157" y="235" type="line"/>
      <point x="247" y="740" type="line"/>
      <point x="110" y="740" type="line"/>
      <point x="106" y="715" type="line"/>
      <point x="160" y="710" type="line" smooth="yes"/>
      <point x="180" y="708"/>
      <point x="181" y="707"/>
      <point x="173" y="661" type="curve" smooth="yes"/>
      <point x="57" y="0" type="line"/>
      <point x="115" y="0" type="line"/>
      <point x="148" y="187" type="line"/>
      <point x="239" y="271" type="line"/>
    </contour>
  </outline>
</glyph>
<glyph name="l" format="1">
  <advance width="285.3648606011974"/>
  <unicode hex="006C"/>
  <outline>
    <contour>
      <point x="107" y="715" type="line"/>
      <point x="161" y="710" type="line" smooth="yes"/>
      <point x="181" y="708"/>
      <point x="182" y="707"/>
      <point x="174" y="661" type="curve" smooth="yes"/>
      <point x="84" y="142" type="line" smooth="yes"/>
      <point x="66" y="38"/>
      <point x="95" y="-5"/>
      <point x="150" y="-5" type="curve" smooth="yes"/>
      <point x="189" y="-5"/>
      <point x="227" y="23"/>
      <point x="257" y="83" type="curve"/>
      <point x="224" y="105" type="line"/>
      <point x="205" y="47"/>
      <point x="178" y="24"/>
      <point x="158" y="24" type="curve" smooth="yes"/>
      <point x="136" y="24"/>
      <point x="127" y="48"/>
      <point x="145" y="150" type="curve" smooth="yes"/>
      <point x="248" y="740" type="line"/>
      <point x="111" y="740" type="line"/>
    </contour>
  </outline>
</glyph>
<glyph name="m" format="1">
  <advance width="916.3648606011974"/>
  <unicode hex="006D"/>
  <outline>
    <contour>
      <point x="889" y="83" type="curve"/>
      <point x="856" y="105" type="line"/>
      <point x="837" y="47"/>
      <point x="810" y="24"/>
      <point x="787" y="24" type="curve" smooth="yes"/>
      <point x="758" y="24"/>
      <point x="760" y="56"/>
      <point x="771" y="107" type="curve" smooth="yes"/>
      <point x="815" y="316" type="line" smooth="yes"/>
      <point x="838" y="424"/>
      <point x="795" y="497"/>
      <point x="700" y="497" type="curve" smooth="yes"/>
      <point x="636" y="497"/>
      <point x="569" y="463"/>
      <point x="506" y="371" type="curve"/>
      <point x="504" y="448"/>
      <point x="464" y="497"/>
      <point x="386" y="497" type="curve" smooth="yes"/>
      <point x="323" y="497"/>
      <point x="258" y="464"/>
      <point x="196" y="377" type="curve"/>
      <point x="215" y="487" type="line"/>
      <point x="78" y="487" type="line"/>
      <point x="73" y="462" type="line"/>
      <point x="128" y="457" type="line" smooth="yes"/>
      <point x="148" y="455"/>
      <point x="149" y="454"/>
      <point x="141" y="408" type="curve" smooth="yes"/>
      <point x="69" y="0" type="line"/>
      <point x="129" y="0" type="line"/>
      <point x="184" y="310" type="line"/>
      <point x="257" y="431"/>
      <point x="323" y="467"/>
      <point x="378" y="467" type="curve" smooth="yes"/>
      <point x="432" y="467"/>
      <point x="459" y="422"/>
      <point x="440" y="315" type="curve" smooth="yes"/>
      <point x="385" y="0" type="line"/>
      <point x="445" y="0" type="line"/>
      <point x="501" y="314" type="line"/>
      <point x="574" y="433"/>
      <point x="638" y="467"/>
      <point x="692" y="467" type="curve" smooth="yes"/>
      <point x="746" y="467"/>
      <point x="776" y="422"/>
      <point x="754" y="315" type="curve" smooth="yes"/>
      <point x="714" y="117" type="line" smooth="yes"/>
      <point x="696" y="28"/>
      <point x="726" y="-5"/>
      <point x="778" y="-5" type="curve" smooth="yes"/>
      <point x="821" y="-5"/>
      <point x="859" y="23"/>
    </contour>
  </outline>
</glyph>
<glyph name="n" format="1">
  <advance width="612"/>
  <unicode hex="006E"/>
  <outline>
    <contour>
      <point x="585" y="83" type="curve"/>
      <point x="552" y="105" type="line"/>
      <point x="533" y="47"/>
      <point x="506" y="24"/>
      <point x="483" y="24" type="curve" smooth="yes"/>
      <point x="454" y="24"/>
      <point x="456" y="56"/>
      <point x="467" y="107" type="curve" smooth="yes"/>
      <point x="511" y="316" type="line" smooth="yes"/>
      <point x="534" y="424"/>
      <point x="490" y="497"/>
      <point x="391" y="497" type="curve" smooth="yes"/>
      <point x="326" y="497"/>
      <point x="258" y="465"/>
      <point x="195" y="376" type="curve"/>
      <point x="215" y="487" type="line"/>
      <point x="78" y="487" type="line"/>
      <point x="73" y="462" type="line"/>
      <point x="128" y="457" type="line" smooth="yes"/>
      <point x="148" y="455"/>
      <point x="149" y="454"/>
      <point x="141" y="408" type="curve" smooth="yes"/>
      <point x="69" y="0" type="line"/>
      <point x="129" y="0" type="line"/>
      <point x="183" y="309" type="line"/>
      <point x="258" y="432"/>
      <point x="327" y="467"/>
      <point x="383" y="467" type="curve" smooth="yes"/>
      <point x="442" y="467"/>
      <point x="472" y="422"/>
      <point x="450" y="315" type="curve" smooth="yes"/>
      <point x="410" y="117" type="line" smooth="yes"/>
      <point x="392" y="28"/>
      <point x="422" y="-5"/>
      <point x="474" y="-5" type="curve" smooth="yes"/>
      <point x="517" y="-5"/>
      <point x="555" y="23"/>
    </contour>
  </outline>
</glyph>
<glyph name="o" format="1">
  <advance width="552"/>
  <unicode hex="006F"/>
  <outline>
    <contour>
      <point x="484" y="242" type="line" smooth="yes"/>
      <point x="508" y="380"/>
      <point x="446" y="497"/>
      <point x="307" y="497" type="curve" smooth="yes"/>
      <point x="181" y="497"/>
      <point x="97" y="414"/>
      <point x="72" y="269" type="curve" smooth="yes"/>
      <point x="68" y="246" type="line" smooth="yes"/>
      <point x="44" y="106"/>
      <point x="106" y="-10"/>
      <point x="243" y="-10" type="curve" smooth="yes"/>
      <point x="369" y="-10"/>
      <point x="455" y="73"/>
      <point x="480" y="219" type="curve" smooth="yes"/>
    </contour>
    <contour>
      <point x="419" y="264" type="curve" smooth="yes"/>
      <point x="409" y="204" type="line" smooth="yes"/>
      <point x="387" y="71"/>
      <point x="326" y="18"/>
      <point x="249" y="18" type="curve" smooth="yes"/>
      <point x="154" y="18"/>
      <point x="112" y="98"/>
      <point x="133" y="224" type="curve" smooth="yes"/>
      <point x="143" y="284" type="line" smooth="yes"/>
      <point x="165" y="417"/>
      <point x="226" y="469"/>
      <point x="302" y="469" type="curve" smooth="yes"/>
      <point x="398" y="469"/>
      <point x="440" y="390"/>
    </contour>
  </outline>
</glyph>
<glyph name="p" format="1">
  <advance width="571.279685062337"/>
  <unicode hex="0070"/>
  <outline>
    <contour>
      <point x="268" y="-10" type="curve" smooth="yes"/>
      <point x="376" y="-10"/>
      <point x="473" y="75"/>
      <point x="497" y="209" type="curve" smooth="yes"/>
      <point x="501" y="231" type="line" smooth="yes"/>
      <point x="528" y="378"/>
      <point x="472" y="497"/>
      <point x="355" y="497" type="curve" smooth="yes"/>
      <point x="301" y="497"/>
      <point x="247" y="471"/>
      <point x="200" y="405" type="curve"/>
      <point x="215" y="487" type="line"/>
      <point x="78" y="487" type="line"/>
      <point x="74" y="463" type="line"/>
      <point x="128" y="457" type="line" smooth="yes"/>
      <point x="148" y="455"/>
      <point x="149" y="454"/>
      <point x="141" y="408" type="curve" smooth="yes"/>
      <point x="31" y="-213" type="line"/>
      <point x="91" y="-213" type="line"/>
      <point x="138" y="55" type="line"/>
      <point x="167" y="14"/>
      <point x="209" y="-10"/>
    </contour>
    <contour>
      <point x="350" y="467" type="curve" smooth="yes"/>
      <point x="422" y="467"/>
      <point x="460" y="387"/>
      <point x="439" y="261" type="curve" smooth="yes"/>
      <point x="429" y="201" type="line" smooth="yes"/>
      <point x="410" y="88"/>
      <point x="355" y="20"/>
      <point x="267" y="20" type="curve" smooth="yes"/>
      <point x="208" y="20"/>
      <point x="173" y="47"/>
      <point x="147" y="103" type="curve"/>
      <point x="187" y="330" type="line"/>
      <point x="247" y="441"/>
      <point x="303" y="467"/>
    </contour>
  </outline>
</glyph>
<glyph name="q" format="1">
  <advance width="560.2471254914352"/>
  <unicode hex="0071"/>
  <outline>
    <contour>
      <point x="504" y="492" type="line"/>
      <point x="482" y="492" type="line"/>
      <point x="466" y="466"/>
      <point x="453" y="450"/>
      <point x="433" y="431" type="curve"/>
      <point x="405" y="473"/>
      <point x="362" y="497"/>
      <point x="303" y="497" type="curve" smooth="yes"/>
      <point x="195" y="497"/>
      <point x="98" y="412"/>
      <point x="74" y="278" type="curve" smooth="yes"/>
      <point x="70" y="256" type="line" smooth="yes"/>
      <point x="43" y="109"/>
      <point x="99" y="-10"/>
      <point x="216" y="-10" type="curve" smooth="yes"/>
      <point x="271" y="-10"/>
      <point x="324" y="16"/>
      <point x="371" y="84" type="curve"/>
      <point x="319" y="-213" type="line"/>
      <point x="379" y="-213" type="line"/>
    </contour>
    <contour>
      <point x="132" y="226" type="curve" smooth="yes"/>
      <point x="142" y="286" type="line" smooth="yes"/>
      <point x="161" y="399"/>
      <point x="216" y="467"/>
      <point x="304" y="467" type="curve" smooth="yes"/>
      <point x="363" y="467"/>
      <point x="399" y="440"/>
      <point x="424" y="383" type="curve"/>
      <point x="385" y="158" type="line"/>
      <point x="325" y="46"/>
      <point x="268" y="20"/>
      <point x="221" y="20" type="curve" smooth="yes"/>
      <point x="149" y="20"/>
      <point x="111" y="100"/>
    </contour>
  </outline>
</glyph>
<glyph name="r" format="1">
  <advance width="410.17939829536004"/>
  <unicode hex="0072"/>
  <outline>
    <contour>
      <point x="326" y="453" type="curve" smooth="yes"/>
      <point x="362" y="453"/>
      <point x="383" y="434"/>
      <point x="396" y="385" type="curve"/>
      <point x="447" y="430" type="line"/>
      <point x="432" y="474"/>
      <point x="397" y="497"/>
      <point x="356" y="497" type="curve" smooth="yes"/>
      <point x="308" y="497"/>
      <point x="251" y="468"/>
      <point x="197" y="380" type="curve"/>
      <point x="216" y="487" type="line"/>
      <point x="79" y="487" type="line"/>
      <point x="74" y="462" type="line"/>
      <point x="129" y="457" type="line" smooth="yes"/>
      <point x="149" y="455"/>
      <point x="150" y="454"/>
      <point x="142" y="408" type="curve" smooth="yes"/>
      <point x="70" y="0" type="line"/>
      <point x="130" y="0" type="line"/>
      <point x="185" y="312" type="line"/>
      <point x="241" y="427"/>
      <point x="286" y="453"/>
    </contour>
  </outline>
</glyph>
<glyph name="t" format="1">
  <advance width="359"/>
  <unicode hex="0074"/>
  <outline>
    <contour>
      <point x="324" y="102" type="curve"/>
      <point x="280" y="121" type="line"/>
      <point x="253" y="44"/>
      <point x="225" y="20"/>
      <point x="191" y="20" type="curve" smooth="yes"/>
      <point x="152" y="20"/>
      <point x="127" y="49"/>
      <point x="145" y="149" type="curve" smooth="yes"/>
      <point x="199" y="457" type="line"/>
      <point x="364" y="457" type="line"/>
      <point x="369" y="487" type="line"/>
      <point x="205" y="487" type="line"/>
      <point x="232" y="641" type="line"/>
      <point x="169" y="629" type="line"/>
      <point x="144" y="487" type="line"/>
      <point x="67" y="487" type="line"/>
      <point x="62" y="462" type="line"/>
      <point x="117" y="457" type="line" smooth="yes"/>
      <point x="138" y="455"/>
      <point x="139" y="454"/>
      <point x="131" y="410" type="curve" smooth="yes"/>
      <point x="89" y="169" type="line" smooth="yes"/>
      <point x="70" y="58"/>
      <point x="97" y="-10"/>
      <point x="189" y="-10" type="curve" smooth="yes"/>
      <point x="238" y="-10"/>
      <point x="286" y="16"/>
    </contour>
  </outline>
</glyph>
<glyph name="u" format="1">
  <advance width="602.3648606011974"/>
  <unicode hex="0075"/>
  <outline>
    <contour>
      <point x="467" y="-5" type="curve" smooth="yes"/>
      <point x="506" y="-5"/>
      <point x="544" y="23"/>
      <point x="574" y="83" type="curve"/>
      <point x="541" y="105" type="line"/>
      <point x="522" y="47"/>
      <point x="495" y="24"/>
      <point x="475" y="24" type="curve" smooth="yes"/>
      <point x="453" y="24"/>
      <point x="444" y="48"/>
      <point x="462" y="150" type="curve" smooth="yes"/>
      <point x="521" y="487" type="line"/>
      <point x="461" y="487" type="line"/>
      <point x="408" y="180" type="line"/>
      <point x="333" y="56"/>
      <point x="267" y="20"/>
      <point x="212" y="20" type="curve" smooth="yes"/>
      <point x="158" y="20"/>
      <point x="131" y="65"/>
      <point x="150" y="172" type="curve" smooth="yes"/>
      <point x="205" y="487" type="line"/>
      <point x="68" y="487" type="line"/>
      <point x="63" y="462" type="line"/>
      <point x="118" y="457" type="line" smooth="yes"/>
      <point x="138" y="455"/>
      <point x="139" y="454"/>
      <point x="131" y="408" type="curve" smooth="yes"/>
      <point x="89" y="171" type="line" smooth="yes"/>
      <point x="70" y="62"/>
      <point x="109" y="-10"/>
      <point x="204" y="-10" type="curve" smooth="yes"/>
      <point x="269" y="-10"/>
      <point x="334" y="24"/>
      <point x="397" y="115" type="curve"/>
      <point x="389" y="30"/>
      <point x="417" y="-5"/>
    </contour>
  </outline>
</glyph>
<glyph name="v" format="1">
  <advance width="533"/>
  <unicode hex="0076"/>
  <outline>
    <contour>
      <point x="57" y="462" type="line"/>
      <point x="112" y="457" type="line" smooth="yes"/>
      <point x="132" y="455"/>
      <point x="133" y="454"/>
      <point x="125" y="408" type="curve" smooth="yes"/>
      <point x="92" y="224" type="line" smooth="yes"/>
      <point x="67" y="84"/>
      <point x="99" y="-10"/>
      <point x="210" y="-10" type="curve" smooth="yes"/>
      <point x="307" y="-10"/>
      <point x="457" y="65"/>
      <point x="494" y="497" type="curve"/>
      <point x="419" y="473" type="line"/>
      <point x="423" y="442"/>
      <point x="425" y="411"/>
      <point x="425" y="382" type="curve" smooth="yes"/>
      <point x="425" y="164"/>
      <point x="322" y="20"/>
      <point x="216" y="20" type="curve" smooth="yes"/>
      <point x="148" y="20"/>
      <point x="127" y="80"/>
      <point x="153" y="225" type="curve" smooth="yes"/>
      <point x="199" y="487" type="line"/>
      <point x="62" y="487" type="line"/>
    </contour>
  </outline>
</glyph>
<glyph name="w" format="1">
  <advance width="787"/>
  <unicode hex="0077"/>
  <outline>
    <contour>
      <point x="744" y="497" type="curve"/>
      <point x="669" y="473" type="line"/>
      <point x="673" y="438"/>
      <point x="676" y="404"/>
      <point x="676" y="372" type="curve" smooth="yes"/>
      <point x="676" y="163"/>
      <point x="589" y="20"/>
      <point x="485" y="20" type="curve" smooth="yes"/>
      <point x="417" y="20"/>
      <point x="405" y="80"/>
      <point x="431" y="225" type="curve" smooth="yes"/>
      <point x="477" y="487" type="line"/>
      <point x="417" y="487" type="line"/>
      <point x="370" y="224" type="line" smooth="yes"/>
      <point x="366" y="201"/>
      <point x="363" y="179"/>
      <point x="362" y="158" type="curve"/>
      <point x="327" y="72"/>
      <point x="270" y="20"/>
      <point x="208" y="20" type="curve" smooth="yes"/>
      <point x="140" y="20"/>
      <point x="128" y="80"/>
      <point x="154" y="225" type="curve" smooth="yes"/>
      <point x="200" y="487" type="line"/>
      <point x="63" y="487" type="line"/>
      <point x="58" y="462" type="line"/>
      <point x="113" y="457" type="line" smooth="yes"/>
      <point x="134" y="455"/>
      <point x="135" y="453"/>
      <point x="127" y="408" type="curve" smooth="yes"/>
      <point x="93" y="224" type="line" smooth="yes"/>
      <point x="67" y="84"/>
      <point x="91" y="-10"/>
      <point x="202" y="-10" type="curve" smooth="yes"/>
      <point x="252" y="-10"/>
      <point x="312" y="14"/>
      <point x="363" y="94" type="curve"/>
      <point x="373" y="29"/>
      <point x="408" y="-10"/>
      <point x="479" y="-10" type="curve" smooth="yes"/>
      <point x="576" y="-10"/>
      <point x="707" y="65"/>
    </contour>
  </outline>
</glyph>
<glyph name="x" format="1">
  <advance width="485.0"/>
  <unicode hex="0078"/>
  <outline>
    <contour>
      <point x="197" y="169" type="curve" smooth="yes"/>
      <point x="236" y="218" type="line"/>
      <point x="327" y="0" type="line"/>
      <point x="441" y="0" type="line"/>
      <point x="445" y="25" type="line"/>
      <point x="397" y="30" type="line" smooth="yes"/>
      <point x="377" y="32"/>
      <point x="374" y="33"/>
      <point x="359" y="69" type="curve" smooth="yes"/>
      <point x="277" y="267" type="line"/>
      <point x="301" y="294" type="line" smooth="yes"/>
      <point x="359" y="358"/>
      <point x="422" y="412"/>
      <point x="493" y="460" type="curve"/>
      <point x="443" y="497" type="line"/>
      <point x="394" y="449"/>
      <point x="363" y="414"/>
      <point x="286" y="318" type="curve" smooth="yes"/>
      <point x="266" y="293" type="line"/>
      <point x="185" y="487" type="line"/>
      <point x="71" y="487" type="line"/>
      <point x="66" y="462" type="line"/>
      <point x="115" y="457" type="line" smooth="yes"/>
      <point x="135" y="455"/>
      <point x="138" y="454"/>
      <point x="153" y="418" type="curve" smooth="yes"/>
      <point x="226" y="242" type="line"/>
      <point x="182" y="193" type="line" smooth="yes"/>
      <point x="124" y="129"/>
      <point x="61" y="75"/>
      <point x="-10" y="27" type="curve"/>
      <point x="40" y="-10" type="line"/>
      <point x="89" y="38"/>
      <point x="120" y="73"/>
    </contour>
  </outline>
</glyph>
<glyph name="y" format="1">
  <advance width="579.4168958223215"/>
  <unicode hex="0079"/>
  <outline>
    <contour>
      <point x="437" y="9" type="curve" smooth="yes"/>
      <point x="521" y="487" type="line"/>
      <point x="462" y="487" type="line"/>
      <point x="408" y="180" type="line"/>
      <point x="333" y="56"/>
      <point x="267" y="20"/>
      <point x="212" y="20" type="curve" smooth="yes"/>
      <point x="158" y="20"/>
      <point x="131" y="65"/>
      <point x="150" y="172" type="curve" smooth="yes"/>
      <point x="205" y="487" type="line"/>
      <point x="68" y="487" type="line"/>
      <point x="63" y="462" type="line"/>
      <point x="118" y="457" type="line" smooth="yes"/>
      <point x="138" y="455"/>
      <point x="139" y="454"/>
      <point x="131" y="408" type="curve" smooth="yes"/>
      <point x="89" y="171" type="line" smooth="yes"/>
      <point x="70" y="62"/>
      <point x="109" y="-10"/>
      <point x="204" y="-10" type="curve" smooth="yes"/>
      <point x="268" y="-10"/>
      <point x="334" y="23"/>
      <point x="396" y="113" type="curve"/>
      <point x="376" y="-1" type="line" smooth="yes"/>
      <point x="350" y="-146"/>
      <point x="283" y="-195"/>
      <point x="197" y="-195" type="curve" smooth="yes"/>
      <point x="130" y="-195"/>
      <point x="91" y="-157"/>
      <point x="105" y="-58" type="curve"/>
      <point x="48" y="-68" type="line"/>
      <point x="37" y="-161"/>
      <point x="93" y="-223"/>
      <point x="196" y="-223" type="curve" smooth="yes"/>
      <point x="346" y="-223"/>
      <point x="416" y="-113"/>
    </contour>
  </outline>
</glyph>
<glyph name="z" format="1">
  <advance width="458.0419835709256"/>
  <unicode hex="007A"/>
  <outline>
    <contour>
      <point x="407" y="125" type="curve"/>
      <point x="381" y="133" type="line"/>
      <point x="368" y="71"/>
      <point x="349" y="37"/>
      <point x="306" y="37" type="curve" smooth="yes"/>
      <point x="250" y="37"/>
      <point x="208" y="92"/>
      <point x="151" y="92" type="curve" smooth="yes"/>
      <point x="135" y="92"/>
      <point x="119" y="89"/>
      <point x="99" y="79" type="curve"/>
      <point x="428" y="462" type="line"/>
      <point x="433" y="487" type="line"/>
      <point x="101" y="487" type="line"/>
      <point x="75" y="338" type="line"/>
      <point x="100" y="338" type="line"/>
      <point x="131" y="419" type="line" smooth="yes"/>
      <point x="138" y="439"/>
      <point x="142" y="440"/>
      <point x="189" y="440" type="curve" smooth="yes"/>
      <point x="369" y="440" type="line"/>
      <point x="9" y="22" type="line"/>
      <point x="31" y="0" type="line"/>
      <point x="64" y="39"/>
      <point x="91" y="52"/>
      <point x="116" y="52" type="curve" smooth="yes"/>
      <point x="170" y="52"/>
      <point x="224" y="-10"/>
      <point x="293" y="-10" type="curve" smooth="yes"/>
      <point x="359" y="-10"/>
      <point x="395" y="47"/>
    </contour>
  </outline>
</glyph>
<glyph name="braceleft" format="1">
  <advance width="407"/>
  <unicode hex="007B"/>
  <outline>
    <contour>
      <point x="317" y="-114" type="line"/>
      <point x="232" y="-114" type="line" smooth="yes"/>
      <point x="155" y="-114"/>
      <point x="141" y="-65"/>
      <point x="172" y="22" type="curve" smooth="yes"/>
      <point x="211" y="128" type="line" smooth="yes"/>
      <point x="244" y="219"/>
      <point x="223" y="275"/>
      <point x="169" y="295" type="curve"/>
      <point x="235" y="313"/>
      <point x="273" y="367"/>
      <point x="271" y="468" type="curve" smooth="yes"/>
      <point x="269" y="574" type="line" smooth="yes"/>
      <point x="269" y="661"/>
      <point x="300" y="710"/>
      <point x="377" y="710" type="curve" smooth="yes"/>
      <point x="462" y="710" type="line"/>
      <point x="467" y="740" type="line"/>
      <point x="374" y="740" type="line" smooth="yes"/>
      <point x="268" y="740"/>
      <point x="204" y="689"/>
      <point x="205" y="555" type="curve" smooth="yes"/>
      <point x="206" y="449" type="line" smooth="yes"/>
      <point x="207" y="369"/>
      <point x="177" y="313"/>
      <point x="115" y="313" type="curve" smooth="yes"/>
      <point x="42" y="313" type="line"/>
      <point x="37" y="283" type="line"/>
      <point x="110" y="283" type="line" smooth="yes"/>
      <point x="172" y="283"/>
      <point x="182" y="227"/>
      <point x="153" y="147" type="curve" smooth="yes"/>
      <point x="114" y="41" type="line" smooth="yes"/>
      <point x="71" y="-75"/>
      <point x="135" y="-144"/>
      <point x="235" y="-144" type="curve" smooth="yes"/>
      <point x="312" y="-144" type="line"/>
    </contour>
  </outline>
</glyph>
<glyph name="bar" format="1">
  <advance width="251"/>
  <unicode hex="007C"/>
  <outline>
    <contour>
      <point x="195" y="740" type="line"/>
      <point x="27" y="-213" type="line"/>
      <point x="62" y="-213" type="line"/>
      <point x="230" y="740" type="line"/>
    </contour>
  </outline>
</glyph>
<glyph name="braceright" format="1">
  <advance width="407"/>
  <unicode hex="007D"/>
  <outline>
    <contour>
      <point x="221" y="41" type="curve" smooth="yes"/>
      <point x="220" y="147" type="line" smooth="yes"/>
      <point x="219" y="227"/>
      <point x="249" y="283"/>
      <point x="311" y="283" type="curve" smooth="yes"/>
      <point x="384" y="283" type="line"/>
      <point x="389" y="313" type="line"/>
      <point x="316" y="313" type="line" smooth="yes"/>
      <point x="254" y="313"/>
      <point x="244" y="369"/>
      <point x="273" y="449" type="curve" smooth="yes"/>
      <point x="312" y="555" type="line" smooth="yes"/>
      <point x="355" y="671"/>
      <point x="291" y="740"/>
      <point x="191" y="740" type="curve" smooth="yes"/>
      <point x="114" y="740" type="line"/>
      <point x="109" y="710" type="line"/>
      <point x="194" y="710" type="line" smooth="yes"/>
      <point x="271" y="710"/>
      <point x="285" y="661"/>
      <point x="254" y="574" type="curve" smooth="yes"/>
      <point x="215" y="468" type="line" smooth="yes"/>
      <point x="182" y="377"/>
      <point x="203" y="321"/>
      <point x="257" y="301" type="curve"/>
      <point x="191" y="283"/>
      <point x="153" y="229"/>
      <point x="155" y="128" type="curve" smooth="yes"/>
      <point x="157" y="22" type="line" smooth="yes"/>
      <point x="157" y="-65"/>
      <point x="126" y="-114"/>
      <point x="49" y="-114" type="curve" smooth="yes"/>
      <point x="-36" y="-114" type="line"/>
      <point x="-41" y="-144" type="line"/>
      <point x="52" y="-144" type="line" smooth="yes"/>
      <point x="158" y="-144"/>
      <point x="222" y="-93"/>
    </contour>
  </outline>
</glyph>
<glyph name="asciitilde" format="1">
  <advance width="588"/>
  <unicode hex="007E"/>
  <outline>
    <contour>
      <point x="398" y="258" type="curve" smooth="yes"/>
      <point x="441" y="258"/>
      <point x="479" y="279"/>
      <point x="523" y="368" type="curve"/>
      <point x="493" y="382" type="line"/>
      <point x="458" y="310"/>
      <point x="431" y="291"/>
      <point x="398" y="291" type="curve" smooth="yes"/>
      <point x="323" y="291"/>
      <point x="319" y="408"/>
      <point x="221" y="408" type="curve" smooth="yes"/>
      <point x="178" y="408"/>
      <point x="141" y="387"/>
      <point x="97" y="298" type="curve"/>
      <point x="126" y="284" type="line"/>
      <point x="162" y="356"/>
      <point x="189" y="375"/>
      <point x="221" y="375" type="curve" smooth="yes"/>
      <point x="295" y="375"/>
      <point x="299" y="258"/>
    </contour>
  </outline>
</glyph>
<glyph name="exclamdown" format="1">
  <advance width="261"/>
  <unicode hex="00A1"/>
  <outline>
    <contour>
      <point x="170" y="497" type="curve" smooth="yes"/>
      <point x="139" y="497"/>
      <point x="118" y="474"/>
      <point x="118" y="445" type="curve" smooth="yes"/>
      <point x="118" y="418"/>
      <point x="136" y="403"/>
      <point x="163" y="403" type="curve" smooth="yes"/>
      <point x="194" y="403"/>
      <point x="215" y="426"/>
      <point x="215" y="455" type="curve" smooth="yes"/>
      <point x="215" y="482"/>
      <point x="197" y="497"/>
    </contour>
    <contour>
      <point x="129" y="315" type="line"/>
      <point x="86" y="74"/>
      <point x="61" y="22"/>
      <point x="23" y="-193" type="curve"/>
      <point x="83" y="-193" type="line"/>
      <point x="121" y="22"/>
      <point x="114" y="74"/>
      <point x="157" y="315" type="curve"/>
    </contour>
  </outline>
</glyph>
<glyph name="cent" format="1">
  <advance width="482.7199558905704"/>
  <unicode hex="00A2"/>
  <outline>
    <contour>
      <point x="416" y="98" type="curve"/>
      <point x="374" y="121" type="line"/>
      <point x="349" y="52"/>
      <point x="294" y="26"/>
      <point x="249" y="21" type="curve"/>
      <point x="327" y="466" type="line"/>
      <point x="395" y="456"/>
      <point x="417" y="401"/>
      <point x="387" y="304" type="curve"/>
      <point x="447" y="320" type="line"/>
      <point x="478" y="414"/>
      <point x="432" y="486"/>
      <point x="332" y="496" type="curve"/>
      <point x="353" y="612" type="line"/>
      <point x="318" y="612" type="line"/>
      <point x="298" y="497" type="line"/>
      <point x="180" y="492"/>
      <point x="96" y="401"/>
      <point x="73" y="272" type="curve" smooth="yes"/>
      <point x="69" y="250" type="line" smooth="yes"/>
      <point x="41" y="103"/>
      <point x="99" y="1"/>
      <point x="208" y="-9" type="curve"/>
      <point x="188" y="-125" type="line"/>
      <point x="223" y="-125" type="line"/>
      <point x="243" y="-9" type="line"/>
      <point x="308" y="-5"/>
      <point x="373" y="24"/>
    </contour>
    <contour>
      <point x="132" y="225" type="curve" smooth="yes"/>
      <point x="142" y="285" type="line" smooth="yes"/>
      <point x="162" y="405"/>
      <point x="223" y="460"/>
      <point x="292" y="466" type="curve"/>
      <point x="214" y="21" type="line"/>
      <point x="144" y="30"/>
      <point x="111" y="97"/>
    </contour>
  </outline>
</glyph>
<glyph name="sterling" format="1">
  <advance width="522"/>
  <unicode hex="00A3"/>
  <outline>
    <contour>
      <point x="437" y="160" type="line"/>
      <point x="412" y="160" type="line"/>
      <point x="381" y="79" type="line" smooth="yes"/>
      <point x="372" y="55"/>
      <point x="369" y="53"/>
      <point x="322" y="53" type="curve"/>
      <point x="88" y="53" type="line"/>
      <point x="177" y="138"/>
      <point x="217" y="198"/>
      <point x="217" y="279" type="curve" smooth="yes"/>
      <point x="217" y="285" type="line"/>
      <point x="390" y="285" type="line"/>
      <point x="396" y="315" type="line"/>
      <point x="215" y="315" type="line"/>
      <point x="209" y="365"/>
      <point x="192" y="408"/>
      <point x="192" y="471" type="curve" smooth="yes"/>
      <point x="192" y="584"/>
      <point x="245" y="660"/>
      <point x="334" y="660" type="curve" smooth="yes"/>
      <point x="436" y="660"/>
      <point x="462" y="588"/>
      <point x="427" y="467" type="curve"/>
      <point x="495" y="483" type="line"/>
      <point x="532" y="585"/>
      <point x="482" y="690"/>
      <point x="332" y="690" type="curve" smooth="yes"/>
      <point x="167" y="690"/>
      <point x="118" y="577"/>
      <point x="118" y="488" type="curve" smooth="yes"/>
      <point x="118" y="414"/>
      <point x="148" y="367"/>
      <point x="163" y="315" type="curve"/>
      <point x="72" y="315" type="line"/>
      <point x="66" y="285" type="line"/>
      <point x="169" y="285" type="line"/>
      <point x="170" y="278"/>
      <point x="170" y="271"/>
      <point x="170" y="264" type="curve" smooth="yes"/>
      <point x="170" y="216"/>
      <point x="151" y="157"/>
      <point x="32" y="46" type="curve"/>
      <point x="24" y="0" type="line"/>
      <point x="409" y="0" type="line"/>
    </contour>
  </outline>
</glyph>
<glyph name="currency" format="1">
  <advance width="592"/>
  <unicode hex="00A4"/>
  <outline>
    <contour>
      <point x="511" y="67" type="line"/>
      <point x="437" y="161" type="line"/>
      <point x="477" y="200"/>
      <point x="501" y="256"/>
      <point x="501" y="318" type="curve" smooth="yes"/>
      <point x="501" y="360"/>
      <point x="490" y="397"/>
      <point x="470" y="425" type="curve"/>
      <point x="593" y="533" type="line"/>
      <point x="572" y="557" type="line"/>
      <point x="449" y="450" type="line"/>
      <point x="418" y="480"/>
      <point x="373" y="497"/>
      <point x="321" y="497" type="curve" smooth="yes"/>
      <point x="275" y="497"/>
      <point x="234" y="484"/>
      <point x="201" y="461" type="curve"/>
      <point x="124" y="557" type="line"/>
      <point x="101" y="533" type="line"/>
      <point x="175" y="439" type="line"/>
      <point x="134" y="400"/>
      <point x="110" y="345"/>
      <point x="110" y="282" type="curve" smooth="yes"/>
      <point x="110" y="239"/>
      <point x="121" y="203"/>
      <point x="141" y="174" type="curve"/>
      <point x="19" y="67" type="line"/>
      <point x="40" y="43" type="line"/>
      <point x="162" y="149" type="line"/>
      <point x="194" y="120"/>
      <point x="238" y="103"/>
      <point x="290" y="103" type="curve" smooth="yes"/>
      <point x="336" y="103"/>
      <point x="377" y="116"/>
      <point x="411" y="140" type="curve"/>
      <point x="488" y="43" type="line"/>
    </contour>
    <contour>
      <point x="321" y="465" type="curve" smooth="yes"/>
      <point x="411" y="465"/>
      <point x="464" y="409"/>
      <point x="464" y="317" type="curve" smooth="yes"/>
      <point x="464" y="213"/>
      <point x="393" y="135"/>
      <point x="290" y="135" type="curve" smooth="yes"/>
      <point x="200" y="135"/>
      <point x="147" y="191"/>
      <point x="147" y="283" type="curve" smooth="yes"/>
      <point x="147" y="387"/>
      <point x="218" y="465"/>
    </contour>
  </outline>
</glyph>
<glyph name="yen" format="1">
  <advance width="594"/>
  <unicode hex="00A5"/>
  <outline>
    <contour>
      <point x="368" y="25" type="line"/>
      <point x="314" y="30" type="line" smooth="yes"/>
      <point x="294" y="32"/>
      <point x="293" y="32"/>
      <point x="301" y="79" type="curve"/>
      <point x="325" y="214" type="line"/>
      <point x="518" y="214" type="line"/>
      <point x="523" y="244" type="line"/>
      <point x="330" y="244" type="line"/>
      <point x="338" y="289" type="line"/>
      <point x="382" y="354" type="line"/>
      <point x="542" y="354" type="line"/>
      <point x="548" y="384" type="line"/>
      <point x="403" y="384" type="line"/>
      <point x="557" y="611" type="line" smooth="yes"/>
      <point x="581" y="647"/>
      <point x="582" y="648"/>
      <point x="605" y="650" type="curve" smooth="yes"/>
      <point x="654" y="655" type="line"/>
      <point x="659" y="680" type="line"/>
      <point x="479" y="680" type="line"/>
      <point x="474" y="655" type="line"/>
      <point x="523" y="650" type="line" smooth="yes"/>
      <point x="542" y="648"/>
      <point x="543" y="647"/>
      <point x="519" y="611" type="curve" smooth="yes"/>
      <point x="327" y="328" type="line"/>
      <point x="236" y="611" type="line" smooth="yes"/>
      <point x="224" y="647"/>
      <point x="225" y="648"/>
      <point x="246" y="650" type="curve" smooth="yes"/>
      <point x="295" y="655" type="line"/>
      <point x="300" y="680" type="line"/>
      <point x="89" y="680" type="line"/>
      <point x="84" y="655" type="line"/>
      <point x="133" y="650" type="line" smooth="yes"/>
      <point x="153" y="648"/>
      <point x="155" y="647"/>
      <point x="167" y="611" type="curve" smooth="yes"/>
      <point x="242" y="384" type="line"/>
      <point x="97" y="384" type="line"/>
      <point x="91" y="354" type="line"/>
      <point x="252" y="354" type="line"/>
      <point x="273" y="290" type="line"/>
      <point x="265" y="244" type="line"/>
      <point x="72" y="244" type="line"/>
      <point x="67" y="214" type="line"/>
      <point x="260" y="214" type="line"/>
      <point x="232" y="59" type="line"/>
      <point x="227" y="32"/>
      <point x="223" y="32"/>
      <point x="205" y="30" type="curve" smooth="yes"/>
      <point x="149" y="25" type="line"/>
      <point x="145" y="0" type="line"/>
      <point x="364" y="0" type="line"/>
    </contour>
  </outline>
</glyph>
<glyph name="brokenbar" format="1">
  <advance width="237"/>
  <unicode hex="00A6"/>
  <outline>
    <contour>
      <point x="188" y="740" type="line"/>
      <point x="121" y="357" type="line"/>
      <point x="156" y="357" type="line"/>
      <point x="223" y="740" type="line"/>
    </contour>
    <contour>
      <point x="88" y="170" type="line"/>
      <point x="20" y="-213" type="line"/>
      <point x="55" y="-213" type="line"/>
      <point x="123" y="170" type="line"/>
    </contour>
  </outline>
</glyph>
<glyph name="section" format="1">
  <advance width="533"/>
  <unicode hex="00A7"/>
  <outline>
    <contour>
      <point x="405" y="-37" type="curve" smooth="yes"/>
      <point x="405" y="18"/>
      <point x="382" y="56"/>
      <point x="338" y="84" type="curve"/>
      <point x="440" y="110"/>
      <point x="484" y="176"/>
      <point x="484" y="244" type="curve" smooth="yes"/>
      <point x="484" y="312"/>
      <point x="438" y="369"/>
      <point x="349" y="399" type="curve" smooth="yes"/>
      <point x="278" y="423" type="line" smooth="yes"/>
      <point x="208" y="447"/>
      <point x="186" y="484"/>
      <point x="186" y="537" type="curve" smooth="yes"/>
      <point x="186" y="618"/>
      <point x="240" y="661"/>
      <point x="323" y="661" type="curve" smooth="yes"/>
      <point x="419" y="661"/>
      <point x="455" y="594"/>
      <point x="421" y="477" type="curve"/>
      <point x="487" y="493" type="line"/>
      <point x="522" y="591"/>
      <point x="464" y="690"/>
      <point x="324" y="690" type="curve" smooth="yes"/>
      <point x="187" y="690"/>
      <point x="123" y="608"/>
      <point x="123" y="519" type="curve" smooth="yes"/>
      <point x="123" y="461"/>
      <point x="146" y="416"/>
      <point x="191" y="388" type="curve"/>
      <point x="98" y="367"/>
      <point x="45" y="307"/>
      <point x="45" y="234" type="curve" smooth="yes"/>
      <point x="45" y="162"/>
      <point x="94" y="110"/>
      <point x="182" y="77" type="curve" smooth="yes"/>
      <point x="245" y="53" type="line" smooth="yes"/>
      <point x="316" y="26"/>
      <point x="342" y="-8"/>
      <point x="342" y="-65" type="curve" smooth="yes"/>
      <point x="342" y="-142"/>
      <point x="288" y="-193"/>
      <point x="194" y="-193" type="curve" smooth="yes"/>
      <point x="115" y="-193"/>
      <point x="56" y="-149"/>
      <point x="61" y="-32" type="curve"/>
      <point x="3" y="-50" type="line"/>
      <point x="8" y="-177"/>
      <point x="97" y="-223"/>
      <point x="191" y="-223" type="curve" smooth="yes"/>
      <point x="338" y="-223"/>
      <point x="405" y="-127"/>
    </contour>
    <contour>
      <point x="227" y="131" type="line"/>
      <point x="140" y="164"/>
      <point x="108" y="196"/>
      <point x="108" y="254" type="curve" smooth="yes"/>
      <point x="108" y="322"/>
      <point x="154" y="360"/>
      <point x="240" y="367" type="curve"/>
      <point x="304" y="345" type="line" smooth="yes"/>
      <point x="390" y="316"/>
      <point x="421" y="280"/>
      <point x="421" y="218" type="curve" smooth="yes"/>
      <point x="421" y="160"/>
      <point x="383" y="118"/>
      <point x="296" y="105" type="curve"/>
    </contour>
  </outline>
</glyph>
<glyph name="dieresis" format="1">
  <advance width="500"/>
  <unicode hex="00A8"/>
  <outline>
    <contour>
      <point x="219" y="619" type="curve" smooth="yes"/>
      <point x="249" y="619"/>
      <point x="269" y="643"/>
      <point x="269" y="669" type="curve" smooth="yes"/>
      <point x="269" y="692"/>
      <point x="254" y="706"/>
      <point x="229" y="706" type="curve" smooth="yes"/>
      <point x="201" y="706"/>
      <point x="180" y="684"/>
      <point x="180" y="657" type="curve" smooth="yes"/>
      <point x="180" y="634"/>
      <point x="196" y="619"/>
    </contour>
    <contour>
      <point x="418" y="619" type="curve" smooth="yes"/>
      <point x="448" y="619"/>
      <point x="468" y="643"/>
      <point x="468" y="669" type="curve" smooth="yes"/>
      <point x="468" y="692"/>
      <point x="453" y="706"/>
      <point x="428" y="706" type="curve" smooth="yes"/>
      <point x="400" y="706"/>
      <point x="379" y="684"/>
      <point x="379" y="657" type="curve" smooth="yes"/>
      <point x="379" y="634"/>
      <point x="395" y="619"/>
    </contour>
  </outline>
</glyph>
<glyph name="copyright" format="1">
  <advance width="858"/>
  <unicode hex="00A9"/>
  <outline>
    <contour>
      <point x="446" y="-37" type="curve" smooth="yes"/>
      <point x="655" y="-37"/>
      <point x="818" y="128"/>
      <point x="818" y="340" type="curve" smooth="yes"/>
      <point x="818" y="553"/>
      <point x="655" y="717"/>
      <point x="446" y="717" type="curve" smooth="yes"/>
      <point x="236" y="717"/>
      <point x="74" y="553"/>
      <point x="74" y="340" type="curve" smooth="yes"/>
      <point x="74" y="128"/>
      <point x="236" y="-37"/>
    </contour>
    <contour>
      <point x="446" y="-7" type="curve" smooth="yes"/>
      <point x="254" y="-7"/>
      <point x="106" y="144"/>
      <point x="106" y="340" type="curve" smooth="yes"/>
      <point x="106" y="536"/>
      <point x="254" y="687"/>
      <point x="446" y="687" type="curve" smooth="yes"/>
      <point x="638" y="687"/>
      <point x="786" y="536"/>
      <point x="786" y="340" type="curve" smooth="yes"/>
      <point x="786" y="144"/>
      <point x="638" y="-7"/>
    </contour>
    <contour>
      <point x="451" y="544" type="curve" smooth="yes"/>
      <point x="534" y="544"/>
      <point x="573" y="489"/>
      <point x="559" y="389" type="curve"/>
      <point x="616" y="398" type="line"/>
      <point x="632" y="497"/>
      <point x="568" y="572"/>
      <point x="451" y="572" type="curve" smooth="yes"/>
      <point x="326" y="572"/>
      <point x="259" y="485"/>
      <point x="259" y="351" type="curve" smooth="yes"/>
      <point x="259" y="330" type="line" smooth="yes"/>
      <point x="259" y="195"/>
      <point x="324" y="108"/>
      <point x="455" y="108" type="curve" smooth="yes"/>
      <point x="530" y="108"/>
      <point x="598" y="141"/>
      <point x="623" y="234" type="curve"/>
      <point x="578" y="248" type="line"/>
      <point x="562" y="164"/>
      <point x="523" y="136"/>
      <point x="460" y="136" type="curve" smooth="yes"/>
      <point x="366" y="136"/>
      <point x="327" y="186"/>
      <point x="327" y="310" type="curve" smooth="yes"/>
      <point x="327" y="371" type="line" smooth="yes"/>
      <point x="327" y="495"/>
      <point x="373" y="544"/>
    </contour>
  </outline>
</glyph>
<glyph name="ordfeminine" format="1">
  <advance width="414"/>
  <unicode hex="00AA"/>
  <outline>
    <contour>
      <point x="361" y="338" type="curve" smooth="yes"/>
      <point x="388" y="338"/>
      <point x="414" y="358"/>
      <point x="435" y="399" type="curve"/>
      <point x="409" y="414" type="line"/>
      <point x="397" y="377"/>
      <point x="379" y="362"/>
      <point x="366" y="362" type="curve" smooth="yes"/>
      <point x="351" y="362"/>
      <point x="345" y="378"/>
      <point x="357" y="445" type="curve" smooth="yes"/>
      <point x="399" y="678" type="line"/>
      <point x="371" y="678" type="line"/>
      <point x="364" y="666"/>
      <point x="356" y="655"/>
      <point x="349" y="643" type="curve"/>
      <point x="329" y="669"/>
      <point x="301" y="685"/>
      <point x="263" y="685" type="curve" smooth="yes"/>
      <point x="189" y="685"/>
      <point x="123" y="626"/>
      <point x="106" y="533" type="curve" smooth="yes"/>
      <point x="103" y="518" type="line" smooth="yes"/>
      <point x="85" y="417"/>
      <point x="123" y="335"/>
      <point x="203" y="335" type="curve" smooth="yes"/>
      <point x="239" y="335"/>
      <point x="274" y="352"/>
      <point x="306" y="395" type="curve"/>
      <point x="309" y="355"/>
      <point x="329" y="338"/>
    </contour>
    <contour>
      <point x="152" y="498" type="curve" smooth="yes"/>
      <point x="159" y="539" type="line" smooth="yes"/>
      <point x="172" y="614"/>
      <point x="206" y="660"/>
      <point x="263" y="660" type="curve" smooth="yes"/>
      <point x="299" y="660"/>
      <point x="322" y="645"/>
      <point x="340" y="613" type="curve"/>
      <point x="309" y="440" type="line"/>
      <point x="271" y="375"/>
      <point x="235" y="359"/>
      <point x="206" y="359" type="curve" smooth="yes"/>
      <point x="163" y="359"/>
      <point x="138" y="414"/>
    </contour>
  </outline>
</glyph>
<glyph name="guillemotleft" format="1">
  <advance width="642"/>
  <unicode hex="00AB"/>
  <outline>
    <contour>
      <point x="293" y="24" type="line"/>
      <point x="133" y="239" type="line"/>
      <point x="371" y="460" type="line"/>
      <point x="359" y="478" type="line"/>
      <point x="58" y="256" type="line"/>
      <point x="54" y="232" type="line"/>
      <point x="277" y="10" type="line"/>
    </contour>
    <contour>
      <point x="543" y="24" type="line"/>
      <point x="383" y="239" type="line"/>
      <point x="621" y="460" type="line"/>
      <point x="609" y="478" type="line"/>
      <point x="308" y="256" type="line"/>
      <point x="304" y="232" type="line"/>
      <point x="527" y="10" type="line"/>
    </contour>
  </outline>
</glyph>
<glyph name="logicalnot" format="1">
  <advance width="588"/>
  <unicode hex="00AC"/>
  <outline>
    <contour>
      <point x="120" y="429" type="line"/>
      <point x="500" y="429" type="line"/>
      <point x="466" y="238" type="line"/>
      <point x="500" y="238" type="line"/>
      <point x="539" y="461" type="line"/>
      <point x="125" y="461" type="line"/>
    </contour>
  </outline>
</glyph>
<glyph name="registered" format="1">
  <advance width="570"/>
  <unicode hex="00AE"/>
  <note>
    nouvelle rduction 75%
  </note>
  <outline>
    <contour>
      <point x="326" y="241" type="curve" smooth="yes"/>
      <point x="457" y="241"/>
      <point x="560" y="346"/>
      <point x="560" y="479" type="curve" smooth="yes"/>
      <point x="560" y="613"/>
      <point x="457" y="717"/>
      <point x="326" y="717" type="curve" smooth="yes"/>
      <point x="194" y="717"/>
      <point x="92" y="613"/>
      <point x="92" y="479" type="curve" smooth="yes"/>
      <point x="92" y="346"/>
      <point x="194" y="241"/>
    </contour>
    <contour>
      <point x="326" y="270" type="curve" smooth="yes"/>
      <point x="213" y="270"/>
      <point x="124" y="361"/>
      <point x="124" y="479" type="curve" smooth="yes"/>
      <point x="124" y="598"/>
      <point x="213" y="688"/>
      <point x="326" y="688" type="curve" smooth="yes"/>
      <point x="440" y="688"/>
      <point x="528" y="598"/>
      <point x="528" y="479" type="curve" smooth="yes"/>
      <point x="528" y="361"/>
      <point x="440" y="270"/>
    </contour>
    <contour>
      <point x="223" y="588" type="line"/>
      <point x="244" y="586" type="line" smooth="yes"/>
      <point x="252" y="585"/>
      <point x="253" y="585"/>
      <point x="253" y="568" type="curve"/>
      <point x="253" y="394" type="line"/>
      <point x="253" y="376"/>
      <point x="252" y="375"/>
      <point x="244" y="375" type="curve" smooth="yes"/>
      <point x="223" y="374" type="line"/>
      <point x="223" y="353" type="line"/>
      <point x="323" y="353" type="line"/>
      <point x="323" y="374" type="line"/>
      <point x="302" y="375" type="line" smooth="yes"/>
      <point x="295" y="375"/>
      <point x="294" y="376"/>
      <point x="294" y="394" type="curve"/>
      <point x="294" y="458" type="line"/>
      <point x="322" y="458" type="line"/>
      <point x="381" y="353" type="line"/>
      <point x="444" y="353" type="line"/>
      <point x="444" y="374" type="line"/>
      <point x="426" y="375" type="line" smooth="yes"/>
      <point x="418" y="375"/>
      <point x="419" y="376"/>
      <point x="408" y="394" type="curve" smooth="yes"/>
      <point x="365" y="464" type="line"/>
      <point x="393" y="474"/>
      <point x="409" y="497"/>
      <point x="409" y="527" type="curve" smooth="yes"/>
      <point x="409" y="543" type="line" smooth="yes"/>
      <point x="409" y="582"/>
      <point x="380" y="608"/>
      <point x="329" y="608" type="curve" smooth="yes"/>
      <point x="223" y="608" type="line"/>
    </contour>
    <contour>
      <point x="329" y="586" type="line" smooth="yes"/>
      <point x="352" y="586"/>
      <point x="366" y="570"/>
      <point x="366" y="543" type="curve" smooth="yes"/>
      <point x="366" y="527" type="line" smooth="yes"/>
      <point x="366" y="498"/>
      <point x="352" y="481"/>
      <point x="329" y="481" type="curve" smooth="yes"/>
      <point x="294" y="481" type="line"/>
      <point x="294" y="586" type="line"/>
    </contour>
  </outline>
</glyph>
<glyph name="macron" format="1">
  <advance width="500"/>
  <unicode hex="00AF"/>
  <outline>
    <contour>
      <point x="468" y="662" type="line"/>
      <point x="181" y="662" type="line"/>
      <point x="173" y="619" type="line"/>
      <point x="460" y="619" type="line"/>
    </contour>
  </outline>
</glyph>
<glyph name="degree" format="1">
  <advance width="402"/>
  <unicode hex="00B0"/>
  <outline>
    <contour>
      <point x="236" y="366" type="curve" smooth="yes"/>
      <point x="338" y="366"/>
      <point x="412" y="446"/>
      <point x="412" y="546" type="curve" smooth="yes"/>
      <point x="412" y="634"/>
      <point x="353" y="690"/>
      <point x="267" y="690" type="curve" smooth="yes"/>
      <point x="165" y="690"/>
      <point x="91" y="610"/>
      <point x="91" y="510" type="curve" smooth="yes"/>
      <point x="91" y="422"/>
      <point x="150" y="366"/>
    </contour>
    <contour>
      <point x="267" y="658" type="curve" smooth="yes"/>
      <point x="335" y="658"/>
      <point x="375" y="615"/>
      <point x="375" y="545" type="curve" smooth="yes"/>
      <point x="375" y="461"/>
      <point x="318" y="398"/>
      <point x="236" y="398" type="curve" smooth="yes"/>
      <point x="168" y="398"/>
      <point x="128" y="441"/>
      <point x="128" y="511" type="curve" smooth="yes"/>
      <point x="128" y="595"/>
      <point x="185" y="658"/>
    </contour>
  </outline>
</glyph>
<glyph name="plusminus" format="1">
  <advance width="588"/>
  <unicode hex="00B1"/>
  <outline>
    <contour>
      <point x="514" y="318" type="line"/>
      <point x="520" y="350" type="line"/>
      <point x="330" y="350" type="line"/>
      <point x="364" y="544" type="line"/>
      <point x="330" y="544" type="line"/>
      <point x="296" y="350" type="line"/>
      <point x="106" y="350" type="line"/>
      <point x="100" y="318" type="line"/>
      <point x="290" y="318" type="line"/>
      <point x="256" y="124" type="line"/>
      <point x="290" y="124" type="line"/>
      <point x="324" y="318" type="line"/>
    </contour>
    <contour>
      <point x="44" y="0" type="line"/>
      <point x="458" y="0" type="line"/>
      <point x="464" y="32" type="line"/>
      <point x="50" y="32" type="line"/>
    </contour>
  </outline>
</glyph>
<glyph name="acute" format="1">
  <advance width="500"/>
  <unicode hex="00B4"/>
  <outline>
    <contour>
      <point x="308" y="579" type="line"/>
      <point x="368" y="629"/>
      <point x="418" y="681"/>
      <point x="464" y="740" type="curve"/>
      <point x="384" y="740" type="line"/>
      <point x="357" y="679"/>
      <point x="334" y="644"/>
      <point x="291" y="600" type="curve"/>
    </contour>
  </outline>
</glyph>
<glyph name="mu" format="1">
  <advance width="606"/>
  <unicode hex="00B5"/>
  <outline>
    <contour>
      <point x="103" y="-193" type="line"/>
      <point x="96" y="-126"/>
      <point x="96" y="-78"/>
      <point x="115" y="37" type="curve"/>
      <point x="135" y="7"/>
      <point x="168" y="-10"/>
      <point x="214" y="-10" type="curve" smooth="yes"/>
      <point x="279" y="-10"/>
      <point x="344" y="24"/>
      <point x="407" y="115" type="curve"/>
      <point x="399" y="30"/>
      <point x="427" y="-5"/>
      <point x="477" y="-5" type="curve" smooth="yes"/>
      <point x="516" y="-5"/>
      <point x="554" y="23"/>
      <point x="584" y="83" type="curve"/>
      <point x="551" y="105" type="line"/>
      <point x="532" y="47"/>
      <point x="505" y="24"/>
      <point x="485" y="24" type="curve" smooth="yes"/>
      <point x="463" y="24"/>
      <point x="454" y="48"/>
      <point x="472" y="150" type="curve" smooth="yes"/>
      <point x="531" y="487" type="line"/>
      <point x="471" y="487" type="line"/>
      <point x="418" y="180" type="line"/>
      <point x="343" y="56"/>
      <point x="277" y="20"/>
      <point x="222" y="20" type="curve" smooth="yes"/>
      <point x="168" y="20"/>
      <point x="141" y="65"/>
      <point x="160" y="172" type="curve" smooth="yes"/>
      <point x="215" y="487" type="line"/>
      <point x="78" y="487" type="line"/>
      <point x="73" y="462" type="line"/>
      <point x="128" y="457" type="line" smooth="yes"/>
      <point x="148" y="455"/>
      <point x="149" y="455"/>
      <point x="141" y="408" type="curve" smooth="yes"/>
      <point x="31" y="-213" type="line"/>
    </contour>
  </outline>
</glyph>
<glyph name="paragraph" format="1">
  <advance width="555"/>
  <unicode hex="00B6"/>
  <outline>
    <contour>
      <point x="88" y="508" type="curve" smooth="yes"/>
      <point x="82" y="475" type="line" smooth="yes"/>
      <point x="63" y="369"/>
      <point x="126" y="290"/>
      <point x="248" y="290" type="curve" smooth="yes"/>
      <point x="301" y="290" type="line"/>
      <point x="365" y="650" type="line"/>
      <point x="436" y="650" type="line"/>
      <point x="310" y="-64" type="line" smooth="yes"/>
      <point x="301" y="-111"/>
      <point x="300" y="-112"/>
      <point x="279" y="-113" type="curve" smooth="yes"/>
      <point x="203" y="-118" type="line"/>
      <point x="199" y="-143" type="line"/>
      <point x="438" y="-143" type="line"/>
      <point x="442" y="-118" type="line"/>
      <point x="388" y="-113" type="line" smooth="yes"/>
      <point x="367" y="-111"/>
      <point x="366" y="-111"/>
      <point x="375" y="-64" type="curve" smooth="yes"/>
      <point x="492" y="601" type="line" smooth="yes"/>
      <point x="500" y="648"/>
      <point x="501" y="648"/>
      <point x="523" y="650" type="curve" smooth="yes"/>
      <point x="578" y="655" type="line"/>
      <point x="583" y="680" type="line"/>
      <point x="307" y="680" type="line" smooth="yes"/>
      <point x="183" y="680"/>
      <point x="108" y="618"/>
    </contour>
  </outline>
</glyph>
<glyph name="periodcentered" format="1">
  <advance width="500"/>
  <unicode hex="00B7"/>
  <outline>
    <contour>
      <point x="270" y="339" type="curve" smooth="yes"/>
      <point x="301" y="339"/>
      <point x="322" y="364"/>
      <point x="322" y="391" type="curve" smooth="yes"/>
      <point x="322" y="415"/>
      <point x="306" y="430"/>
      <point x="280" y="430" type="curve" smooth="yes"/>
      <point x="251" y="430"/>
      <point x="229" y="407"/>
      <point x="229" y="379" type="curve" smooth="yes"/>
      <point x="229" y="354"/>
      <point x="245" y="339"/>
    </contour>
  </outline>
</glyph>
<glyph name="cedilla" format="1">
  <advance width="500"/>
  <unicode hex="00B8"/>
  <outline>
    <contour>
      <point x="288" y="-134" type="curve" smooth="yes"/>
      <point x="288" y="-91"/>
      <point x="254" y="-60"/>
      <point x="190" y="-60" type="curve" smooth="yes"/>
      <point x="187" y="-60" type="line"/>
      <point x="222" y="0" type="line"/>
      <point x="190" y="0" type="line"/>
      <point x="153" y="-63" type="line"/>
      <point x="157" y="-89" type="line"/>
      <point x="163" y="-88"/>
      <point x="175" y="-86"/>
      <point x="183" y="-86" type="curve" smooth="yes"/>
      <point x="224" y="-86"/>
      <point x="235" y="-102"/>
      <point x="235" y="-134" type="curve" smooth="yes"/>
      <point x="235" y="-172"/>
      <point x="209" y="-198"/>
      <point x="173" y="-198" type="curve" smooth="yes"/>
      <point x="137" y="-198"/>
      <point x="119" y="-180"/>
      <point x="123" y="-132" type="curve"/>
      <point x="76" y="-145" type="line"/>
      <point x="77" y="-203"/>
      <point x="123" y="-223"/>
      <point x="172" y="-223" type="curve" smooth="yes"/>
      <point x="233" y="-223"/>
      <point x="288" y="-192"/>
    </contour>
  </outline>
</glyph>
<glyph name="ordmasculine" format="1">
  <advance width="398"/>
  <unicode hex="00BA"/>
  <outline>
    <contour>
      <point x="390" y="509" type="line" smooth="yes"/>
      <point x="406" y="604"/>
      <point x="363" y="685"/>
      <point x="267" y="685" type="curve" smooth="yes"/>
      <point x="180" y="685"/>
      <point x="122" y="627"/>
      <point x="105" y="527" type="curve" smooth="yes"/>
      <point x="102" y="511" type="line" smooth="yes"/>
      <point x="86" y="415"/>
      <point x="129" y="335"/>
      <point x="223" y="335" type="curve" smooth="yes"/>
      <point x="310" y="335"/>
      <point x="370" y="392"/>
      <point x="387" y="493" type="curve" smooth="yes"/>
    </contour>
    <contour>
      <point x="339" y="524" type="curve" smooth="yes"/>
      <point x="332" y="482" type="line" smooth="yes"/>
      <point x="317" y="395"/>
      <point x="278" y="359"/>
      <point x="227" y="359" type="curve" smooth="yes"/>
      <point x="167" y="359"/>
      <point x="139" y="412"/>
      <point x="153" y="496" type="curve" smooth="yes"/>
      <point x="160" y="538" type="line" smooth="yes"/>
      <point x="175" y="626"/>
      <point x="215" y="661"/>
      <point x="264" y="661" type="curve" smooth="yes"/>
      <point x="325" y="661"/>
      <point x="353" y="608"/>
    </contour>
  </outline>
</glyph>
<glyph name="guillemotright" format="1">
  <advance width="642"/>
  <unicode hex="00BB"/>
  <outline>
    <contour>
      <point x="584" y="233" type="line"/>
      <point x="588" y="257" type="line"/>
      <point x="365" y="479" type="line"/>
      <point x="349" y="465" type="line"/>
      <point x="509" y="250" type="line"/>
      <point x="271" y="29" type="line"/>
      <point x="283" y="11" type="line"/>
    </contour>
    <contour>
      <point x="334" y="233" type="line"/>
      <point x="338" y="257" type="line"/>
      <point x="115" y="479" type="line"/>
      <point x="99" y="465" type="line"/>
      <point x="259" y="250" type="line"/>
      <point x="21" y="29" type="line"/>
      <point x="33" y="11" type="line"/>
    </contour>
  </outline>
</glyph>
<glyph name="questiondown" format="1">
  <advance width="471"/>
  <unicode hex="00BF"/>
  <outline>
    <contour>
      <point x="282" y="497" type="curve" smooth="yes"/>
      <point x="251" y="497"/>
      <point x="230" y="474"/>
      <point x="230" y="445" type="curve" smooth="yes"/>
      <point x="230" y="418"/>
      <point x="248" y="403"/>
      <point x="275" y="403" type="curve" smooth="yes"/>
      <point x="306" y="403"/>
      <point x="327" y="426"/>
      <point x="327" y="455" type="curve" smooth="yes"/>
      <point x="327" y="482"/>
      <point x="309" y="497"/>
    </contour>
    <contour>
      <point x="236" y="315" type="line"/>
      <point x="234" y="288" type="line" smooth="yes"/>
      <point x="222" y="126"/>
      <point x="1" y="133"/>
      <point x="1" y="-49" type="curve" smooth="yes"/>
      <point x="1" y="-139"/>
      <point x="57" y="-203"/>
      <point x="175" y="-203" type="curve" smooth="yes"/>
      <point x="323" y="-203"/>
      <point x="384" y="-103"/>
      <point x="384" y="4" type="curve"/>
      <point x="327" y="20" type="line"/>
      <point x="318" y="-108"/>
      <point x="269" y="-173"/>
      <point x="176" y="-173" type="curve" smooth="yes"/>
      <point x="117" y="-173"/>
      <point x="71" y="-139"/>
      <point x="71" y="-48" type="curve" smooth="yes"/>
      <point x="71" y="141"/>
      <point x="239" y="107"/>
      <point x="274" y="289" type="curve" smooth="yes"/>
      <point x="279" y="315" type="line"/>
    </contour>
  </outline>
</glyph>
<glyph name="Aring" format="1">
  <advance width="622"/>
  <unicode hex="00C5"/>
  <outline>
    <contour>
      <point x="153" y="25" type="line"/>
      <point x="99" y="30" type="line" smooth="yes"/>
      <point x="78" y="32"/>
      <point x="77" y="33"/>
      <point x="100" y="79" type="curve" smooth="yes"/>
      <point x="165" y="210" type="line"/>
      <point x="418" y="210" type="line"/>
      <point x="438" y="79" type="line" smooth="yes"/>
      <point x="445" y="34"/>
      <point x="444" y="32"/>
      <point x="421" y="30" type="curve" smooth="yes"/>
      <point x="365" y="25" type="line"/>
      <point x="361" y="0" type="line"/>
      <point x="579" y="0" type="line"/>
      <point x="583" y="25" type="line"/>
      <point x="529" y="30" type="line" smooth="yes"/>
      <point x="510" y="32"/>
      <point x="509" y="33"/>
      <point x="502" y="79" type="curve" smooth="yes"/>
      <point x="414" y="657" type="line"/>
      <point x="470" y="666"/>
      <point x="506" y="705"/>
      <point x="515" y="751" type="curve" smooth="yes"/>
      <point x="517" y="762" type="line" smooth="yes"/>
      <point x="527" y="816"/>
      <point x="490" y="875"/>
      <point x="410" y="875" type="curve" smooth="yes"/>
      <point x="341" y="875"/>
      <point x="295" y="833"/>
      <point x="285" y="779" type="curve" smooth="yes"/>
      <point x="283" y="768" type="line" smooth="yes"/>
      <point x="275" y="722"/>
      <point x="299" y="674"/>
      <point x="354" y="659" type="curve"/>
      <point x="63" y="79" type="line" smooth="yes"/>
      <point x="40" y="33"/>
      <point x="39" y="32"/>
      <point x="17" y="30" type="curve" smooth="yes"/>
      <point x="-39" y="25" type="line"/>
      <point x="-43" y="0" type="line"/>
      <point x="149" y="0" type="line"/>
    </contour>
    <contour>
      <point x="388" y="680" type="curve" smooth="yes"/>
      <point x="345" y="680"/>
      <point x="325" y="710"/>
      <point x="332" y="753" type="curve" smooth="yes"/>
      <point x="336" y="778" type="line" smooth="yes"/>
      <point x="343" y="823"/>
      <point x="371" y="850"/>
      <point x="411" y="850" type="curve" smooth="yes"/>
      <point x="455" y="850"/>
      <point x="475" y="821"/>
      <point x="468" y="777" type="curve" smooth="yes"/>
      <point x="464" y="752" type="line" smooth="yes"/>
      <point x="457" y="708"/>
      <point x="428" y="680"/>
    </contour>
    <contour>
      <point x="180" y="240" type="line"/>
      <point x="360" y="600" type="line"/>
      <point x="414" y="240" type="line"/>
    </contour>
  </outline>
</glyph>
<glyph name="AE" format="1">
  <advance width="875"/>
  <unicode hex="00C6"/>
  <outline>
    <contour>
      <point x="399" y="655" type="line"/>
      <point x="454" y="650" type="line" smooth="yes"/>
      <point x="474" y="648"/>
      <point x="474" y="647"/>
      <point x="441" y="601" type="curve" smooth="yes"/>
      <point x="73" y="79" type="line" smooth="yes"/>
      <point x="40" y="33"/>
      <point x="39" y="32"/>
      <point x="17" y="30" type="curve" smooth="yes"/>
      <point x="-39" y="25" type="line"/>
      <point x="-43" y="0" type="line"/>
      <point x="151" y="0" type="line"/>
      <point x="155" y="25" type="line"/>
      <point x="101" y="30" type="line" smooth="yes"/>
      <point x="80" y="32"/>
      <point x="80" y="34"/>
      <point x="112" y="79" type="curve" smooth="yes"/>
      <point x="205" y="210" type="line"/>
      <point x="433" y="210" type="line"/>
      <point x="410" y="79" type="line" smooth="yes"/>
      <point x="402" y="33"/>
      <point x="401" y="32"/>
      <point x="379" y="30" type="curve" smooth="yes"/>
      <point x="323" y="25" type="line"/>
      <point x="319" y="0" type="line"/>
      <point x="784" y="0" type="line"/>
      <point x="812" y="157" type="line"/>
      <point x="788" y="157" type="line"/>
      <point x="743" y="56" type="line" smooth="yes"/>
      <point x="733" y="33"/>
      <point x="731" y="30"/>
      <point x="684" y="30" type="curve" smooth="yes"/>
      <point x="467" y="30" type="line"/>
      <point x="519" y="329" type="line"/>
      <point x="667" y="329" type="line" smooth="yes"/>
      <point x="714" y="329"/>
      <point x="715" y="327"/>
      <point x="716" y="303" type="curve" smooth="yes"/>
      <point x="721" y="232" type="line"/>
      <point x="745" y="232" type="line"/>
      <point x="784" y="456" type="line"/>
      <point x="760" y="456" type="line"/>
      <point x="731" y="385" type="line" smooth="yes"/>
      <point x="721" y="361"/>
      <point x="719" y="359"/>
      <point x="672" y="359" type="curve" smooth="yes"/>
      <point x="524" y="359" type="line"/>
      <point x="575" y="650" type="line"/>
      <point x="784" y="650" type="line" smooth="yes"/>
      <point x="831" y="650"/>
      <point x="831" y="647"/>
      <point x="833" y="624" type="curve" smooth="yes"/>
      <point x="842" y="523" type="line"/>
      <point x="866" y="523" type="line"/>
      <point x="894" y="680" type="line"/>
      <point x="404" y="680" type="line"/>
    </contour>
    <contour>
      <point x="226" y="240" type="line"/>
      <point x="509" y="640" type="line"/>
      <point x="438" y="240" type="line"/>
    </contour>
  </outline>
</glyph>
<glyph name="Ccedilla" format="1">
  <advance width="579"/>
  <unicode hex="00C7"/>
  <outline>
    <contour>
      <point x="364" y="-134" type="curve" smooth="yes"/>
      <point x="364" y="-91"/>
      <point x="330" y="-60"/>
      <point x="266" y="-60" type="curve" smooth="yes"/>
      <point x="263" y="-60" type="line"/>
      <point x="292" y="-10" type="line"/>
      <point x="380" y="-8"/>
      <point x="459" y="31"/>
      <point x="506" y="131" type="curve"/>
      <point x="450" y="150" type="line"/>
      <point x="422" y="54"/>
      <point x="354" y="20"/>
      <point x="287" y="20" type="curve" smooth="yes"/>
      <point x="174" y="20"/>
      <point x="127" y="90"/>
      <point x="156" y="259" type="curve" smooth="yes"/>
      <point x="186" y="432" type="line" smooth="yes"/>
      <point x="214" y="594"/>
      <point x="287" y="660"/>
      <point x="393" y="660" type="curve" smooth="yes"/>
      <point x="493" y="660"/>
      <point x="529" y="591"/>
      <point x="493" y="467" type="curve"/>
      <point x="561" y="483" type="line"/>
      <point x="597" y="587"/>
      <point x="538" y="690"/>
      <point x="394" y="690" type="curve" smooth="yes"/>
      <point x="237" y="690"/>
      <point x="135" y="573"/>
      <point x="104" y="382" type="curve" smooth="yes"/>
      <point x="92" y="309" type="line" smooth="yes"/>
      <point x="61" y="125"/>
      <point x="119" y="3"/>
      <point x="261" y="-9" type="curve"/>
      <point x="229" y="-63" type="line"/>
      <point x="233" y="-89" type="line"/>
      <point x="239" y="-88"/>
      <point x="251" y="-86"/>
      <point x="259" y="-86" type="curve" smooth="yes"/>
      <point x="300" y="-86"/>
      <point x="311" y="-102"/>
      <point x="311" y="-134" type="curve" smooth="yes"/>
      <point x="311" y="-172"/>
      <point x="285" y="-198"/>
      <point x="249" y="-198" type="curve" smooth="yes"/>
      <point x="213" y="-198"/>
      <point x="195" y="-180"/>
      <point x="199" y="-132" type="curve"/>
      <point x="152" y="-145" type="line"/>
      <point x="153" y="-203"/>
      <point x="199" y="-223"/>
      <point x="248" y="-223" type="curve" smooth="yes"/>
      <point x="309" y="-223"/>
      <point x="364" y="-192"/>
    </contour>
  </outline>
</glyph>
<glyph name="Eth" format="1">
  <advance width="656.4081809428899"/>
  <unicode hex="00D0"/>
  <outline>
    <contour>
      <point x="127" y="655" type="line"/>
      <point x="182" y="650" type="line" smooth="yes"/>
      <point x="202" y="648"/>
      <point x="203" y="648"/>
      <point x="195" y="601" type="curve" smooth="yes"/>
      <point x="154" y="369" type="line"/>
      <point x="77" y="369" type="line"/>
      <point x="72" y="339" type="line"/>
      <point x="149" y="339" type="line"/>
      <point x="103" y="79" type="line" smooth="yes"/>
      <point x="95" y="33"/>
      <point x="94" y="32"/>
      <point x="72" y="30" type="curve" smooth="yes"/>
      <point x="16" y="25" type="line"/>
      <point x="12" y="0" type="line"/>
      <point x="294" y="0" type="line" smooth="yes"/>
      <point x="451" y="0"/>
      <point x="554" y="122"/>
      <point x="586" y="299" type="curve" smooth="yes"/>
      <point x="599" y="372" type="line" smooth="yes"/>
      <point x="630" y="545"/>
      <point x="553" y="680"/>
      <point x="384" y="680" type="curve" smooth="yes"/>
      <point x="132" y="680" type="line"/>
    </contour>
    <contour>
      <point x="376" y="339" type="line"/>
      <point x="381" y="369" type="line"/>
      <point x="219" y="369" type="line"/>
      <point x="269" y="650" type="line"/>
      <point x="384" y="650" type="line" smooth="yes"/>
      <point x="509" y="650"/>
      <point x="560" y="564"/>
      <point x="535" y="422" type="curve" smooth="yes"/>
      <point x="504" y="249" type="line" smooth="yes"/>
      <point x="478" y="105"/>
      <point x="404" y="30"/>
      <point x="293" y="30" type="curve" smooth="yes"/>
      <point x="159" y="30" type="line"/>
      <point x="214" y="339" type="line"/>
    </contour>
  </outline>
</glyph>
<glyph name="multiply" format="1">
  <advance width="588"/>
  <unicode hex="00D7"/>
  <outline>
    <contour>
      <point x="465" y="170" type="line"/>
      <point x="332" y="332" type="line"/>
      <point x="525" y="496" type="line"/>
      <point x="503" y="521" type="line"/>
      <point x="311" y="357" type="line"/>
      <point x="177" y="520" type="line"/>
      <point x="152" y="497" type="line"/>
      <point x="285" y="335" type="line"/>
      <point x="93" y="172" type="line"/>
      <point x="114" y="147" type="line"/>
      <point x="306" y="310" type="line"/>
      <point x="440" y="147" type="line"/>
    </contour>
  </outline>
</glyph>
<glyph name="Oslash" format="1">
  <advance width="662"/>
  <unicode hex="00D8"/>
  <outline>
    <contour>
      <point x="592" y="299" type="curve" smooth="yes"/>
      <point x="605" y="372" type="line" smooth="yes"/>
      <point x="620" y="455"/>
      <point x="611" y="531"/>
      <point x="580" y="587" type="curve"/>
      <point x="659" y="680" type="line"/>
      <point x="616" y="680" type="line"/>
      <point x="561" y="615" type="line"/>
      <point x="524" y="662"/>
      <point x="467" y="690"/>
      <point x="393" y="690" type="curve" smooth="yes"/>
      <point x="237" y="690"/>
      <point x="136" y="564"/>
      <point x="104" y="382" type="curve" smooth="yes"/>
      <point x="91" y="309" type="line" smooth="yes"/>
      <point x="76" y="224"/>
      <point x="85" y="149"/>
      <point x="116" y="92" type="curve"/>
      <point x="37" y="0" type="line"/>
      <point x="80" y="0" type="line"/>
      <point x="134" y="64" type="line"/>
      <point x="171" y="17"/>
      <point x="228" y="-10"/>
      <point x="303" y="-10" type="curve" smooth="yes"/>
      <point x="459" y="-10"/>
      <point x="559" y="116"/>
    </contour>
    <contour>
      <point x="155" y="259" type="curve" smooth="yes"/>
      <point x="186" y="432" type="line" smooth="yes"/>
      <point x="213" y="583"/>
      <point x="285" y="660"/>
      <point x="394" y="660" type="curve" smooth="yes"/>
      <point x="462" y="660"/>
      <point x="508" y="632"/>
      <point x="531" y="581" type="curve"/>
      <point x="153" y="136" type="line"/>
      <point x="146" y="170"/>
      <point x="146" y="212"/>
    </contour>
    <contour>
      <point x="541" y="422" type="curve" smooth="yes"/>
      <point x="510" y="249" type="line" smooth="yes"/>
      <point x="483" y="99"/>
      <point x="412" y="20"/>
      <point x="302" y="20" type="curve" smooth="yes"/>
      <point x="234" y="20"/>
      <point x="187" y="48"/>
      <point x="164" y="99" type="curve"/>
      <point x="543" y="544" type="line"/>
      <point x="550" y="510"/>
      <point x="550" y="469"/>
    </contour>
  </outline>
</glyph>
<glyph name="Thorn" format="1">
  <advance width="558"/>
  <unicode hex="00DE"/>
  <outline>
    <contour>
      <point x="252" y="25" type="line"/>
      <point x="178" y="30" type="line" smooth="yes"/>
      <point x="157" y="31"/>
      <point x="157" y="32"/>
      <point x="165" y="79" type="curve" smooth="yes"/>
      <point x="177" y="146" type="line"/>
      <point x="312" y="146" type="line" smooth="yes"/>
      <point x="436" y="146"/>
      <point x="511" y="208"/>
      <point x="531" y="318" type="curve" smooth="yes"/>
      <point x="537" y="351" type="line" smooth="yes"/>
      <point x="556" y="457"/>
      <point x="493" y="536"/>
      <point x="371" y="536" type="curve" smooth="yes"/>
      <point x="246" y="536" type="line"/>
      <point x="257" y="601" type="line" smooth="yes"/>
      <point x="265" y="648"/>
      <point x="266" y="649"/>
      <point x="288" y="650" type="curve" smooth="yes"/>
      <point x="363" y="655" type="line"/>
      <point x="368" y="680" type="line"/>
      <point x="129" y="680" type="line"/>
      <point x="124" y="655" type="line"/>
      <point x="179" y="650" type="line" smooth="yes"/>
      <point x="199" y="648"/>
      <point x="200" y="648"/>
      <point x="192" y="601" type="curve" smooth="yes"/>
      <point x="100" y="79" type="line" smooth="yes"/>
      <point x="92" y="32"/>
      <point x="91" y="32"/>
      <point x="69" y="30" type="curve" smooth="yes"/>
      <point x="13" y="25" type="line"/>
      <point x="9" y="0" type="line"/>
      <point x="248" y="0" type="line"/>
    </contour>
    <contour>
      <point x="371" y="506" type="line" smooth="yes"/>
      <point x="452" y="506"/>
      <point x="487" y="462"/>
      <point x="470" y="361" type="curve" smooth="yes"/>
      <point x="461" y="308" type="line" smooth="yes"/>
      <point x="445" y="216"/>
      <point x="394" y="176"/>
      <point x="312" y="176" type="curve" smooth="yes"/>
      <point x="182" y="176" type="line"/>
      <point x="240" y="506" type="line"/>
    </contour>
  </outline>
</glyph>
<glyph name="germandbls" format="1">
  <advance width="588.5765219409392"/>
  <unicode hex="00DF"/>
  <outline>
    <contour>
      <point x="226" y="581" type="line" smooth="yes"/>
      <point x="246" y="693"/>
      <point x="293" y="720"/>
      <point x="364" y="720" type="curve" smooth="yes"/>
      <point x="435" y="720"/>
      <point x="456" y="688"/>
      <point x="456" y="636" type="curve" smooth="yes"/>
      <point x="456" y="512"/>
      <point x="329" y="460"/>
      <point x="329" y="359" type="curve" smooth="yes"/>
      <point x="329" y="307"/>
      <point x="358" y="279"/>
      <point x="397" y="246" type="curve" smooth="yes"/>
      <point x="433" y="215" type="line" smooth="yes"/>
      <point x="473" y="181"/>
      <point x="486" y="153"/>
      <point x="486" y="116" type="curve" smooth="yes"/>
      <point x="486" y="48"/>
      <point x="432" y="19"/>
      <point x="372" y="19" type="curve" smooth="yes"/>
      <point x="321" y="19"/>
      <point x="282" y="43"/>
      <point x="275" y="127" type="curve"/>
      <point x="224" y="111" type="line"/>
      <point x="235" y="34"/>
      <point x="287" y="-10"/>
      <point x="372" y="-10" type="curve" smooth="yes"/>
      <point x="471" y="-10"/>
      <point x="537" y="51"/>
      <point x="537" y="135" type="curve" smooth="yes"/>
      <point x="537" y="199"/>
      <point x="512" y="235"/>
      <point x="474" y="266" type="curve" smooth="yes"/>
      <point x="436" y="297" type="line" smooth="yes"/>
      <point x="398" y="328"/>
      <point x="381" y="350"/>
      <point x="381" y="383" type="curve" smooth="yes"/>
      <point x="381" y="486"/>
      <point x="513" y="525"/>
      <point x="513" y="629" type="curve" smooth="yes"/>
      <point x="513" y="692"/>
      <point x="472" y="750"/>
      <point x="363" y="750" type="curve" smooth="yes"/>
      <point x="230" y="750"/>
      <point x="182" y="667"/>
      <point x="165" y="571" type="curve" smooth="yes"/>
      <point x="150" y="487" type="line"/>
      <point x="73" y="487" type="line"/>
      <point x="68" y="462" type="line"/>
      <point x="123" y="457" type="line" smooth="yes"/>
      <point x="143" y="455"/>
      <point x="144" y="455"/>
      <point x="136" y="408" type="curve" smooth="yes"/>
      <point x="26" y="-213" type="line"/>
      <point x="86" y="-213" type="line"/>
    </contour>
  </outline>
</glyph>
<glyph name="ae" format="1">
  <advance width="808.7199558905704"/>
  <unicode hex="00E6"/>
  <outline>
    <contour>
      <point x="735" y="98" type="curve"/>
      <point x="692" y="120" type="line"/>
      <point x="665" y="42"/>
      <point x="594" y="20"/>
      <point x="543" y="20" type="curve" smooth="yes"/>
      <point x="456" y="20"/>
      <point x="413" y="84"/>
      <point x="433" y="217" type="curve"/>
      <point x="493" y="217" type="line" smooth="yes"/>
      <point x="668" y="217"/>
      <point x="774" y="282"/>
      <point x="774" y="377" type="curve" smooth="yes"/>
      <point x="774" y="439"/>
      <point x="718" y="497"/>
      <point x="618" y="497" type="curve" smooth="yes"/>
      <point x="540" y="497"/>
      <point x="476" y="463"/>
      <point x="432" y="407" type="curve"/>
      <point x="417" y="457"/>
      <point x="373" y="497"/>
      <point x="293" y="497" type="curve" smooth="yes"/>
      <point x="188" y="497"/>
      <point x="114" y="429"/>
      <point x="105" y="336" type="curve"/>
      <point x="164" y="326" type="line"/>
      <point x="172" y="440"/>
      <point x="231" y="467"/>
      <point x="293" y="467" type="curve" smooth="yes"/>
      <point x="354" y="467"/>
      <point x="403" y="434"/>
      <point x="384" y="328" type="curve" smooth="yes"/>
      <point x="369" y="247" type="line"/>
      <point x="236" y="247" type="line" smooth="yes"/>
      <point x="95" y="247"/>
      <point x="46" y="175"/>
      <point x="46" y="100" type="curve" smooth="yes"/>
      <point x="46" y="35"/>
      <point x="86" y="-10"/>
      <point x="173" y="-10" type="curve" smooth="yes"/>
      <point x="241" y="-10"/>
      <point x="319" y="22"/>
      <point x="373" y="116" type="curve"/>
      <point x="394" y="38"/>
      <point x="454" y="-10"/>
      <point x="544" y="-10" type="curve" smooth="yes"/>
      <point x="611" y="-10"/>
      <point x="688" y="16"/>
    </contour>
    <contour>
      <point x="444" y="285" type="line" smooth="yes"/>
      <point x="465" y="413"/>
      <point x="538" y="467"/>
      <point x="616" y="467" type="curve" smooth="yes"/>
      <point x="676" y="467"/>
      <point x="714" y="435"/>
      <point x="714" y="381" type="curve" smooth="yes"/>
      <point x="714" y="322"/>
      <point x="680" y="247"/>
      <point x="492" y="247" type="curve" smooth="yes"/>
      <point x="438" y="247" type="line"/>
    </contour>
    <contour>
      <point x="185" y="25" type="curve" smooth="yes"/>
      <point x="136" y="25"/>
      <point x="109" y="52"/>
      <point x="109" y="103" type="curve" smooth="yes"/>
      <point x="109" y="172"/>
      <point x="145" y="217"/>
      <point x="238" y="217" type="curve" smooth="yes"/>
      <point x="366" y="217" type="line"/>
      <point x="364" y="197"/>
      <point x="364" y="178"/>
      <point x="366" y="160" type="curve"/>
      <point x="302" y="48"/>
      <point x="235" y="25"/>
    </contour>
  </outline>
</glyph>
<glyph name="ccedilla" format="1">
  <advance width="482.7199558905704"/>
  <unicode hex="00E7"/>
  <outline>
    <contour>
      <point x="319" y="-134" type="curve" smooth="yes"/>
      <point x="319" y="-91"/>
      <point x="285" y="-60"/>
      <point x="221" y="-60" type="curve" smooth="yes"/>
      <point x="218" y="-60" type="line"/>
      <point x="248" y="-9" type="line"/>
      <point x="311" y="-4"/>
      <point x="374" y="25"/>
      <point x="416" y="98" type="curve"/>
      <point x="374" y="121" type="line"/>
      <point x="346" y="42"/>
      <point x="278" y="20"/>
      <point x="230" y="20" type="curve" smooth="yes"/>
      <point x="149" y="20"/>
      <point x="109" y="87"/>
      <point x="132" y="225" type="curve" smooth="yes"/>
      <point x="142" y="285" type="line" smooth="yes"/>
      <point x="163" y="413"/>
      <point x="231" y="467"/>
      <point x="306" y="467" type="curve" smooth="yes"/>
      <point x="390" y="467"/>
      <point x="420" y="410"/>
      <point x="387" y="304" type="curve"/>
      <point x="447" y="320" type="line"/>
      <point x="480" y="421"/>
      <point x="424" y="497"/>
      <point x="308" y="497" type="curve" smooth="yes"/>
      <point x="185" y="497"/>
      <point x="97" y="405"/>
      <point x="73" y="272" type="curve" smooth="yes"/>
      <point x="69" y="250" type="line" smooth="yes"/>
      <point x="41" y="100"/>
      <point x="101" y="-4"/>
      <point x="215" y="-10" type="curve"/>
      <point x="184" y="-63" type="line"/>
      <point x="188" y="-89" type="line"/>
      <point x="194" y="-88"/>
      <point x="206" y="-86"/>
      <point x="214" y="-86" type="curve" smooth="yes"/>
      <point x="255" y="-86"/>
      <point x="266" y="-102"/>
      <point x="266" y="-134" type="curve" smooth="yes"/>
      <point x="266" y="-172"/>
      <point x="240" y="-198"/>
      <point x="204" y="-198" type="curve" smooth="yes"/>
      <point x="168" y="-198"/>
      <point x="150" y="-180"/>
      <point x="154" y="-132" type="curve"/>
      <point x="107" y="-145" type="line"/>
      <point x="108" y="-203"/>
      <point x="154" y="-223"/>
      <point x="203" y="-223" type="curve" smooth="yes"/>
      <point x="264" y="-223"/>
      <point x="319" y="-192"/>
    </contour>
  </outline>
</glyph>
<glyph name="eth" format="1">
  <advance width="558"/>
  <unicode hex="00F0"/>
  <outline>
    <contour>
      <point x="489" y="264" type="curve" smooth="yes"/>
      <point x="492" y="284" type="line" smooth="yes"/>
      <point x="517" y="428"/>
      <point x="479" y="552"/>
      <point x="403" y="642" type="curve"/>
      <point x="531" y="725" type="line"/>
      <point x="516" y="750" type="line"/>
      <point x="383" y="664" type="line"/>
      <point x="349" y="699"/>
      <point x="308" y="728"/>
      <point x="263" y="750" type="curve"/>
      <point x="249" y="726" type="line"/>
      <point x="285" y="706"/>
      <point x="322" y="680"/>
      <point x="353" y="644" type="curve"/>
      <point x="223" y="559" type="line"/>
      <point x="237" y="534" type="line"/>
      <point x="371" y="621" type="line"/>
      <point x="414" y="563"/>
      <point x="442" y="482"/>
      <point x="435" y="370" type="curve"/>
      <point x="401" y="426"/>
      <point x="345" y="447"/>
      <point x="288" y="447" type="curve" smooth="yes"/>
      <point x="170" y="447"/>
      <point x="87" y="367"/>
      <point x="68" y="238" type="curve" smooth="yes"/>
      <point x="65" y="218" type="line" smooth="yes"/>
      <point x="46" y="89"/>
      <point x="103" y="-10"/>
      <point x="240" y="-10" type="curve" smooth="yes"/>
      <point x="374" y="-10"/>
      <point x="458" y="89"/>
    </contour>
    <contour>
      <point x="130" y="199" type="curve" smooth="yes"/>
      <point x="138" y="249" type="line" smooth="yes"/>
      <point x="156" y="362"/>
      <point x="220" y="417"/>
      <point x="296" y="417" type="curve" smooth="yes"/>
      <point x="341" y="417"/>
      <point x="398" y="398"/>
      <point x="429" y="320" type="curve"/>
      <point x="429" y="314"/>
      <point x="428" y="309"/>
      <point x="427" y="304" type="curve" smooth="yes"/>
      <point x="417" y="244" type="line" smooth="yes"/>
      <point x="391" y="91"/>
      <point x="336" y="20"/>
      <point x="242" y="20" type="curve" smooth="yes"/>
      <point x="149" y="20"/>
      <point x="112" y="88"/>
    </contour>
  </outline>
</glyph>
<glyph name="divide" format="1">
  <advance width="588"/>
  <unicode hex="00F7"/>
  <outline>
    <contour>
      <point x="298" y="536" type="curve" smooth="yes"/>
      <point x="298" y="509"/>
      <point x="316" y="494"/>
      <point x="343" y="494" type="curve" smooth="yes"/>
      <point x="374" y="494"/>
      <point x="395" y="517"/>
      <point x="395" y="546" type="curve" smooth="yes"/>
      <point x="395" y="573"/>
      <point x="377" y="588"/>
      <point x="350" y="588" type="curve" smooth="yes"/>
      <point x="319" y="588"/>
      <point x="298" y="565"/>
    </contour>
    <contour>
      <point x="100" y="318" type="line"/>
      <point x="514" y="318" type="line"/>
      <point x="520" y="350" type="line"/>
      <point x="106" y="350" type="line"/>
    </contour>
    <contour>
      <point x="226" y="123" type="curve" smooth="yes"/>
      <point x="226" y="96"/>
      <point x="244" y="81"/>
      <point x="271" y="81" type="curve" smooth="yes"/>
      <point x="302" y="81"/>
      <point x="323" y="104"/>
      <point x="323" y="133" type="curve" smooth="yes"/>
      <point x="323" y="160"/>
      <point x="305" y="175"/>
      <point x="278" y="175" type="curve" smooth="yes"/>
      <point x="247" y="175"/>
      <point x="226" y="152"/>
    </contour>
  </outline>
</glyph>
<glyph name="oslash" format="1">
  <advance width="553.3901469038678"/>
  <unicode hex="00F8"/>
  <outline>
    <contour>
      <point x="481" y="219" type="curve" smooth="yes"/>
      <point x="485" y="242" type="line" smooth="yes"/>
      <point x="497" y="309"/>
      <point x="488" y="370"/>
      <point x="461" y="417" type="curve"/>
      <point x="527" y="487" type="line"/>
      <point x="484" y="487" type="line"/>
      <point x="442" y="442" type="line"/>
      <point x="411" y="476"/>
      <point x="366" y="497"/>
      <point x="308" y="497" type="curve" smooth="yes"/>
      <point x="182" y="497"/>
      <point x="98" y="414"/>
      <point x="73" y="269" type="curve" smooth="yes"/>
      <point x="69" y="246" type="line" smooth="yes"/>
      <point x="58" y="179"/>
      <point x="66" y="117"/>
      <point x="92" y="72" type="curve"/>
      <point x="25" y="0" type="line"/>
      <point x="68" y="0" type="line"/>
      <point x="111" y="46" type="line"/>
      <point x="141" y="11"/>
      <point x="186" y="-10"/>
      <point x="244" y="-10" type="curve" smooth="yes"/>
      <point x="370" y="-10"/>
      <point x="456" y="73"/>
    </contour>
    <contour>
      <point x="134" y="224" type="curve" smooth="yes"/>
      <point x="144" y="284" type="line" smooth="yes"/>
      <point x="166" y="417"/>
      <point x="227" y="469"/>
      <point x="303" y="469" type="curve" smooth="yes"/>
      <point x="354" y="469"/>
      <point x="390" y="447"/>
      <point x="409" y="407" type="curve"/>
      <point x="134" y="115" type="line"/>
      <point x="127" y="145"/>
      <point x="127" y="182"/>
    </contour>
    <contour>
      <point x="420" y="264" type="curve" smooth="yes"/>
      <point x="410" y="204" type="line" smooth="yes"/>
      <point x="388" y="71"/>
      <point x="327" y="18"/>
      <point x="250" y="18" type="curve" smooth="yes"/>
      <point x="199" y="18"/>
      <point x="164" y="41"/>
      <point x="145" y="81" type="curve"/>
      <point x="420" y="374" type="line"/>
      <point x="427" y="343"/>
      <point x="427" y="306"/>
    </contour>
  </outline>
</glyph>
<glyph name="thorn" format="1">
  <advance width="565"/>
  <unicode hex="00FE"/>
  <outline>
    <contour>
      <point x="261" y="-10" type="curve" smooth="yes"/>
      <point x="369" y="-10"/>
      <point x="466" y="75"/>
      <point x="490" y="209" type="curve" smooth="yes"/>
      <point x="494" y="231" type="line" smooth="yes"/>
      <point x="521" y="378"/>
      <point x="465" y="497"/>
      <point x="348" y="497" type="curve" smooth="yes"/>
      <point x="294" y="497"/>
      <point x="240" y="471"/>
      <point x="194" y="405" type="curve"/>
      <point x="253" y="740" type="line"/>
      <point x="116" y="740" type="line"/>
      <point x="112" y="716" type="line"/>
      <point x="166" y="710" type="line" smooth="yes"/>
      <point x="186" y="708"/>
      <point x="187" y="707"/>
      <point x="179" y="661" type="curve" smooth="yes"/>
      <point x="24" y="-213" type="line"/>
      <point x="84" y="-213" type="line"/>
      <point x="131" y="54" type="line"/>
      <point x="160" y="14"/>
      <point x="202" y="-10"/>
    </contour>
    <contour>
      <point x="343" y="467" type="curve" smooth="yes"/>
      <point x="415" y="467"/>
      <point x="453" y="387"/>
      <point x="432" y="261" type="curve" smooth="yes"/>
      <point x="422" y="201" type="line" smooth="yes"/>
      <point x="403" y="88"/>
      <point x="348" y="20"/>
      <point x="260" y="20" type="curve" smooth="yes"/>
      <point x="201" y="20"/>
      <point x="166" y="47"/>
      <point x="140" y="103" type="curve"/>
      <point x="180" y="331" type="line"/>
      <point x="240" y="441"/>
      <point x="296" y="467"/>
    </contour>
  </outline>
</glyph>
<glyph name="Aogonek" format="1">
  <advance width="622"/>
  <unicode hex="0104"/>
  <outline>
    <contour>
      <point x="557" y="-125" type="curve"/>
      <point x="515" y="-112" type="line"/>
      <point x="491" y="-174"/>
      <point x="458" y="-196"/>
      <point x="424" y="-196" type="curve" smooth="yes"/>
      <point x="393" y="-196"/>
      <point x="378" y="-178"/>
      <point x="378" y="-140" type="curve" smooth="yes"/>
      <point x="378" y="-69"/>
      <point x="430" y="0"/>
      <point x="516" y="0" type="curve"/>
      <point x="579" y="0" type="line"/>
      <point x="583" y="25" type="line"/>
      <point x="529" y="30" type="line" smooth="yes"/>
      <point x="510" y="32"/>
      <point x="509" y="32"/>
      <point x="502" y="79" type="curve" smooth="yes"/>
      <point x="411" y="680" type="line"/>
      <point x="364" y="680" type="line"/>
      <point x="63" y="79" type="line" smooth="yes"/>
      <point x="40" y="32"/>
      <point x="39" y="32"/>
      <point x="17" y="30" type="curve" smooth="yes"/>
      <point x="-39" y="25" type="line"/>
      <point x="-43" y="0" type="line"/>
      <point x="149" y="0" type="line"/>
      <point x="153" y="25" type="line"/>
      <point x="99" y="30" type="line" smooth="yes"/>
      <point x="78" y="32"/>
      <point x="77" y="33"/>
      <point x="100" y="79" type="curve" smooth="yes"/>
      <point x="165" y="210" type="line"/>
      <point x="419" y="210" type="line"/>
      <point x="448" y="13" type="line"/>
      <point x="380" y="-12"/>
      <point x="326" y="-75"/>
      <point x="326" y="-138" type="curve" smooth="yes"/>
      <point x="326" y="-195"/>
      <point x="368" y="-223"/>
      <point x="424" y="-223" type="curve" smooth="yes"/>
      <point x="476" y="-223"/>
      <point x="524" y="-198"/>
    </contour>
    <contour>
      <point x="180" y="240" type="line"/>
      <point x="360" y="600" type="line"/>
      <point x="414" y="240" type="line"/>
    </contour>
  </outline>
</glyph>
<glyph name="aogonek" format="1">
  <advance width="580.0408725885582"/>
  <unicode hex="0105"/>
  <outline>
    <contour>
      <point x="515" y="-125" type="curve"/>
      <point x="473" y="-112" type="line"/>
      <point x="449" y="-174"/>
      <point x="416" y="-196"/>
      <point x="382" y="-196" type="curve" smooth="yes"/>
      <point x="351" y="-196"/>
      <point x="336" y="-178"/>
      <point x="336" y="-144" type="curve" smooth="yes"/>
      <point x="336" y="-28"/>
      <point x="496" y="-41"/>
      <point x="550" y="83" type="curve"/>
      <point x="517" y="105" type="line"/>
      <point x="498" y="47"/>
      <point x="471" y="24"/>
      <point x="451" y="24" type="curve" smooth="yes"/>
      <point x="429" y="24"/>
      <point x="420" y="48"/>
      <point x="438" y="150" type="curve" smooth="yes"/>
      <point x="498" y="487" type="line"/>
      <point x="458" y="487" type="line"/>
      <point x="449" y="469"/>
      <point x="439" y="449"/>
      <point x="430" y="431" type="curve"/>
      <point x="402" y="472"/>
      <point x="360" y="497"/>
      <point x="301" y="497" type="curve" smooth="yes"/>
      <point x="194" y="497"/>
      <point x="98" y="412"/>
      <point x="74" y="278" type="curve" smooth="yes"/>
      <point x="70" y="256" type="line" smooth="yes"/>
      <point x="43" y="109"/>
      <point x="99" y="-10"/>
      <point x="214" y="-10" type="curve" smooth="yes"/>
      <point x="270" y="-10"/>
      <point x="324" y="18"/>
      <point x="372" y="90" type="curve"/>
      <point x="371" y="35"/>
      <point x="390" y="6"/>
      <point x="422" y="-3" type="curve"/>
      <point x="361" y="-35"/>
      <point x="284" y="-72"/>
      <point x="284" y="-144" type="curve" smooth="yes"/>
      <point x="284" y="-195"/>
      <point x="326" y="-223"/>
      <point x="382" y="-223" type="curve" smooth="yes"/>
      <point x="434" y="-223"/>
      <point x="482" y="-198"/>
    </contour>
    <contour>
      <point x="132" y="226" type="curve" smooth="yes"/>
      <point x="142" y="286" type="line" smooth="yes"/>
      <point x="160" y="399"/>
      <point x="215" y="467"/>
      <point x="302" y="467" type="curve" smooth="yes"/>
      <point x="359" y="467"/>
      <point x="394" y="441"/>
      <point x="420" y="385" type="curve"/>
      <point x="379" y="156" type="line"/>
      <point x="320" y="46"/>
      <point x="265" y="20"/>
      <point x="219" y="20" type="curve" smooth="yes"/>
      <point x="149" y="20"/>
      <point x="111" y="100"/>
    </contour>
  </outline>
</glyph>
<glyph name="Eogonek" format="1">
  <advance width="565"/>
  <unicode hex="0118"/>
  <outline>
    <contour>
      <point x="455" y="-125" type="curve"/>
      <point x="413" y="-112" type="line"/>
      <point x="389" y="-174"/>
      <point x="356" y="-196"/>
      <point x="322" y="-196" type="curve" smooth="yes"/>
      <point x="291" y="-196"/>
      <point x="276" y="-178"/>
      <point x="276" y="-140" type="curve" smooth="yes"/>
      <point x="276" y="-69"/>
      <point x="328" y="0"/>
      <point x="414" y="0" type="curve"/>
      <point x="477" y="0" type="line"/>
      <point x="505" y="157" type="line"/>
      <point x="481" y="157" type="line"/>
      <point x="436" y="56" type="line" smooth="yes"/>
      <point x="426" y="33"/>
      <point x="424" y="30"/>
      <point x="377" y="30" type="curve"/>
      <point x="157" y="30" type="line"/>
      <point x="209" y="329" type="line"/>
      <point x="357" y="329" type="line" smooth="yes"/>
      <point x="404" y="329"/>
      <point x="405" y="327"/>
      <point x="406" y="303" type="curve" smooth="yes"/>
      <point x="411" y="232" type="line"/>
      <point x="435" y="232" type="line"/>
      <point x="474" y="456" type="line"/>
      <point x="450" y="456" type="line"/>
      <point x="421" y="385" type="line" smooth="yes"/>
      <point x="411" y="361"/>
      <point x="409" y="359"/>
      <point x="362" y="359" type="curve" smooth="yes"/>
      <point x="214" y="359" type="line"/>
      <point x="265" y="650" type="line"/>
      <point x="473" y="650" type="line" smooth="yes"/>
      <point x="520" y="650"/>
      <point x="520" y="647"/>
      <point x="522" y="624" type="curve" smooth="yes"/>
      <point x="531" y="523" type="line"/>
      <point x="555" y="523" type="line"/>
      <point x="583" y="680" type="line"/>
      <point x="129" y="680" type="line"/>
      <point x="124" y="655" type="line"/>
      <point x="179" y="650" type="line" smooth="yes"/>
      <point x="199" y="648"/>
      <point x="200" y="648"/>
      <point x="192" y="601" type="curve" smooth="yes"/>
      <point x="100" y="79" type="line" smooth="yes"/>
      <point x="92" y="32"/>
      <point x="91" y="32"/>
      <point x="69" y="30" type="curve" smooth="yes"/>
      <point x="13" y="25" type="line"/>
      <point x="9" y="0" type="line"/>
      <point x="330" y="0" type="line"/>
      <point x="269" y="-28"/>
      <point x="224" y="-83"/>
      <point x="224" y="-138" type="curve" smooth="yes"/>
      <point x="224" y="-195"/>
      <point x="266" y="-223"/>
      <point x="322" y="-223" type="curve" smooth="yes"/>
      <point x="374" y="-223"/>
      <point x="422" y="-198"/>
    </contour>
  </outline>
</glyph>
<glyph name="eogonek" format="1">
  <advance width="505.7199558905704"/>
  <unicode hex="0119"/>
  <outline>
    <contour>
      <point x="389" y="-125" type="curve"/>
      <point x="347" y="-112" type="line"/>
      <point x="323" y="-174"/>
      <point x="290" y="-196"/>
      <point x="256" y="-196" type="curve" smooth="yes"/>
      <point x="225" y="-196"/>
      <point x="210" y="-178"/>
      <point x="210" y="-140" type="curve" smooth="yes"/>
      <point x="210" y="-25"/>
      <point x="373" y="-13"/>
      <point x="432" y="98" type="curve"/>
      <point x="389" y="120" type="line"/>
      <point x="362" y="42"/>
      <point x="291" y="20"/>
      <point x="240" y="20" type="curve" smooth="yes"/>
      <point x="155" y="20"/>
      <point x="112" y="81"/>
      <point x="128" y="208" type="curve"/>
      <point x="190" y="212" type="line" smooth="yes"/>
      <point x="354" y="223"/>
      <point x="471" y="279"/>
      <point x="471" y="377" type="curve" smooth="yes"/>
      <point x="471" y="439"/>
      <point x="415" y="497"/>
      <point x="315" y="497" type="curve" smooth="yes"/>
      <point x="187" y="497"/>
      <point x="96" y="405"/>
      <point x="72" y="272" type="curve" smooth="yes"/>
      <point x="68" y="250" type="line" smooth="yes"/>
      <point x="40" y="95"/>
      <point x="107" y="-10"/>
      <point x="241" y="-10" type="curve" smooth="yes"/>
      <point x="250" y="-10"/>
      <point x="258" y="-10"/>
      <point x="267" y="-9" type="curve"/>
      <point x="214" y="-39"/>
      <point x="158" y="-73"/>
      <point x="158" y="-138" type="curve" smooth="yes"/>
      <point x="158" y="-195"/>
      <point x="200" y="-223"/>
      <point x="256" y="-223" type="curve" smooth="yes"/>
      <point x="308" y="-223"/>
      <point x="356" y="-198"/>
    </contour>
    <contour>
      <point x="141" y="285" type="line" smooth="yes"/>
      <point x="162" y="413"/>
      <point x="235" y="467"/>
      <point x="313" y="467" type="curve" smooth="yes"/>
      <point x="373" y="467"/>
      <point x="411" y="435"/>
      <point x="411" y="381" type="curve" smooth="yes"/>
      <point x="411" y="320"/>
      <point x="366" y="252"/>
      <point x="189" y="241" type="curve" smooth="yes"/>
      <point x="133" y="237" type="line"/>
    </contour>
  </outline>
</glyph>
<glyph name="Hbar" format="1">
  <advance width="722"/>
  <unicode hex="0126"/>
  <outline>
    <contour>
      <point x="235" y="25" type="line"/>
      <point x="181" y="30" type="line" smooth="yes"/>
      <point x="161" y="32"/>
      <point x="160" y="32"/>
      <point x="168" y="79" type="curve" smooth="yes"/>
      <point x="212" y="329" type="line"/>
      <point x="540" y="329" type="line"/>
      <point x="496" y="79" type="line" smooth="yes"/>
      <point x="488" y="32"/>
      <point x="487" y="32"/>
      <point x="465" y="30" type="curve" smooth="yes"/>
      <point x="409" y="25" type="line"/>
      <point x="405" y="0" type="line"/>
      <point x="624" y="0" type="line"/>
      <point x="628" y="25" type="line"/>
      <point x="574" y="30" type="line" smooth="yes"/>
      <point x="554" y="32"/>
      <point x="553" y="32"/>
      <point x="561" y="79" type="curve" smooth="yes"/>
      <point x="634" y="493" type="line"/>
      <point x="711" y="493" type="line"/>
      <point x="716" y="523" type="line"/>
      <point x="639" y="523" type="line"/>
      <point x="653" y="601" type="line" smooth="yes"/>
      <point x="661" y="648"/>
      <point x="662" y="648"/>
      <point x="684" y="650" type="curve" smooth="yes"/>
      <point x="739" y="655" type="line"/>
      <point x="744" y="680" type="line"/>
      <point x="525" y="680" type="line"/>
      <point x="520" y="655" type="line"/>
      <point x="575" y="650" type="line" smooth="yes"/>
      <point x="595" y="648"/>
      <point x="596" y="648"/>
      <point x="588" y="601" type="curve" smooth="yes"/>
      <point x="574" y="523" type="line"/>
      <point x="246" y="523" type="line"/>
      <point x="260" y="601" type="line" smooth="yes"/>
      <point x="268" y="648"/>
      <point x="269" y="648"/>
      <point x="291" y="650" type="curve" smooth="yes"/>
      <point x="346" y="655" type="line"/>
      <point x="351" y="680" type="line"/>
      <point x="132" y="680" type="line"/>
      <point x="127" y="655" type="line"/>
      <point x="182" y="650" type="line" smooth="yes"/>
      <point x="202" y="648"/>
      <point x="203" y="648"/>
      <point x="195" y="601" type="curve" smooth="yes"/>
      <point x="181" y="523" type="line"/>
      <point x="104" y="523" type="line"/>
      <point x="99" y="493" type="line"/>
      <point x="176" y="493" type="line"/>
      <point x="103" y="79" type="line" smooth="yes"/>
      <point x="95" y="32"/>
      <point x="94" y="32"/>
      <point x="72" y="30" type="curve" smooth="yes"/>
      <point x="16" y="25" type="line"/>
      <point x="12" y="0" type="line"/>
      <point x="231" y="0" type="line"/>
    </contour>
    <contour>
      <point x="217" y="359" type="line"/>
      <point x="241" y="493" type="line"/>
      <point x="569" y="493" type="line"/>
      <point x="545" y="359" type="line"/>
    </contour>
  </outline>
</glyph>
